<svg width="44" height="32" fill="none" xmlns="http://www.w3.org/2000/svg"><path d="M44 4.998c-5.754 2.776-8.63 6.039-8.63 9.787 2.452.278 4.48 1.273 6.083 2.985 1.604 1.666 2.405 3.61 2.405 5.83 0 2.361-.778 4.35-2.334 5.97S38.011 32 35.653 32c-2.641 0-4.928-1.041-6.862-3.124-1.933-2.128-2.9-4.697-2.9-7.705 0-9.023 5.14-16.08 15.42-21.171L44 4.998zm-25.89 0c-5.801 2.776-8.702 6.039-8.702 9.787 2.5.278 4.551 1.273 6.155 2.985 1.603 1.666 2.405 3.61 2.405 5.83 0 2.361-.802 4.35-2.405 5.97C14.006 31.19 12.049 32 9.69 32c-2.64 0-4.928-1.041-6.861-3.124C.943 26.748 0 24.18 0 21.171 0 12.148 5.117 5.091 15.35 0l2.76 4.998z" fill="#3D3D3D"/></svg>