<svg width="19" height="16" viewBox="0 0 19 16" fill="none" xmlns="http://www.w3.org/2000/svg">
<g clip-path="url(#clip0_91_2409)">
<path d="M19.0003 3.61802C18.9288 3.61336 18.8572 3.59936 18.7904 3.59936C14.6686 3.59936 10.5516 3.59936 6.42985 3.59469C6.26765 3.59469 6.20087 3.63203 6.1627 3.80004C5.8717 5.06482 4.76015 5.93756 3.44824 5.9329C2.1411 5.9329 1.02956 5.05082 0.733783 3.79071C0.38553 2.28791 1.45891 0.752436 3.01889 0.533083C4.51685 0.323065 5.83353 1.20981 6.17224 2.66594C6.20087 2.79195 6.2438 2.83395 6.37738 2.83395C10.5326 2.82929 14.6877 2.82929 18.8429 2.82929C18.8954 2.82929 18.9479 2.81995 19.0003 2.81062C19.0003 3.08131 19.0003 3.34733 19.0003 3.61802ZM3.45778 5.15816C4.55502 5.15349 5.44234 4.28075 5.43757 3.20732C5.43757 2.12456 4.5407 1.26582 3.42439 1.27048C2.34147 1.27515 1.45891 2.15256 1.46368 3.22132C1.46845 4.29475 2.36055 5.16283 3.45778 5.15816Z" fill="#BA9D51"/>
<path d="M19.0002 13.171C18.5279 13.171 18.0604 13.1663 17.5881 13.1663C16.0424 13.1663 14.5015 13.1663 12.9558 13.1663C12.8843 13.1663 12.8127 13.1663 12.7316 13.1663C12.5885 13.9597 12.1973 14.5944 11.5199 15.0425C11.0237 15.3738 10.4656 15.5185 9.8645 15.4998C8.64323 15.4578 7.47444 14.6038 7.21683 13.171C5.04621 13.171 2.8756 13.171 0.690674 13.171C0.690674 12.9096 0.690674 12.6669 0.690674 12.4056C2.86129 12.4056 5.0319 12.4056 7.20252 12.4056C7.26453 12.2002 7.30747 12.0042 7.37903 11.8222C7.80838 10.7021 8.96286 9.97402 10.1507 10.0674C11.4197 10.1654 12.4502 11.0381 12.6935 12.2376C12.7221 12.3729 12.7698 12.4009 12.8986 12.4009C14.8593 12.3962 16.82 12.3962 18.7807 12.4009C18.8523 12.4009 18.9238 12.4056 18.9954 12.4056C19.0002 12.6576 19.0002 12.9143 19.0002 13.171ZM9.97899 14.7298C11.0858 14.7204 11.9636 13.8524 11.9588 12.7789C11.954 11.7008 11.0619 10.8281 9.96945 10.8374C8.86745 10.8421 7.97535 11.7335 7.98489 12.8116C7.99443 13.8617 8.90084 14.7391 9.97899 14.7298Z" fill="#BA9D51"/>
</g>
<defs>
<clipPath id="clip0_91_2409">
<rect width="18.3333" height="15" fill="white" transform="translate(0.666748 0.5)"/>
</clipPath>
</defs>
</svg>
