<svg width="143" height="45" viewBox="0 0 143 45" fill="none" xmlns="http://www.w3.org/2000/svg">
<path d="M8.44491 18.8693C8.63433 19.0851 8.8027 19.301 8.97107 19.5168C9.13944 19.6464 9.30781 19.7759 9.47618 19.9054C9.43409 19.8406 9.392 19.7759 9.3499 19.7111C9.47618 19.8406 9.62351 19.9917 9.77083 20.1212C9.85502 20.186 9.93921 20.2508 10.0234 20.3155C9.93921 19.9917 9.79188 19.7111 9.62351 19.4521C8.90793 18.7829 8.23444 18.049 7.35049 17.5957C7.77142 17.9411 8.10817 18.3944 8.44491 18.8693Z" fill="black"/>
<path fill-rule="evenodd" clip-rule="evenodd" d="M6.01401 16.9158L6.97823 17.3527C7.78229 17.717 8.43061 18.268 9.06241 18.8049C9.1989 18.9209 9.33462 19.0363 9.47098 19.1489L9.4813 19.1575L9.48906 19.168C9.67574 19.4218 9.84264 19.7014 9.93837 20.0267L10.0234 20.3155L9.68378 20.0847L9.69901 20.1054L8.60582 19.3624L8.59677 19.3522C8.41377 19.1449 8.23303 18.9402 8.03002 18.7358L8.02605 18.7318L8.02255 18.7274C7.65672 18.2716 7.29923 17.8475 6.85581 17.5261L6.01401 16.9158ZM9.11329 19.4486L9.17785 19.4006C9.30537 19.5162 9.44935 19.6466 9.59389 19.7615C9.51407 19.5963 9.4153 19.4419 9.30668 19.2933C9.16871 19.1791 9.03289 19.0638 8.89762 18.9489C8.50682 18.6171 8.12056 18.2891 7.69987 18.0044C7.87488 18.1957 8.0402 18.3975 8.20379 18.6013C8.40686 18.8061 8.58771 19.0106 8.76607 19.2126L9.11329 19.4486Z" fill="black"/>
<path d="M6.60362 35.2744C6.44639 35.7784 6.32846 36.3063 6.17123 36.8103C6.13193 37.6503 6.05331 38.5142 6.01401 39.3541C6.36777 38.5862 6.56431 37.7942 6.68223 37.0023C6.60362 36.4023 6.56431 35.8504 6.60362 35.2744Z" fill="black"/>
<path fill-rule="evenodd" clip-rule="evenodd" d="M6.2684 35.9975C6.30982 35.7558 6.35154 35.5124 6.39927 35.2744L6.63426 35.3002C6.61082 35.8346 6.6342 36.3478 6.68142 36.9085L6.68223 36.9181L6.68131 36.9276C6.60975 37.6753 6.49022 38.426 6.27416 39.1556L6.01401 40.0341L6.04145 39.1219C6.05333 38.7269 6.07115 38.3264 6.08893 37.9268L6.08894 37.9264C6.10674 37.5264 6.12449 37.1273 6.13632 36.734L6.13659 36.725L6.13837 36.7161C6.18546 36.4813 6.22671 36.2407 6.26827 35.9983L6.2684 35.9975ZM6.37314 36.7494C6.36249 37.1009 6.34718 37.4567 6.33141 37.8123C6.37879 37.5153 6.41535 37.2163 6.44419 36.9168C6.43319 36.7857 6.42348 36.6568 6.41534 36.5294C6.40172 36.6031 6.38771 36.6765 6.37314 36.7494Z" fill="black"/>
<path d="M44.6043 7.30039C44.8516 6.57996 44.8067 5.94958 44.5818 5.27418C43.9523 3.51812 42.8281 2.21234 41.524 1.06415C40.5797 0.231154 38.3987 0.568857 37.387 1.62699C36.7349 2.32491 35.948 2.73015 35.0711 3.00031C34.5315 3.15791 34.0368 3.49561 33.5422 3.8108C32.8902 4.21604 32.2381 4.41866 31.4962 4.39615C30.2371 4.37364 28.978 4.4862 27.7413 4.9815C28.3259 5.04904 28.9105 5.09407 29.4951 5.13909C29.5176 5.04904 29.585 4.95899 29.6974 4.95899C29.7199 4.95899 29.7649 4.95899 29.7874 4.95899C29.7874 4.91396 29.7874 4.89145 29.7874 4.84642C30.9565 4.71134 32.1257 4.57626 33.3623 4.44118C33.16 4.62129 32.9576 4.9815 32.7553 4.9815C32.2831 5.00401 31.8109 5.00402 31.3613 5.00402C31.3613 5.11658 31.2938 5.25166 31.1589 5.25166C31.0465 5.25166 30.9341 5.27418 30.8216 5.27418C30.9341 5.29669 30.979 5.40926 30.979 5.52182L31.721 5.61188C31.7435 5.70193 31.766 5.8145 31.7885 5.90456C31.4512 6.08466 31.069 6.46739 30.7542 6.42236C30.6418 6.39985 30.5069 6.37734 30.3944 6.35483C30.5294 6.46739 30.3944 6.76007 30.1921 6.69253C28.9555 6.35483 27.6739 6.3098 26.4373 5.97209C26.2124 5.90455 26.3473 5.52182 26.5722 5.58937C27.4266 5.83701 28.3259 5.92707 29.2028 6.08466C28.7306 5.94958 28.2585 5.83701 27.7863 5.70193C27.7863 5.67942 27.7863 5.63439 27.8088 5.61188C28.7756 5.72445 29.7649 5.83701 30.7317 5.94958L30.7542 5.79199C29.9673 5.67942 29.1803 5.54434 28.3709 5.43177C28.1011 5.40926 27.8088 5.38675 27.539 5.34172C27.4266 5.3192 27.3816 5.22915 27.3816 5.11658C27.3141 5.16161 27.2242 5.18412 27.1568 5.22915C26.1899 5.72445 25.1557 5.97209 24.0315 5.92707C22.8174 5.88204 21.5807 6.26477 20.3666 6.46739C18.433 6.8051 16.5218 7.34542 14.5657 7.27788C14.2959 7.27788 13.9587 7.36793 13.7338 7.57055C12.7895 8.38104 11.7552 9.03393 10.9908 10.1146C10.0465 11.4204 8.94476 12.6361 7.84304 13.8068C6.53897 15.1576 5.1 16.3508 3.81842 17.7241C2.51435 19.12 1.27773 20.6059 1.14282 22.6996C1.12034 22.9473 1.07537 23.285 0.917985 23.4426C0.198498 24.2981 0.333402 25.2211 0.355886 26.2117C0.37837 26.8871 0.108562 27.5851 0.0186265 28.2605C-0.0263414 28.6207 0.0186258 28.9809 0.0635937 29.3411C0.153529 29.949 0.445822 30.5568 0.333402 31.1197C0.131047 32.1328 0.333401 32.9883 0.715629 33.7988C1.25524 34.9245 1.41263 36.0051 0.648176 37.1983C0.490788 37.446 0.490788 37.8512 0.535756 38.1664C0.67066 39.112 0.940468 39.99 0.490789 41.0256C0.108562 41.9036 0.625692 42.9167 1.43511 43.3445C1.83983 43.5696 2.26702 43.7723 2.69422 43.9749C2.69422 44.0199 2.69422 44.0649 2.69422 44.11C3.4137 44.1325 4.15567 44.2225 4.87516 44.1325C6.04433 43.9974 7.14604 44.1775 8.22527 44.6053C8.89979 44.8754 9.55182 44.8304 10.2488 44.6278C10.8109 44.4702 11.463 44.4477 12.0251 44.5377C12.9019 44.6728 13.7338 44.7854 14.6107 44.4702C14.858 44.3801 15.1503 44.3576 15.3977 44.3576C17.1289 44.4026 18.8602 44.5152 20.6139 44.4927C21.4233 44.4702 22.2553 44.2 23.0422 43.9299C24.1439 43.5471 25.2231 43.3895 26.3473 43.4346C28.3484 43.5021 30.372 43.4796 32.373 43.4796C33.3398 43.4796 34.3291 43.4571 35.2959 43.412C35.5433 43.412 35.7906 43.3445 36.0154 43.2319C37.0947 42.6691 38.2413 42.3989 39.4105 42.3764C39.5904 42.3764 39.8827 42.1288 39.9276 41.9487C40.0401 41.4534 40.1075 40.9356 40.085 40.4628C40.0401 39.5622 39.9052 38.6842 39.8152 37.7837C39.7927 37.5585 39.8152 37.3109 39.8602 37.0632C40.0625 35.4873 40.13 33.9114 39.7253 32.3804C39.6578 32.1328 39.7478 31.8176 39.7703 31.5249C39.9052 30.5343 40.0176 29.5212 40.175 28.5306C40.3099 27.7201 40.4897 26.9322 40.6921 26.1442C41.0968 24.6808 41.569 23.2399 41.9512 21.7541C42.5358 19.4802 43.0529 17.2063 43.615 14.9325C43.9073 13.7618 44.312 12.6136 44.4919 11.4204C44.6493 10.4523 44.5144 9.46169 44.5593 8.49361C44.4694 8.08837 44.4919 7.66061 44.6043 7.30039ZM43.4801 5.16161C42.918 5.85953 42.4234 6.57996 41.9062 7.30039C41.4566 7.95328 41.0743 8.62869 40.6471 9.3041C40.175 8.6512 40.13 8.53863 40.4673 8.06585C41.4116 6.71504 42.3784 5.38674 43.3452 4.01342C43.8399 4.41866 43.8174 4.73385 43.4801 5.16161ZM20.9512 39.8324C20.8163 39.6748 20.6589 39.5172 20.569 39.4272C26.752 37.0407 32.8902 34.6768 39.0733 32.2679C39.1632 32.538 39.2306 32.7406 39.2981 32.9658C35.8131 34.3391 32.3955 35.7124 28.978 37.0182C26.6396 37.9187 24.2788 38.7292 21.9405 39.5848C22.2103 39.5397 22.4801 39.5622 22.7274 39.4722C26.3698 38.1439 30.0122 36.8381 33.6546 35.4873C35.5658 34.7669 37.4544 34.0014 39.3655 33.2585C39.5904 33.7988 39.3431 33.9789 38.9384 34.1365C35.8356 35.2622 32.7328 36.4329 29.63 37.5585C27.1568 38.4591 24.661 39.3146 22.1878 40.2602C21.5807 40.4628 21.221 40.3952 20.9512 39.8324ZM21.6482 42.579H21.6257C21.2884 41.8361 20.9287 41.0932 20.5914 40.3277C20.6364 40.3052 20.6814 40.2827 20.7263 40.2602C21.0411 41.0481 21.3334 41.8136 21.6482 42.579ZM20.0743 38.4591C26.4822 36.0501 32.8677 33.6412 39.2531 31.2322C39.388 31.705 39.0957 31.8851 38.7135 32.0427C35.6557 33.2359 32.5979 34.4742 29.5401 35.6449C26.6846 36.7481 23.7842 37.8062 20.9287 38.9093C20.4116 39.0895 20.1418 38.9093 20.0743 38.4591ZM19.7146 38.2339C19.6471 37.7837 19.6021 37.491 19.5797 37.2208C19.4672 36.9282 19.3323 36.613 19.2199 36.2978C24.2788 34.5868 29.2478 32.8982 34.1942 31.2322C34.3741 31.615 34.2167 31.8176 33.8345 31.9527C29.7649 33.416 25.6953 34.9019 21.6257 36.3878C21.0636 36.5905 20.524 36.8606 19.9844 37.0858C20.2317 37.0407 20.479 37.0407 20.7039 36.9732C26.9319 35.1271 32.9576 32.5831 39.0283 30.2416C39.0957 30.2191 39.1407 30.2191 39.2306 30.1966C39.2981 30.3992 39.3431 30.5793 39.433 30.8495C32.8677 33.2585 26.3698 35.7124 19.7146 38.2339ZM14.3184 37.6036C14.2285 37.6261 14.1385 37.6261 14.0486 37.6486C14.0261 37.446 14.0261 37.2208 14.0036 37.0182C13.8912 37.0182 13.7788 36.9732 13.7114 36.8831L13.8912 38.2114L13.6889 38.2565C13.6214 38.1214 13.5315 37.9863 13.464 37.8737L13.2842 38.5491C13.1942 38.4591 13.1043 38.3915 13.0144 38.3015C13.0144 38.2339 13.0144 38.1889 13.0144 38.1214C13.0144 38.1214 13.0144 38.1439 12.9919 38.1439C12.9919 38.1889 12.9919 38.2339 13.0144 38.3015C13.0144 38.3015 13.0144 38.3015 12.9919 38.279L12.812 38.8193C12.7445 38.8193 12.6771 38.7968 12.6096 38.7968C12.6096 38.6167 12.5872 38.414 12.5872 38.2339C12.4972 38.1889 12.4523 38.0989 12.4523 37.9863C12.4523 37.2884 12.4523 36.5679 12.4747 35.87L12.2499 31.2548C12.3173 31.2548 12.4073 31.2322 12.4747 31.2322C12.4747 31.2548 12.4747 31.2773 12.4747 31.3223C12.5872 31.2548 12.7221 31.2998 12.7221 31.4574C12.7221 31.5474 12.7445 31.6375 12.7445 31.7275C12.7445 31.6375 12.767 31.5699 12.767 31.4799C12.7445 31.3673 12.7445 31.2097 12.7221 31.0521C12.767 31.0746 12.812 31.1197 12.8794 31.1422C13.0593 30.9621 13.464 31.1422 13.4191 31.4574C13.3966 31.6375 13.3741 31.8176 13.3516 31.9977C13.4191 32.8082 13.464 33.6412 13.509 34.4517C13.6214 34.9019 13.6439 35.3747 13.5989 35.87L13.7114 36.7255C13.8238 36.4329 13.8912 36.1177 13.9362 35.825C13.8238 34.5417 13.7338 33.2585 13.6214 31.9752C13.5989 31.9527 13.5989 31.9302 13.5764 31.9076C13.5315 31.8401 13.554 31.7726 13.5989 31.705C13.5989 31.6825 13.5989 31.6825 13.5989 31.66C13.6214 31.66 13.6214 31.66 13.6439 31.66C13.7338 31.5925 13.8687 31.5925 13.9362 31.705C14.0486 31.9076 14.1161 32.1103 14.161 32.3354C14.206 31.9977 14.2735 31.66 14.3859 31.3223C14.4758 31.0521 14.8131 31.0521 14.948 31.2322C15.0154 31.2548 15.0604 31.2998 15.0604 31.3673C15.1278 31.8626 15.1728 32.3579 15.2403 32.8307C15.2627 32.3129 15.2627 31.7951 15.2627 31.2773V31.2548C15.2178 31.0972 15.1503 30.9846 15.0379 30.872C14.858 30.7144 15.0829 30.3767 15.2627 30.5343C15.3976 30.6694 15.4876 30.8045 15.555 30.9846C15.7124 30.9846 15.8923 31.0746 15.8923 31.2773C15.8923 32.0652 15.8473 32.8307 15.8473 33.6187C15.9148 33.7988 15.9822 33.9564 16.0497 34.1365C15.9822 32.8757 15.9148 31.5925 15.8248 30.3317C16.0497 30.9621 16.1396 31.6375 16.252 32.3129C16.2745 32.4705 16.4319 32.6056 16.5218 32.7406C16.4544 32.0202 16.342 31.2998 16.297 30.5568C16.2745 30.3317 16.3869 30.0841 16.4319 29.8364C16.3645 29.4537 16.3869 29.116 16.4994 28.8458C16.252 28.9809 16.0272 29.1385 15.8248 29.2961C15.5775 29.6788 15.2627 29.9039 14.9255 30.0165C14.903 30.039 14.8805 30.039 14.8805 30.0615C14.3409 30.3992 13.7114 30.4443 13.1717 30.782C12.9694 30.9171 12.812 30.5568 13.0144 30.4218C13.1493 30.3317 13.2842 30.2642 13.4415 30.2191C13.3966 30.2191 13.3741 30.2191 13.3291 30.2191C13.8687 29.994 14.4308 29.7463 14.9929 29.4987C15.4876 29.0935 15.8923 28.6882 16.4769 28.4181C16.5893 28.373 16.6792 28.4181 16.7242 28.5081C16.8816 28.328 17.0839 28.1704 17.3762 28.0353L16.6792 30.0841C16.7467 30.6244 16.8366 31.1422 16.8591 31.6825C16.8591 32.1103 17.1064 32.6281 16.5443 32.9433C16.4319 33.4386 16.3195 33.9114 16.2296 34.4066H16.2071C16.3869 34.7894 16.5443 35.1721 16.6343 35.6224C16.6792 35.87 16.3195 35.9601 16.2745 35.7124C16.2071 35.3297 16.0497 34.992 15.8923 34.6768C15.8923 34.9019 15.9148 35.1271 15.9148 35.3522C15.9148 35.4648 15.8698 35.5548 15.8024 35.5999C15.8473 35.9376 15.8698 36.2753 15.8698 36.6355C15.8698 36.8831 15.5101 36.8831 15.5101 36.6355C15.4201 36.658 15.3302 36.658 15.2403 36.6805C15.1503 35.6449 15.0604 34.5868 14.9705 33.5511C14.903 33.1459 14.858 32.7181 14.8131 32.2904C14.7681 32.493 14.7456 32.6956 14.7456 32.8982C14.7681 33.4836 14.8131 34.0689 14.903 34.6318C15.0379 35.3522 15.2178 36.0501 15.1953 36.7931C15.1953 37.0407 14.8131 37.0407 14.8131 36.7706C14.8356 36.2528 14.7456 35.7575 14.6332 35.2622C14.6107 35.5773 14.5657 35.915 14.4983 36.2302C14.5657 36.6355 14.6557 37.0407 14.7681 37.4009C14.8356 37.6486 14.4983 37.8287 14.4308 37.581C14.3859 37.4685 14.3634 37.3334 14.3184 37.1983V37.6036ZM14.1161 39.2245C13.3291 39.5172 12.5197 39.8099 11.7328 40.1026L11.6428 39.7874C12.4523 39.5172 13.2392 39.2245 14.0486 38.9544C14.0711 39.0444 14.0936 39.1345 14.1161 39.2245ZM11.1482 29.8364C10.9233 29.9265 10.8559 29.5212 11.0807 29.4537C11.7777 29.206 12.4298 28.8908 13.1268 28.5982C13.6889 28.373 14.2959 28.1929 14.8356 27.9002C15.6225 27.495 16.1846 26.662 16.9715 26.2568C17.3762 25.7615 17.7809 25.2436 18.1182 24.6583C18.8602 23.4651 19.5797 22.2494 20.3216 21.0336C20.5015 22.8122 19.7595 24.2756 18.7253 25.6714C19.175 24.5232 19.6021 23.4201 20.0293 22.2944L19.782 22.1593C19.3323 23.7578 18.388 24.9735 17.3762 26.1217C17.4662 26.1667 17.5111 26.3018 17.4437 26.4144C17.8484 25.9416 18.2531 25.4688 18.6578 24.996C17.3987 27.2473 15.7124 28.9133 13.3066 29.8364C14.3409 29.0935 15.3752 28.4631 16.252 27.6526C16.6568 27.2924 17.0165 26.8871 17.3762 26.4819C17.3538 26.4819 17.3538 26.5044 17.3313 26.5044C17.0839 26.5945 16.8591 26.7521 16.6567 26.9096C16.5668 26.9997 16.4994 27.0898 16.4094 27.1798C15.1728 28.5531 12.4747 29.9715 11.2606 29.8814C11.5754 29.7464 11.8227 29.6338 12.07 29.5437C12.812 29.2961 13.509 28.9809 14.1835 28.5982C13.1493 29.0484 12.1375 29.4762 11.1482 29.8364ZM8.71992 29.3411C8.92227 29.2511 9.14711 29.1835 9.34947 29.116C9.07966 29.161 8.78737 29.161 8.49508 29.0709C8.1803 29.161 7.86552 29.2511 7.55075 29.3411C7.32591 29.4086 7.25846 29.0259 7.4833 28.9584C7.6182 28.9133 7.73062 28.8908 7.86553 28.8458C7.82056 28.7332 7.86552 28.5982 8.00043 28.5531C8.49508 28.4181 8.98972 28.1929 9.48437 27.9228C9.28201 27.9903 9.10214 28.0128 8.92227 28.0353C10.0914 27.3149 11.2831 26.5945 12.4523 25.8965C13.8013 24.9059 15.1054 23.8478 16.3869 22.7446C16.5893 22.5871 16.8141 22.8797 16.6118 23.0373C15.6899 23.8253 14.7906 24.5908 13.8463 25.3337C13.6214 25.5588 13.3516 25.784 13.0593 26.0091C13.1717 26.0766 13.1942 26.2793 13.0593 26.3693C12.1375 26.9772 11.3505 27.7877 10.3837 28.328C9.88908 28.6207 9.39444 28.8008 8.87731 28.9584C9.52934 28.8008 10.2039 28.6657 10.8559 28.5081C10.6985 28.5982 10.5186 28.6882 10.3612 28.7558C10.7435 28.6207 11.1032 28.4856 11.463 28.3055C11.3056 28.373 11.1257 28.4181 10.9683 28.4631C11.7328 27.9678 12.5197 27.4725 13.2842 26.9547C13.5315 26.7746 13.7338 26.5044 13.9362 26.2793C12.8345 26.9547 11.8227 27.8327 10.7884 28.1254C12.115 27.0672 13.6664 25.9866 15.0604 24.7033C16.4319 23.4426 17.6685 21.9567 18.9501 20.5834C18.9276 20.7184 18.8827 20.8085 18.8152 20.8985C18.1857 21.709 17.5561 22.497 16.9266 23.3075C17.3538 22.9022 17.7809 22.5195 18.2081 22.1143C18.5904 21.619 18.9726 21.1012 19.3773 20.6059C19.4672 20.4933 19.6921 20.4933 19.8495 20.4483C19.9844 20.4032 20.1193 20.3357 20.2542 20.2907C20.2767 20.5834 20.2992 20.8085 20.3216 21.0336C20.1193 21.1462 19.827 21.2137 19.7371 21.3938C18.8152 22.9923 17.691 24.4332 16.4994 25.829C15.2852 27.2699 13.8463 28.283 12.16 28.9584L13.5989 27.9228C12.4073 28.4406 11.2156 28.9809 10.024 29.4762C9.55182 29.6563 9.01221 29.6788 8.51756 29.7914C8.6075 29.7689 8.69743 29.7463 8.78737 29.7013C8.6075 29.6563 8.54005 29.4086 8.71992 29.3411ZM25.6728 14.077C26.1675 14.0094 26.6396 13.8518 27.1343 13.7167C29.2927 13.1539 31.4512 12.5686 33.6097 12.0057C33.5422 12.3209 33.4748 12.6361 33.3848 13.0864C30.4394 13.8293 27.4715 14.5948 24.4137 15.3827C24.6161 14.5272 25.0208 14.167 25.6728 14.077ZM24.751 13.5141L21.6932 12.456C21.7156 12.411 21.7156 12.3659 21.7381 12.3209L24.7959 13.379C24.7735 13.4241 24.7735 13.4691 24.751 13.5141ZM19.1974 10.2947C18.9726 10.2722 18.7253 10.2271 18.5004 10.2046C18.5004 10.1146 18.5229 10.0245 18.5229 9.93447C19.7146 9.88944 20.8388 10.2271 22.0079 10.4073C22.0079 10.4748 21.9854 10.5423 21.9854 10.6324C22.3452 10.5874 22.7049 10.5198 22.9523 10.5198C24.0989 10.5874 25.2681 10.745 26.3923 10.9251C26.5722 10.9476 26.5947 11.1952 26.4822 11.2853L26.752 11.3753C26.7296 11.4429 26.6846 11.5329 26.6621 11.6005C26.3698 11.4654 26.0775 11.3528 25.7628 11.2177C25.1782 11.1277 24.5711 11.0151 23.964 10.9476L26.1899 11.713C26.1899 11.7806 26.1675 11.8256 26.1675 11.8931L23.4919 10.9701C23.4919 10.9476 23.5144 10.9251 23.5144 10.9025C23.1321 10.88 22.7499 10.88 22.3902 10.9251C23.2895 11.0601 24.1664 11.2403 25.0433 11.5329C25.1782 11.578 25.1782 11.7355 25.1332 11.8256C25.403 11.8931 25.6728 11.9832 25.9651 12.0507C25.9426 12.1408 25.9201 12.2083 25.8977 12.2984C24.9084 12.0057 23.9191 11.7356 22.9298 11.4429C22.5475 11.3753 22.1653 11.3078 21.7606 11.2403C21.5807 11.1952 21.3784 11.1502 21.1985 11.1052C20.2092 10.9476 19.1974 10.7675 18.2081 10.6099C18.2081 10.5423 18.2306 10.4748 18.2306 10.4073L19.0625 10.5423C19.0625 10.4523 19.1075 10.3622 19.1974 10.2947ZM21.8281 8.89885C22.2777 8.89885 22.7049 8.92136 23.1321 8.9889C23.0647 8.87633 23.1321 8.67371 23.312 8.69623C24.706 8.8088 26.0775 9.10147 27.3816 9.57425C27.4715 9.61928 27.494 9.68682 27.494 9.77687L27.7638 9.86693L27.7189 10.0921C27.3141 10.1821 26.9769 9.95699 26.6396 9.73185C25.7852 9.46169 24.9308 9.28158 24.0315 9.16901C25.2007 9.46169 26.3249 9.93447 27.494 10.3397C27.2917 10.6549 27.1118 10.9251 26.9994 11.0827C25.3805 10.6324 23.8067 10.1821 22.2553 9.75437C21.873 9.70934 21.5133 9.68682 21.1311 9.68682C20.9737 9.68682 20.9287 9.50672 20.9962 9.39415C20.6814 9.30409 20.3666 9.21404 20.0518 9.12398C20.7488 9.12398 21.4234 9.21404 22.0979 9.3266C22.66 9.37163 23.2221 9.46169 23.7842 9.57425L21.8281 8.89885ZM38.5786 9.19153C38.4662 9.21404 38.2863 9.12398 38.2413 9.01142C38.1739 8.87634 38.1514 8.53863 38.1739 8.51612C38.5786 8.33601 38.9833 8.1559 39.388 8.11088C39.5679 8.08836 39.7478 8.44858 40.0176 8.71874C39.433 8.92136 39.0058 9.07896 38.5786 9.19153ZM40.3324 9.79939C39.8377 9.91196 39.388 10.0245 38.9384 10.1146C38.6685 9.37163 39.2306 9.34912 39.6129 9.19153C40.13 8.98891 40.2424 9.3266 40.3324 9.79939ZM38.5561 7.95328C38.2189 7.8182 37.7917 8.44858 37.5668 7.84071C37.2071 8.69623 36.4426 8.33601 35.8131 8.62869C35.8131 8.26847 35.8356 7.9758 35.8356 7.54804C36.4651 7.54804 37.0272 7.54804 37.5893 7.52553C38.1289 7.32291 38.6685 7.09777 39.2531 6.87263C39.2981 7.21034 39.3431 7.43547 39.388 7.70564C39.0733 7.84072 38.7585 8.04334 38.5561 7.95328ZM36.3527 13.1989C36.2852 12.7937 36.3752 12.5235 36.8249 12.411C37.6793 12.2083 38.5112 11.9607 39.388 11.7356C39.4105 12.411 39.7703 12.4785 36.3527 13.1989ZM39.478 12.8387C39.6354 13.3565 39.478 13.5817 38.9833 13.6267C38.3313 13.6942 37.6792 13.8293 37.0272 13.9419C37.0047 13.8518 36.9823 13.7618 36.9598 13.6717C37.7017 13.0638 38.6236 13.0188 39.478 12.8387ZM36.4426 13.7618C36.4426 13.8968 36.4651 14.122 36.4201 14.1445C35.3409 14.5272 34.2392 14.8649 33.16 15.2251C33.115 15.1126 33.07 15.0225 33.0251 14.91C33.4972 14.3921 34.1718 14.3921 34.7563 14.1895C35.2959 13.9869 35.858 13.8968 36.4426 13.7618ZM35.206 11.9157C35.251 11.8706 35.3409 11.6905 35.4533 11.5329C35.7681 12.0282 35.8356 11.2403 36.0604 11.3528C35.948 11.6455 35.903 12.0958 35.7007 12.2083C35.0486 12.546 34.3516 12.7261 33.6546 12.9963C33.6321 12.6136 33.6097 12.3209 33.5872 12.0057C34.1043 12.0507 34.6664 11.4429 35.206 11.9157ZM33.0925 11.8931C33.07 11.0376 33.6096 10.7675 35.1835 10.6324C35.206 10.7675 35.2285 10.88 35.251 11.0151C34.554 11.3078 33.8345 11.578 33.0925 11.8931ZM35.6557 11.1052C35.5433 11.1277 35.4084 11.0601 35.2735 11.0151C35.3859 10.835 35.4758 10.5423 35.6107 10.4748C36.3527 10.2046 37.1172 10.002 37.8591 9.79939C37.9041 9.88944 37.9715 9.9795 38.0165 10.047C37.8591 10.2271 37.7242 10.4973 37.5443 10.5648C36.9373 10.79 36.2852 10.9476 35.6557 11.1052ZM36.0829 9.39415C36.1953 8.74126 36.7124 8.76377 37.1396 8.69623C37.2745 8.67371 37.4544 8.87634 37.5893 8.96639C37.6343 8.83131 37.7017 8.6512 37.7917 8.47109C37.8591 8.49361 37.9041 8.49361 37.9715 8.51612C37.9715 8.78628 37.9491 9.05645 37.9491 9.39415C37.342 9.57426 36.7574 9.73185 36.1728 9.91196C36.1279 9.70933 36.1054 9.55174 36.0829 9.39415ZM36.0604 9.39415C35.948 9.61928 35.8581 9.93447 35.7007 10.002C34.7788 10.3172 33.857 10.5423 32.9127 10.79C32.8677 10.7224 32.8002 10.6549 32.7553 10.5648C32.9127 10.3172 33.0476 9.91196 33.2499 9.84442C34.0818 9.55174 34.9362 9.37163 35.7681 9.16901C35.858 9.1465 35.9705 9.30409 36.0604 9.39415ZM35.2959 8.87633C32.7553 9.59677 30.2595 10.3172 27.6064 11.0601C28.0561 10.2046 28.4833 9.61928 29.3152 9.41666C30.5294 9.1465 31.7435 8.76377 32.9576 8.42607C32.9576 8.71874 32.9576 8.96639 32.9576 9.19153C33.2049 7.57056 34.509 8.3135 35.2959 7.8182C35.3184 8.20093 35.2959 8.51612 35.2959 8.87633ZM31.2713 11.2177C29.7424 11.623 28.2135 12.0733 26.5722 12.546C27.0219 11.6005 27.584 11.1277 28.4383 11.0827C28.8206 11.0601 29.1803 10.9025 29.5625 10.79C30.3045 10.5874 31.0465 10.4073 31.766 10.2046C31.9234 10.8125 31.8334 11.0827 31.2713 11.2177ZM29.0454 8.04334C27.6064 7.52553 25.9651 7.41296 24.4362 7.66061C24.1889 7.70563 24.1439 7.30039 24.3687 7.27788C24.5486 7.25536 24.7285 7.23285 24.9084 7.21034C25.5379 6.96269 26.1225 7.05274 26.7071 7.16531C27.5615 7.21034 28.3934 7.39044 29.1803 7.66061C29.2028 7.66061 29.2253 7.68312 29.2478 7.70564C29.4726 7.75066 29.7199 7.8182 29.9897 7.86323C29.6525 8.15591 29.4726 8.29099 29.2478 8.49361C29.2253 8.29099 29.1803 8.15591 29.0904 8.04334C29.0679 8.06585 29.0454 8.06585 29.0454 8.04334ZM28.0336 8.62869C28.2585 8.6512 28.5058 8.67371 28.7981 8.69623C28.4159 9.23655 28.146 9.1465 27.8987 9.01142C26.5947 8.62869 25.2007 8.56115 23.8741 8.3135C23.6493 8.26847 23.6717 7.86323 23.9191 7.90826C25.2681 8.17842 26.6846 8.22344 28.0336 8.62869ZM22.1878 9.9795L22.1428 10.1371C21.1985 9.9795 20.2542 9.8219 19.3099 9.68682C19.3323 9.59677 19.3548 9.4842 19.3773 9.39415C20.3216 9.57426 21.266 9.77688 22.1878 9.9795ZM26.6396 12.7487C27.1118 12.7261 27.584 12.5911 28.0336 12.4785C29.2702 12.1408 30.4844 11.7806 31.721 11.4654C32.1482 11.3528 32.6204 11.1727 32.9127 11.9382C30.327 12.6136 27.7863 13.289 25.1332 13.9869C25.5154 13.1989 25.8977 12.7712 26.6396 12.7487ZM24.6835 15.6079C25.8302 15.3152 26.9769 15.0675 28.1236 14.7749C30.6867 14.122 33.2274 13.4241 35.7681 12.7712C35.8131 12.8162 35.8581 12.8837 35.9255 12.9288C35.7681 13.1539 35.6332 13.4916 35.4309 13.5817C34.7338 13.8518 33.9919 14.0544 33.2724 14.2346C33.07 14.2796 32.8227 14.1445 32.6428 14.0995C32.463 14.2345 32.3056 14.4597 32.1032 14.5047C30.6193 14.9325 29.1129 15.3602 27.6289 15.743C26.4148 16.0581 25.1782 16.3733 23.9191 16.666C24.0315 15.788 24.0315 15.7655 24.6835 15.6079ZM24.4362 16.8686C25.358 16.6885 26.2799 16.4184 27.2017 16.1707C28.933 15.7204 30.6643 15.2477 32.418 14.7974C32.463 14.8874 32.5079 14.955 32.5754 15.045C32.418 15.2026 32.2831 15.4503 32.1032 15.5178C31.3837 15.788 30.6643 15.9906 29.9448 16.2157C27.8987 16.8461 25.8527 17.454 23.7617 18.0844C23.6268 17.2739 23.8516 16.9812 24.4362 16.8686ZM23.8741 18.332C26.7071 17.4315 29.5625 16.6435 32.3955 15.833C32.5529 15.788 32.7553 15.8555 32.8677 15.8555C34.0593 15.0901 35.3859 14.8874 36.6675 14.5948C36.7124 14.955 36.7574 15.2702 36.8024 15.7204C32.1932 17.0037 27.584 18.3095 22.9747 19.5928C22.9298 19.5477 22.8848 19.5027 22.8623 19.4577C23.1771 19.0749 23.4694 18.4671 23.8741 18.332ZM21.7606 17.1388C22.0529 16.3283 22.4801 15.833 23.2895 16.0356C23.312 16.8011 22.9298 17.0712 21.7606 17.1388ZM22.7049 17.3639C22.6375 18.377 22.4351 18.5346 20.7713 18.7598C21.0861 17.5665 21.4009 17.3414 22.7049 17.3639ZM22.5251 18.6697C22.4801 19.8404 22.3677 19.9305 20.6814 20.1781C20.6589 19.8404 20.6364 19.5252 20.6139 19.075C21.3109 18.9399 21.8955 18.8048 22.5251 18.6697ZM21.0636 21.6415C21.3559 22.2494 21.266 22.7447 20.5914 23.0373L21.0636 21.6415ZM21.3334 23.1274C21.3559 23.2625 21.3784 23.4201 21.4009 23.5551C21.5358 23.4201 21.6482 23.3075 21.7606 23.1949C21.6707 24.0729 21.0411 24.0955 20.4341 24.2305C20.6814 23.1499 20.6814 23.1499 21.3334 23.1274ZM21.7381 24.0955C21.8955 24.3431 22.0304 24.5457 22.2328 24.8834C22.1878 23.6902 22.9972 23.7127 23.6043 23.5326C26.145 22.7446 28.7082 22.0017 31.2713 21.2362C33.8345 20.4708 36.3752 19.6828 38.9159 18.9174C39.2306 19.5928 38.736 19.6828 38.3763 19.8179C37.0722 20.2682 35.7456 20.7409 34.4191 21.1462C29.9223 22.5645 25.403 23.9829 20.8837 25.4012C20.569 25.4913 20.2542 25.4688 19.9169 25.5138C19.9844 23.9379 21.1311 24.5007 21.7381 24.0955ZM37.7017 21.2813C37.2745 21.3713 36.8698 21.5289 36.4426 21.664C36.4651 20.4032 37.4769 20.6509 38.1739 20.3132C38.2413 20.786 38.2863 21.1687 37.7017 21.2813ZM38.1964 21.574C38.1514 22.6096 38.1514 22.6096 37.0497 22.7446C36.8473 21.7541 37.5443 21.709 38.1964 21.574ZM33.2049 22.8347C29.3827 24.0955 25.5604 25.2887 21.7381 26.5269C21.0186 26.7521 20.7938 26.5945 20.6814 25.7615C25.9426 24.1405 31.2039 22.5195 36.4426 20.9211C36.4426 21.1687 36.4426 21.4164 36.4651 21.664C35.8356 21.9117 35.206 22.1593 34.509 22.4295C34.5315 22.2268 34.5315 22.1143 34.5315 22.0918C34.1268 22.2944 33.6996 22.6771 33.2049 22.8347ZM24.661 31.2097C27.8538 29.994 31.069 28.7783 34.2842 27.54C34.3741 27.8777 34.4416 28.0804 34.509 28.328C31.0465 29.5437 27.6289 30.7595 24.1664 31.9752C23.9191 31.4123 24.3238 31.3223 24.661 31.2097ZM24.0765 31.0972C23.9865 30.782 23.8966 30.5343 23.7842 30.1966C27.2917 28.9584 30.7542 27.7426 34.3291 26.4819C34.3291 27.3824 33.6996 27.3824 33.3174 27.5175C30.9341 28.4856 28.5283 29.4086 26.1225 30.3317C25.448 30.6019 24.7735 30.8495 24.0765 31.0972ZM25.0433 31.9977C29.0004 30.6244 32.9576 29.2285 36.9148 27.8777C37.1621 27.7877 37.4319 27.8777 37.6343 27.4725C37.7692 28.1254 37.5668 28.3955 37.0722 28.5531C35.6557 29.0259 34.2842 29.5662 32.8677 30.0615C30.1246 31.0296 27.3816 31.9752 24.6386 32.9433C24.5936 32.9658 24.5711 32.9433 24.5037 32.9433C24.4362 32.7857 24.3463 32.6281 24.2114 32.3804C24.5261 32.2228 24.7735 32.0878 25.0433 31.9977ZM36.6675 26.2568C36.6225 25.6264 37.0272 25.3337 38.3763 25.1086C38.4887 25.6714 38.1064 25.8065 37.7467 25.9416C37.387 26.0767 37.0047 26.1667 36.6675 26.2568ZM36.8473 26.7971C36.8473 27.5625 36.5326 27.8102 35.0037 28.1029C34.7788 27.5175 34.9362 27.1573 35.5658 27.0447C36.0154 26.9997 36.4202 26.8871 36.8473 26.7971ZM34.9362 26.9096C34.9812 25.8515 35.7906 26.1442 36.1503 25.829C36.3077 26.0541 36.4202 26.1892 36.6 26.4144C35.9705 26.617 35.4758 26.7521 34.9362 26.9096ZM35.6557 25.6489C34.9137 25.9191 34.1493 26.1667 33.4073 26.4369C31.8784 27.0222 30.3495 27.5175 28.8206 28.0804C27.1792 28.6657 25.5604 29.2736 23.9191 29.8589C23.8291 29.1835 24.1214 28.8908 24.6835 28.7107C26.9544 27.9228 29.2028 27.0898 31.4737 26.2793C33.115 25.6939 34.7563 25.1311 36.4651 24.5457C36.3527 25.4012 36.3527 25.4012 35.6557 25.6489ZM23.8066 27.4275C26.9769 26.3693 30.1022 25.3337 33.2724 24.2531C33.2724 24.6808 33.2724 24.9285 33.2724 25.2437C30.1471 26.3693 27.0668 27.4725 23.964 28.5756C23.9416 28.1929 23.8741 27.8327 23.8066 27.4275ZM32.8002 24.0955C30.0572 25.0635 27.2917 25.9641 24.5486 26.9322C23.8066 27.2023 23.267 27.1348 22.7949 26.5044C26.3923 25.3787 29.9673 24.2531 33.6097 23.1274C33.7895 23.8703 33.16 23.9604 32.8002 24.0955ZM17.736 27.0898C18.2981 26.4819 18.7253 26.0316 19.175 25.5588C18.9726 26.0541 18.7927 26.5044 18.5904 26.9997C18.388 27.0222 18.1632 27.0447 17.736 27.0898ZM18.433 29.3636L18.2531 29.4086C18.2081 28.9359 18.1632 28.4406 18.0957 27.9228C17.9833 28.0578 17.9159 28.1479 17.8259 28.2605C17.781 27.9678 17.7585 27.7201 17.736 27.45C17.9608 27.4275 18.1182 27.4049 18.343 27.3824C18.3655 28.0578 18.388 28.7107 18.433 29.3636ZM19.7595 27.4049C20.0069 27.45 20.2542 27.45 20.5465 27.495C20.5465 27.4725 20.5465 27.6076 20.524 27.7652C20.6364 27.7652 20.7488 27.7426 21.0636 27.7201C20.3666 28.5531 19.5347 28.3505 18.9051 28.8233C18.8377 27.8777 19.2199 27.3374 19.7595 27.4049ZM20.2767 26.2793C19.8944 26.7295 19.5572 27.1123 19.2424 27.5175C19.2199 26.2342 19.4448 25.9641 20.2767 26.2793ZM20.9287 28.3955C21.0636 28.3505 21.2884 28.328 21.3784 28.4181C21.7606 28.7332 21.9854 28.6657 22.1204 27.9903C22.1878 28.4856 22.2103 28.8233 22.2553 29.2285C21.2884 29.5212 20.2992 29.7914 19.3099 30.0841C19.1525 29.7463 18.9951 29.4312 18.7927 28.9809C19.5797 28.7783 20.2542 28.5756 20.9287 28.3955ZM19.7371 31.3448C19.6471 30.9846 19.5797 30.6694 19.4897 30.3092C20.479 30.039 21.4233 29.7914 22.3452 29.5662C22.5251 29.7464 22.6825 29.9265 22.9747 30.2416C21.8505 30.6244 20.7938 30.9846 19.7371 31.3448ZM22.9972 30.5794C23.0647 30.9171 23.1096 31.1647 23.1546 31.4799C21.8955 31.8851 20.6814 32.2904 19.4448 32.6956L19.3099 32.5605C19.4897 32.2228 19.6021 31.705 19.8495 31.615C20.8837 31.1872 21.9405 30.9171 22.9972 30.5794ZM19.6471 32.8757C20.8163 32.448 22.0304 32.1553 23.4019 31.75C23.2221 32.0878 23.1546 32.4029 23.0197 32.4705C21.7831 33.0108 20.5465 33.5061 19.2874 34.0239C19.2199 33.9564 19.175 33.8888 19.1075 33.8438C19.2874 33.5061 19.3998 32.9658 19.6471 32.8757ZM36.6 22.1818C36.6 22.4069 36.6 22.6546 36.5775 22.9248C36.0379 23.0824 35.4983 23.2399 34.9137 23.4201C34.8688 22.5195 35.161 22.3394 36.6 22.1818ZM16.3645 37.1083C15.8248 37.2659 15.4651 37.3784 15.0829 37.491L15.1278 37.6486C15.555 37.581 15.9597 37.5135 16.3869 37.446C16.3869 37.536 16.4094 37.6261 16.4094 37.6936C15.8024 37.8512 15.1953 37.9863 14.4983 38.1439C14.8805 36.9732 14.8805 36.9732 16.3645 37.1083ZM18.3206 38.1889C18.3206 38.2565 18.343 38.324 18.343 38.3915C17.3987 38.5716 16.4319 38.7292 15.4876 38.9093C15.4876 38.8418 15.4651 38.7968 15.4651 38.7292C16.4094 38.5491 17.3762 38.369 18.3206 38.1889ZM17.1964 37.581C17.1739 37.4685 17.1739 37.3559 17.1514 37.2433C17.7135 37.1533 18.2981 37.0407 18.8602 36.9732C18.8827 36.9732 18.9501 37.1983 18.9951 37.3784C18.3655 37.446 17.7809 37.5135 17.1964 37.581ZM17.2638 35.8925C17.8259 35.5773 18.2306 35.3297 18.6353 35.1046C18.7028 35.1721 18.7702 35.2396 18.8377 35.3072C18.6578 35.6224 18.5229 36.0726 18.2756 36.2077C18.0508 36.3203 17.691 36.0501 17.2638 35.8925ZM18.8152 32.5831C18.7927 32.6281 18.8377 32.7181 18.8377 32.7857C18.8152 33.0108 18.7702 33.2359 18.7253 33.4611C18.6129 33.371 18.5004 33.2359 18.3655 33.1909C18.1857 33.1459 17.9833 33.1909 17.7809 33.2134C17.5561 33.2359 17.3313 33.281 17.1064 33.3035C17.1064 33.2585 17.0839 33.2134 17.0839 33.1684C17.4662 33.0558 17.8484 32.9433 18.388 32.7632C18.0732 32.6956 17.9383 32.6731 17.8034 32.6281C17.8034 32.583 17.7809 32.5155 17.7809 32.4705C17.9833 32.4255 18.1632 32.4029 18.3655 32.3579C18.343 32.3129 18.3206 32.2453 18.2981 32.2003C18.0058 32.2228 17.7135 32.2228 17.4212 32.2453C17.4212 32.2003 17.4212 32.1553 17.4212 32.1103C17.7135 32.0427 18.0058 31.9752 18.2756 31.8851C18.2756 31.8401 18.2531 31.7951 18.2531 31.75C18.0283 31.75 17.8034 31.7726 17.4437 31.7951C18.0058 31.2773 18.4555 30.8945 18.9501 30.4218C19.3099 31.2322 19.2874 31.9302 18.8152 32.5831ZM19.5122 34.1815C20.5015 33.7538 21.5133 33.416 22.5026 32.9883C22.9523 32.7857 23.267 32.8082 23.4919 33.5061C22.0304 34.0014 20.6364 34.4742 19.2199 34.947C19.175 34.8794 19.1075 34.8119 19.0625 34.7444C19.2199 34.5642 19.3323 34.2491 19.5122 34.1815ZM19.2199 35.3072C21.1311 34.6318 22.9073 33.9789 24.706 33.3485C25.6278 33.0108 26.5722 32.7406 27.494 32.4029C29.7424 31.5925 31.9683 30.782 34.2167 29.994C34.3741 29.949 34.554 30.039 34.7338 30.0841C34.6664 30.6919 34.1942 30.8495 33.7895 31.0071C31.7435 31.7726 29.6974 32.5155 27.6514 33.2359C24.8634 34.204 22.0754 35.1046 19.1974 36.0726C19.1974 35.6899 19.1974 35.4198 19.2199 35.3072ZM34.9587 31.4799C34.8912 31.4124 34.8238 31.3448 34.7563 31.2773C34.8912 31.0972 35.0037 30.827 35.1835 30.7369C36.3077 30.2642 37.4544 29.8589 38.5786 29.3636C39.0508 29.161 39.1632 29.3636 39.2082 29.8139C37.7692 30.3992 36.3527 30.9396 34.9587 31.4799ZM35.251 30.4218C34.8463 30.6019 34.8688 30.2416 34.7338 30.0615C34.8912 29.8814 35.0486 29.6338 35.251 29.5662C36.1728 29.206 37.1171 28.9359 38.0165 28.5756C38.4887 28.373 38.6461 28.5531 38.781 29.0034C37.5893 29.4762 36.4202 29.9265 35.251 30.4218ZM36.8249 25.2662C36.5326 24.3881 36.8249 24.2981 38.691 23.8703C38.5561 25.2662 37.3645 24.6808 36.8249 25.2662ZM38.2863 23.5551C37.4769 23.8703 36.6675 24.0729 35.858 24.3431C35.3859 24.5007 34.9137 24.6808 34.464 24.8609C34.3516 24.6358 34.2617 24.5007 34.1942 24.3431C35.6782 23.3075 37.342 23.2399 38.8709 22.6546C38.9384 22.7447 38.9833 22.8347 39.0508 22.9473C38.781 23.1499 38.5561 23.4426 38.2863 23.5551ZM38.4887 18.6922C35.7456 19.5477 32.9801 20.3807 30.2371 21.2362C27.6739 22.0242 25.1332 22.7897 22.57 23.5551C22.1653 23.6677 21.918 23.5776 21.8056 23.1724C22.1428 22.9923 22.4576 22.7446 22.7949 22.6321C26.9094 21.3713 31.0015 20.1331 35.1161 18.8948C36.4876 18.4896 37.8591 18.1069 39.2531 17.7016C39.4105 18.4896 38.9159 18.5571 38.4887 18.6922ZM38.5112 17.499C35.206 18.5346 31.8784 19.5477 28.5732 20.5608C26.4822 21.1912 24.3912 21.8216 22.2777 22.4295C21.6032 22.6321 21.3784 22.452 21.4009 21.709C27.5615 20.2231 33.5197 17.8592 39.8152 16.5534C39.5679 17.3864 38.9608 17.3639 38.5112 17.499ZM39.1857 16.2383C37.9491 16.5534 36.7124 16.7786 35.4758 17.1388C30.7767 18.5121 26.1 19.908 21.4009 21.3263C21.266 21.3713 21.176 21.5064 21.0636 21.5965C20.6139 21.5965 20.7039 21.2362 20.7039 20.9436C20.7039 20.5834 20.8388 20.4032 21.1985 20.2907C23.9865 19.5477 26.7745 18.7598 29.5401 17.9943C31.6985 17.4089 33.8345 16.8236 35.993 16.2383C37.2745 15.878 38.5786 15.5403 39.8602 15.1801C40.1075 16.0131 39.5904 16.1257 39.1857 16.2383ZM39.9052 14.8199C38.9383 15.0676 37.9715 15.3377 36.9148 15.6079C37.0947 15.1126 37.1396 14.4597 37.3645 14.3921C38.1964 14.0995 39.0733 13.9869 39.9726 13.8068C39.9501 14.2346 39.9276 14.5272 39.9052 14.8199ZM39.7927 11.1052C39.6578 11.0827 39.5229 11.2177 39.3655 11.2628C38.2638 11.578 37.1846 11.8931 36.1054 12.2083C36.0829 11.8481 36.0829 11.6005 36.0604 11.3303C36.8923 11.1052 37.7017 10.88 38.5336 10.6774C38.5561 10.8575 38.5786 11.0151 38.6461 11.3078C38.736 10.9251 38.8034 10.6999 38.8484 10.4973C39.4105 10.3622 39.9052 10.2271 40.4448 10.0921C40.5347 10.745 40.4897 11.1727 39.7927 11.1052ZM42.6032 2.77518C42.873 3.18042 43.5251 3.27048 43.0754 3.92337C42.0861 5.29669 41.0968 6.67001 40.1075 8.06585C39.7927 7.70563 39.433 7.25536 39.7927 6.71504C40.6696 5.40926 41.6364 4.1485 42.6032 2.77518ZM42.3784 2.59507C41.4341 3.90085 40.5122 5.20664 39.5904 6.51242C39.3431 6.26477 39.1182 6.06215 38.8709 5.8145C39.7478 4.39615 40.6022 3.02283 41.479 1.60448C41.7713 1.96469 42.0411 2.25737 42.3784 2.59507ZM40.6022 1.13169C40.7595 1.19923 40.9169 1.26678 41.2317 1.40186C40.3548 2.84272 39.5005 4.23855 38.6461 5.63439C38.1739 5.25166 38.1289 4.84642 38.4887 4.3061C39.1632 3.29299 39.7927 2.23485 40.4673 1.19923C40.4897 1.19923 40.5347 1.17672 40.6022 1.13169ZM40.1525 1.15421C39.478 2.23485 38.8034 3.3155 38.1289 4.39615C37.7467 3.96839 37.6118 3.58566 38.0615 3.04534C38.3763 2.68512 38.6236 2.25737 38.8034 1.8071C39.0733 1.13169 39.5005 0.974099 40.1525 1.15421ZM38.5112 1.28929C38.5561 1.35683 38.6011 1.40185 38.6461 1.46939C38.2863 2.09977 37.9041 2.73015 37.5219 3.40556C37.2071 3.24796 36.9148 3.09037 36.5775 2.91026C37.2745 2.34742 37.8816 1.82961 38.5112 1.28929ZM36.6225 3.45058C35.948 3.60818 35.3409 3.74326 34.7114 3.90085C35.296 3.24796 36.3302 3.06785 36.6225 3.45058ZM33.1825 5.11658C33.4972 4.39615 34.1043 4.28358 34.6889 4.1485C35.3409 3.99091 35.9705 3.85583 36.6225 3.69823C37.1396 3.56315 37.4094 3.76577 37.5443 4.35112C35.858 4.77888 34.2167 5.20663 32.5979 5.63439C32.5979 5.61188 32.5979 5.56685 32.5979 5.54434C32.7777 5.40926 33.0925 5.3192 33.1825 5.11658ZM32.8227 5.85953C33.7446 5.72445 34.6889 5.43177 35.6107 5.20664C36.3302 5.02653 37.0497 4.80139 37.7467 4.59877C37.8366 4.93647 37.9266 5.18412 38.0165 5.54434C35.5208 6.19723 33.07 6.85012 30.6193 7.4805C31.2713 6.78258 31.8334 6.01712 32.8227 5.85953ZM30.5968 7.86323C31.721 7.43547 32.9127 7.21034 34.0818 6.91766C34.2617 6.87264 34.4865 7.05274 34.6439 7.00772C35.5433 6.71504 36.4202 6.42237 37.297 6.06215C38.084 5.74696 38.6011 5.99461 39.0733 6.62499C37.4994 7.30039 35.8356 7.07526 34.2842 7.68312C33.767 7.88574 33.1825 7.79569 32.6653 7.9758C31.4962 8.35853 30.3495 8.8088 29.2028 9.25907C29.63 8.67371 30.0572 8.06585 30.5968 7.86323ZM26.6846 6.69253C26.7071 6.60247 26.7745 6.51242 26.8869 6.53493C27.0219 6.53493 27.1792 6.55745 27.3141 6.55745C26.9994 6.48991 26.6846 6.44488 26.3698 6.44488C26.3923 6.33231 26.4148 6.24226 26.4373 6.12969C27.7638 6.39985 29.0679 6.67001 30.3944 6.94018C30.372 7.07526 30.3495 7.21034 30.3045 7.3229C30.1246 7.27788 29.9448 7.25536 29.7424 7.21034C29.6974 7.25536 29.63 7.30039 29.5625 7.27788C29.1803 7.18782 28.7981 7.12028 28.4159 7.07526C28.8655 7.21034 29.2927 7.39045 29.7424 7.59307C28.4383 7.30039 27.1343 7.03023 25.8077 6.73755C26.1 6.67001 26.3923 6.67001 26.6846 6.69253ZM14.9255 7.99831C17.0165 7.61558 19.085 7.25536 21.176 6.87263L21.1985 7.05274C20.8613 7.1428 20.524 7.21034 20.1867 7.30039C18.7028 7.68312 17.2189 8.06585 15.7349 8.40355C15.4651 8.47109 15.1728 8.3135 14.8805 8.26847C14.903 8.15591 14.903 8.06585 14.9255 7.99831ZM21.8955 7.9758C20.569 8.24596 19.2424 8.47109 17.9383 8.78628C17.3762 8.92136 16.949 8.87634 16.6118 8.29098C16.8141 8.33601 16.9715 8.40355 17.1289 8.38104C18.0058 8.13339 18.8827 7.88574 19.7595 7.59307C20.569 7.32291 21.2884 7.30039 21.8955 7.9758ZM14.9255 8.71874C15.555 8.78628 16.297 8.02082 16.8141 8.9889C16.6118 9.07895 16.4319 9.16901 16.252 9.25907C17.1289 9.10147 18.0058 8.94388 18.8827 8.76377C19.9169 8.53863 20.9737 8.24596 22.0079 7.99831C21.963 7.99831 21.918 7.9758 21.873 7.9758C21.6932 7.72815 21.5358 7.4805 21.3334 7.18782C22.7274 6.87264 24.0765 6.55745 25.4255 6.26477C25.448 6.33231 25.448 6.42236 25.4705 6.4899C25.3131 6.55745 25.1332 6.6475 24.9758 6.71504C23.9865 7.1428 22.9747 7.57055 21.9854 8.02082C22.2553 7.99831 22.5475 7.9758 22.8174 7.95328C22.8398 8.04334 22.8848 8.13339 22.9073 8.22344C22.66 8.29098 22.3902 8.42606 22.1428 8.44858C20.7488 8.53863 19.4897 9.12399 18.2081 9.70934C17.6011 9.9795 16.8591 9.91196 16.2071 10.0696C15.7124 10.2046 15.5101 10.1146 15.4651 9.52923C15.2403 9.34912 15.0154 9.16901 14.7906 8.9889C14.8356 8.89885 14.8805 8.8088 14.9255 8.71874ZM12.115 9.52923C12.3398 9.59677 12.5422 9.68682 12.7445 9.79939C12.6771 9.66431 12.7895 9.43918 12.9694 9.50672C13.4191 9.68682 13.7563 10.0696 14.0036 10.4973C13.9812 10.4298 13.9812 10.3397 14.0261 10.2947C13.8013 10.0921 13.5989 9.88944 13.464 9.59677C13.3516 9.37163 13.6889 9.19153 13.8013 9.41666C13.9362 9.73185 14.206 9.93447 14.4533 10.1596C14.4983 10.2046 14.5208 10.2722 14.5208 10.3172C15.4426 10.6099 16.3869 10.8125 17.3313 10.9926C18.0957 10.7675 18.9276 10.8575 19.5122 11.1952C19.2199 11.1952 18.9276 11.1952 18.6129 11.1952C19.0401 11.2628 19.4448 11.3078 19.872 11.3528C20.6814 11.4429 21.4458 11.623 22.2103 11.8481C23.2446 12.1408 24.2788 12.4335 25.3131 12.7261C25.2906 12.8612 25.2456 12.9738 25.2231 13.1089C25.1107 13.0864 24.9983 13.0638 24.8859 13.0413C24.8409 13.0864 24.7735 13.1089 24.706 13.0864C22.9298 12.456 21.221 11.9157 19.3323 11.6905C17.5561 11.4654 15.8024 11.1952 14.1161 10.6324C14.0711 10.6099 14.0486 10.6099 14.0261 10.5648C14.0486 10.6099 14.0936 10.6774 14.1161 10.7224C14.1835 10.835 14.1161 10.9476 14.0261 10.9926C14.1161 11.1052 14.206 11.2403 14.2959 11.3753C14.3409 11.4429 14.3409 11.5329 14.2959 11.578C14.3184 11.6455 14.3634 11.6905 14.3859 11.7581C14.3409 11.713 14.2959 11.6905 14.251 11.6455C14.1835 11.7356 14.0711 11.7581 13.9812 11.6455C13.8238 11.3978 13.6439 11.1502 13.4191 10.9251C13.2167 10.745 13.0368 10.5874 12.8345 10.4073C12.5647 10.2046 12.2724 10.047 11.9576 9.95699C11.7552 9.84442 11.8902 9.46169 12.115 9.52923ZM20.9062 12.5911C20.8837 12.6586 20.8612 12.7487 20.8388 12.8162C19.2874 12.456 17.736 12.0958 16.1621 11.713C16.1846 11.623 16.2071 11.5554 16.2296 11.4654C17.8034 11.8481 19.3548 12.2083 20.9062 12.5911ZM11.7103 10.002C11.7103 10.0245 11.7328 10.0245 11.7553 10.047C11.8452 9.95698 11.9801 9.91195 12.115 10.002C12.7445 10.4073 13.2392 10.9926 13.7563 11.5104L13.7788 11.5329C13.9812 11.7581 14.161 12.0057 14.3409 12.2759C14.1835 12.1408 14.0486 12.0282 13.8912 11.8931C13.9587 11.9832 14.0036 12.0958 14.0486 12.2083C14.1385 12.4335 13.8013 12.6361 13.7114 12.3884C13.6664 12.2534 13.5989 12.1408 13.509 12.0282C13.4415 12.0282 13.3741 12.0057 13.3066 11.9382C13.1043 11.7355 12.9019 11.5104 12.6996 11.3078C12.2274 10.9926 11.7328 10.7224 11.418 10.2497C11.3056 10.0696 11.5754 9.79939 11.7103 10.002ZM10.7884 11.0376C10.8334 10.9251 10.9458 10.8575 11.0582 10.9251C11.0807 10.9476 11.1257 10.9701 11.1482 10.9926C11.2381 10.8575 11.373 10.79 11.5529 10.9025C12.2499 11.3753 12.8794 11.9832 13.5315 12.5235C13.7114 12.6811 13.6439 12.8837 13.4865 12.9963C13.4865 13.0188 13.509 13.0188 13.509 13.0413C13.5315 13.0864 13.554 13.1539 13.5315 13.1989C13.6439 13.3565 13.7788 13.4916 13.8912 13.6492C13.7563 13.5366 13.6214 13.4241 13.4865 13.3115C13.4191 13.4015 13.2842 13.4466 13.2167 13.3115C13.0368 13.0413 12.8345 12.7937 12.6096 12.5911C12.3398 12.3659 12.07 12.1408 11.8002 11.9157C11.4854 11.6905 11.1707 11.4879 10.8559 11.2853C10.7884 11.2403 10.766 11.1502 10.7884 11.0827C10.766 11.0601 10.7435 11.0376 10.6985 11.0151C10.721 11.0151 10.766 11.0376 10.7884 11.0376ZM9.97902 11.9832C9.97902 11.7581 10.2039 11.5329 10.4287 11.6905C10.676 11.8481 10.9009 12.0057 11.1482 12.1633C11.0358 12.0733 10.9458 11.9832 10.8109 11.9157C10.6086 11.7806 10.8334 11.4654 11.0358 11.578C11.3955 11.8031 11.6878 12.1183 11.9801 12.4335C12.3623 12.6811 12.6996 12.9738 12.9919 13.3115C13.0593 13.334 13.1043 13.3565 13.1717 13.379C13.2842 13.4241 13.3066 13.5591 13.2617 13.6492C13.3966 13.8293 13.5315 14.0319 13.6439 14.2346C13.4865 14.077 13.3066 13.9194 13.1493 13.7618C13.1268 13.7618 13.0818 13.7618 13.0368 13.7618C13.0593 13.8518 13.0368 13.9644 12.9694 14.0319C13.2617 14.3696 13.4191 14.6623 13.3741 14.8649C13.1942 14.7073 12.9919 14.5497 12.812 14.3921C12.767 14.5047 12.6546 14.5722 12.5422 14.5047C11.5529 13.8293 10.5186 13.1989 9.7317 12.2759C9.59679 12.1408 9.82163 11.9157 9.97902 11.9832ZM9.25953 12.8837C9.1696 12.6586 9.50686 12.456 9.59679 12.7036C9.64176 12.8387 9.70921 12.9963 9.79914 13.1314C9.82163 13.1314 9.84411 13.1539 9.8666 13.1539C10.024 13.244 10.1589 13.334 10.2938 13.4466C11.0807 13.8968 11.8227 14.4372 12.4298 15.1126C12.6096 15.2477 12.812 15.3827 13.0144 15.5178C13.1942 15.6304 13.1942 15.833 13.0818 15.9681C13.0818 15.9906 13.1043 15.9906 13.1043 16.0131L13.0144 16.1707L12.9244 16.0807C12.9019 16.0807 12.8794 16.0807 12.8345 16.0807C12.7895 16.1257 12.7221 16.1707 12.6321 16.1482C11.5979 15.8105 10.4737 14.8874 9.77666 13.8293C9.68673 13.7843 9.61927 13.7167 9.52934 13.6717C9.37195 13.5591 9.34947 13.379 9.41692 13.244C9.37195 13.1539 9.32698 13.0638 9.28202 12.9738C9.25953 12.9513 9.23705 12.9288 9.21456 12.9063C9.23705 12.9063 9.25953 12.9288 9.28202 12.9288C9.28202 12.9288 9.28201 12.9063 9.25953 12.8837ZM7.30343 14.7073C7.41585 14.7073 7.52827 14.7298 7.64069 14.7524C7.73062 14.5723 7.95546 14.4822 8.13533 14.6623C8.67495 15.2251 9.3045 15.6304 9.93405 16.0581C9.39443 15.6079 8.85482 15.1801 8.29272 14.7298C8.24775 14.7073 8.20278 14.6848 8.1803 14.6623C8.13533 14.6398 8.11285 14.6173 8.11285 14.5723C8.00043 14.4822 7.88801 14.3921 7.77559 14.2796C7.88801 14.2796 8.02291 14.3246 8.1803 14.3696C8.24775 14.3021 8.33769 14.2571 8.42763 14.3021C8.6075 14.3921 8.76488 14.5047 8.92227 14.5948C8.7424 14.4372 8.56253 14.2571 8.38266 14.0544C8.13533 13.7618 8.54004 13.334 8.78737 13.5817C9.32698 13.8518 9.68673 14.2571 10.1139 14.6848C10.1589 14.7298 10.2039 14.7749 10.2488 14.7974C10.8784 15.2026 11.5304 15.5628 12.1375 16.0356C12.2724 16.1257 12.2949 16.2833 12.2499 16.3958C12.2724 16.4634 12.2499 16.5309 12.2274 16.576C12.4298 16.8236 12.5422 17.0262 12.5422 17.1388C12.2949 16.9362 12.07 16.7561 11.8227 16.5534C11.3056 16.1707 10.766 15.833 10.2263 15.4953C11.0133 16.1032 11.7552 16.7786 12.5647 17.3864C12.7445 17.5215 12.5422 17.8592 12.3398 17.7241C12.3173 17.7016 12.2949 17.7016 12.2724 17.6791C12.3173 17.7917 12.3398 17.8592 12.3398 17.9493C12.1824 17.8367 12.0251 17.7016 11.8902 17.5665C12.0475 17.8142 11.8227 18.1069 11.5979 18.0618C11.7328 18.1969 11.8677 18.332 12.0026 18.4896C12.16 18.6697 11.8677 18.9399 11.7103 18.7598C11.1482 18.0844 10.4062 17.6566 9.77666 17.0713C9.32698 16.666 8.92227 16.1707 8.51756 15.7204C8.27024 15.5403 8.0454 15.3377 7.84304 15.1351L7.28094 14.9325C7.25846 14.91 7.28094 14.7974 7.30343 14.7073ZM6.85375 15.4953C6.94368 15.5403 7.01113 15.5854 7.10107 15.6079C6.98865 15.5178 6.87623 15.4278 6.7863 15.3377C8.31521 15.4953 11.6878 18.7147 11.5979 19.9305C11.4405 19.7729 11.3056 19.6153 11.1482 19.4352C11.0807 19.5252 10.9683 19.5477 10.9009 19.4352C10.4287 18.6247 9.68672 18.1744 9.01221 17.6116C8.27024 17.0037 7.6182 16.2608 6.74133 15.878C6.51649 15.7655 6.65139 15.3827 6.85375 15.4953ZM5.6621 17.1838C5.84197 17.2514 6.02184 17.3189 6.20171 17.409C6.26916 17.409 6.31413 17.409 6.38158 17.454C6.42655 17.4315 6.47152 17.409 6.51649 17.3864C6.47152 17.3639 6.42655 17.3414 6.38158 17.3189C5.99936 17.1838 6.15674 16.576 6.53897 16.711C6.56146 16.711 6.58394 16.7335 6.60642 16.7335C6.60642 16.711 6.60642 16.6885 6.60642 16.6885C6.40407 16.5534 6.17923 16.3958 5.97687 16.2608C6.13426 16.1707 6.31413 16.1257 6.40407 16.1707C6.40407 16.1707 6.40407 16.1707 6.42655 16.1707C6.494 16.0807 6.58394 16.0131 6.71884 16.0131C6.65139 15.9456 6.56146 15.9006 6.494 15.833C6.58394 15.9006 6.69636 15.9681 6.7863 16.0356C6.83126 16.0581 6.87623 16.0807 6.9212 16.1032C6.94369 16.1257 6.96617 16.1482 7.01114 16.1707C7.70814 16.6435 8.38266 17.1388 9.01221 17.6791C9.59679 18.1069 10.1364 18.5797 10.5411 19.165C10.7435 19.3901 10.9233 19.5928 11.1032 19.8404C11.2156 19.9755 11.2606 20.2006 11.3281 20.4032C11.2381 20.3132 11.1482 20.2457 11.0582 20.1556C11.0582 20.3132 10.9233 20.4258 10.766 20.4483C10.8784 20.6059 10.9233 20.8535 11.0133 21.0787C10.9458 21.1237 10.8559 21.1687 10.7884 21.2362C10.5636 20.9211 10.3388 20.6059 10.1139 20.2907C10.1364 20.4258 10.1814 20.5608 10.1814 20.7184C10.1814 20.7635 10.1814 20.8085 10.1589 20.8535C10.3837 21.1237 10.5861 21.3938 10.7435 21.7315C10.6985 21.7766 10.6311 21.8216 10.5861 21.8666C10.4062 21.619 10.2039 21.3488 10.024 21.1012C9.95653 21.1462 9.8666 21.1687 9.77666 21.1462C9.7317 21.1237 9.68673 21.1237 9.66424 21.1012C9.70921 21.1912 9.77666 21.2813 9.82163 21.3713C10.024 21.6415 10.2039 21.9117 10.4062 22.2043C10.3163 22.0918 10.2039 22.0017 10.1139 21.8891C10.2263 22.1143 9.88908 22.2719 9.77666 22.0692C9.52934 21.619 9.25953 21.1462 8.96724 20.6959C8.71992 20.5158 8.51756 20.2907 8.33769 20.0655C7.4833 19.4127 6.65139 18.7598 6.02184 17.8592C5.97688 17.8142 5.97687 17.7467 5.97687 17.7016C5.86445 17.6566 5.72955 17.5891 5.61713 17.544C5.30236 17.4765 5.43726 17.0938 5.6621 17.1838ZM2.64925 19.7954C2.96402 19.953 3.25632 20.1331 3.52612 20.3357C3.59357 20.2907 3.70599 20.2907 3.79593 20.3582C3.81841 20.3807 3.86338 20.4032 3.88587 20.4258C3.9758 20.4258 4.06574 20.4708 4.13319 20.5834C4.15567 20.6059 4.17816 20.6284 4.17816 20.6734C4.94261 21.3263 5.59465 22.1368 6.31413 22.8347C5.84197 22.3169 5.34732 21.7991 4.87516 21.2813C4.89764 21.2588 4.92013 21.2362 4.92013 21.2137C4.38051 20.7635 3.8409 20.2907 3.30128 19.8404C3.1439 19.7053 3.18886 19.5027 3.32377 19.4127C3.23383 19.3451 3.16638 19.2776 3.07644 19.21C3.1439 19.12 3.21135 19.0524 3.2788 18.9624C3.30128 18.9849 3.30128 18.9849 3.32377 19.0074C3.36874 18.9174 3.48115 18.8498 3.57109 18.9399C3.77345 19.12 3.95332 19.3226 4.13319 19.5027C4.22312 19.4352 4.35803 19.3901 4.49293 19.4577C4.49293 19.4577 4.51542 19.4577 4.51542 19.4802C4.38051 19.3226 4.22313 19.1875 4.08822 19.0299C4.04325 19.0074 3.99829 18.9849 3.95332 18.9624C3.72848 18.8723 3.86338 18.4896 4.08822 18.5797C4.26809 18.6472 4.42548 18.7372 4.60535 18.8273C4.5379 18.6022 4.78522 18.3095 5.05503 18.4446C5.1 18.4671 5.16745 18.5121 5.21242 18.5346C5.2349 18.5121 5.2349 18.4896 5.25739 18.4671C5.2349 18.4446 5.2349 18.4221 5.21242 18.4221C5.12248 18.332 5.05503 18.242 4.9651 18.1519C4.98758 18.1744 5.03255 18.1969 5.05503 18.2194C4.9651 18.0168 5.2349 17.7917 5.36981 17.9718C5.54968 18.2194 5.72955 18.4671 5.93191 18.6922C6.40407 19.0975 6.85375 19.5477 7.28094 19.998C7.70814 20.3582 8.13533 20.7184 8.56253 21.0787C8.3152 20.7409 8.06788 20.4032 7.82056 20.0655C8.67495 20.831 9.52934 21.5965 10.069 22.6771C10.0015 22.7221 9.95653 22.7897 9.88908 22.8347C9.64176 22.5195 9.41692 22.1818 9.1696 21.8666C9.21456 21.9342 9.23705 22.0017 9.28202 22.0692C9.34947 22.2043 9.25953 22.3169 9.1696 22.3394C9.50686 22.8122 9.70921 23.1949 9.7317 23.3975C9.4394 23.0598 9.12463 22.7221 8.80985 22.3844C9.12463 22.7897 9.34947 23.2399 9.32698 23.6677C9.39444 23.7578 9.4394 23.8253 9.50686 23.9154C9.46189 23.9604 9.39443 24.0054 9.34947 24.0504C9.32698 24.0054 9.28201 23.9604 9.25953 23.9154C9.14711 24.0279 8.92227 23.9829 8.94476 23.7803C8.96724 23.6902 8.94476 23.5777 8.92227 23.4876C8.56253 22.9923 8.20278 22.497 7.84304 22.0017C7.84304 22.0017 7.84304 22.0017 7.86553 21.9792C7.66317 21.7541 7.46081 21.5514 7.23598 21.3488C6.33662 20.5383 5.41477 19.6828 4.33555 19.1425C4.71777 19.4127 5.07752 19.7278 5.43726 20.043C6.47152 20.7409 7.41585 21.6865 8.00043 22.7446C8.02291 22.7672 8.02291 22.8122 8.02291 22.8347C8.40514 23.33 8.76488 23.8253 9.10214 24.3206C9.50686 24.1405 9.91157 23.9604 10.2938 23.7578C10.4287 23.6002 10.5636 23.4201 10.6985 23.2625C10.676 23.285 10.6535 23.285 10.6311 23.3075C10.6311 23.2625 10.6535 23.1949 10.676 23.1274C10.5861 23.2174 10.4962 23.3075 10.4062 23.3975C10.2263 23.5776 10.0015 23.285 10.1814 23.1049C10.5861 22.6321 11.0582 22.2268 11.5079 21.8441C12.16 21.0336 13.0818 20.0881 13.8912 19.4802C13.7788 19.6153 13.6664 19.7504 13.5764 19.8854C13.8238 19.6378 14.0711 19.4127 14.3409 19.1875C14.7231 18.8723 15.0829 18.5346 15.4651 18.2194C14.4084 19.0299 13.3291 19.8179 12.2724 20.6509C12.2274 20.6959 12.16 20.6959 12.115 20.6959C12.0475 20.7635 11.9801 20.831 11.9126 20.8985C11.8677 20.1106 12.2274 19.7504 13.509 19.2325C14.3184 18.6247 15.1054 18.0393 15.8923 17.409C16.4319 16.9812 16.9715 16.5084 17.5111 16.0356C17.1739 16.2608 16.8366 16.4859 16.4994 16.711C16.4769 16.666 16.4319 16.621 16.4094 16.576L18.9276 14.4822C18.6353 14.6398 18.2981 14.7524 18.0283 14.9775C17.2638 15.6079 16.4994 16.2382 15.7349 16.8911C15.7124 16.9137 15.6675 16.9362 15.645 16.9812C15.1278 17.4315 14.6107 17.8817 14.0711 18.287C14.0261 18.332 13.9587 18.377 13.9137 18.4221C13.4865 18.7823 13.0144 19.075 12.5422 19.4127C12.4972 19.3451 12.4523 19.2551 12.4073 19.1875C12.4298 19.165 12.4523 19.1425 12.4747 19.12C12.3848 19.0299 12.3848 18.8723 12.5197 18.8048C13.3516 18.3995 14.0936 17.8592 14.7906 17.2514C14.6557 17.2288 14.5208 17.2288 14.2735 17.2063C15.6 16.0581 16.8141 15 18.0283 13.9644C17.9833 13.9644 17.9383 13.9419 17.8934 13.9419C17.646 14.0319 17.4212 14.0995 17.2188 14.2571C16.3645 14.9775 15.5326 15.788 14.6782 16.5309C14.206 16.9587 13.6664 17.2964 13.1717 17.6791C13.1268 17.6116 13.0818 17.5665 13.0593 17.499L17.1514 13.6942H17.1289C16.8591 13.8743 16.5668 14.0319 16.3195 14.2346C15.4201 15 14.5657 15.788 13.6889 16.576C13.6439 16.3508 13.6664 16.1707 13.7563 16.0807C13.8687 15.9906 13.9587 15.9005 14.0711 15.8105C14.0261 15.8105 13.9812 15.788 13.9587 15.743C13.9137 15.788 13.8687 15.8105 13.8463 15.8555L13.6214 15.6079C13.9587 15.3377 14.3184 15.0901 14.6332 14.7974C14.9929 14.4822 15.3302 14.167 15.6675 13.8293C15.9148 13.5817 16.0722 13.4015 16.1846 13.3115C16.1396 13.289 16.0722 13.2665 16.0272 13.244C15.4426 13.6942 14.8805 14.212 14.4084 14.7974C14.2735 14.955 14.0486 14.8424 14.0711 14.7073C14.0486 14.6848 14.0261 14.6623 14.0036 14.6173L14.251 14.4147C14.6782 13.9419 15.1503 13.4916 15.6225 13.0864C15.5326 13.0864 15.4201 13.1314 15.3302 13.1764C15.1278 13.3565 14.948 13.5141 14.7456 13.6942C14.6782 13.7843 14.6107 13.8518 14.5657 13.9419C14.4084 14.1445 14.1161 13.9194 14.2735 13.7167C14.5882 13.3115 14.948 12.8837 15.4201 12.7487C15.4426 12.6811 15.5101 12.6361 15.6 12.6361C15.645 12.5911 15.6899 12.5686 15.7574 12.5235C15.8024 12.5911 15.8473 12.6586 15.8923 12.7036L15.8698 12.7261C15.8698 12.7261 15.8698 12.7261 15.8698 12.7487C15.9148 12.7712 15.9597 12.7937 16.0047 12.8162C16.0722 12.7712 16.1396 12.7036 16.2071 12.6586C16.4094 12.501 16.6343 12.8162 16.4319 12.9513C16.4094 12.9513 16.4094 12.9738 16.3869 12.9738C16.4319 12.9963 16.4769 13.0188 16.5218 13.0188C16.5443 13.0188 16.5668 13.0413 16.5893 13.0413C17.1064 13.244 17.6011 13.4241 18.1407 13.5366C18.0283 13.4466 17.9608 13.3565 17.8934 13.2214C17.7809 12.9963 18.1182 12.8162 18.2306 13.0413C18.4555 13.5366 19.2649 13.5591 19.9169 13.5366L18.5229 13.0638C18.5229 13.0413 18.5229 13.0413 18.5229 13.0188L20.3666 13.5366C20.4341 13.5366 20.524 13.5366 20.569 13.5366C20.6814 13.5366 20.7938 13.5366 20.9062 13.5591C19.3548 13.0864 17.7809 12.6136 16.2296 12.1183C16.2296 12.0733 16.252 12.0507 16.252 12.0057C18.3206 12.546 20.3666 13.0638 22.4351 13.6042C22.4351 13.6042 22.4351 13.6042 22.4351 13.6267C22.66 13.6492 22.9073 13.6717 23.1321 13.6942C22.5026 13.4691 21.873 13.1989 21.221 13.0413C21.2435 12.9513 21.2884 12.8612 21.3109 12.7712L24.5936 13.8968C24.5711 13.9644 24.5486 14.0319 24.5261 14.0995C24.3687 14.077 24.2114 14.0319 24.0765 13.9869C24.0765 14.0995 23.964 14.2571 23.8291 14.212C23.3795 14.0995 22.9298 14.0319 22.4576 13.9869C22.5026 13.9869 22.5251 14.0094 22.57 14.0094C22.615 14.0094 22.6375 14.0319 22.66 14.0544C23.0647 14.0319 23.357 14.0995 23.6268 14.2796C22.5925 14.3921 21.6257 14.5047 20.6364 14.6173C21.0636 14.4597 21.4234 14.3246 21.7606 14.2346C20.8613 14.0995 19.9619 14.122 19.0401 14.077C19.1075 14.122 19.175 14.212 19.2199 14.3471C19.5347 14.3021 19.8495 14.2571 20.1642 14.1895V14.3021C20.0069 14.4147 19.827 14.5272 19.6696 14.6398C19.7146 14.7298 19.6921 14.8649 19.6021 14.9325C19.4223 15.045 19.2424 15.1801 19.0625 15.3152C18.9501 15.4503 18.8152 15.5854 18.7028 15.7204C18.8602 15.6304 18.9951 15.5403 19.1525 15.4728C19.0401 15.5403 18.9501 15.6079 18.8377 15.6754C18.9276 15.6304 19.0176 15.5854 19.1075 15.5403C19.2424 15.4728 19.3323 15.5628 19.3548 15.6754C19.4223 15.6304 19.4897 15.5628 19.5572 15.5178C20.3441 14.91 21.2884 14.7524 22.2553 14.7974C19.6696 15.7204 17.5786 17.409 15.7574 19.5477C15.0379 20.4032 14.2735 21.1912 13.4865 21.9792C13.5989 22.0692 13.5764 22.2944 13.3966 22.3394C13.2842 22.3619 13.1493 22.3844 13.0593 22.4295C12.812 22.6771 12.5872 22.9248 12.3398 23.1724C12.2949 23.1499 12.2499 23.1049 12.2274 23.0824C12.3398 22.9473 12.4523 22.8122 12.5647 22.6771C12.2499 22.8572 11.9801 23.1049 11.6878 23.3525C11.6203 23.4876 11.5529 23.6452 11.4854 23.7803C11.6653 23.6452 11.8452 23.5101 12.0251 23.375C11.9126 23.5101 11.8227 23.6452 11.7103 23.7578C11.8902 23.6002 12.0475 23.4426 12.2274 23.3075C12.3623 23.1949 12.5422 23.3075 12.5422 23.4426C12.9694 23.0148 13.3966 22.5871 13.8013 22.1368C14.1835 21.5965 14.5882 21.1012 15.0829 20.6959C15.1503 20.6284 15.2403 20.5608 15.3077 20.4933C16.6343 19.0299 17.9833 17.5891 19.6021 16.4634C19.872 16.2383 20.1418 16.0356 20.4341 15.8555C20.5914 15.743 20.7263 15.9456 20.6814 16.1032C20.8163 16.0131 20.9287 15.9681 20.9962 15.9456C18.9501 18.0618 16.7467 20.2907 14.5657 22.542C14.903 21.8891 15.7574 20.8535 16.7242 19.7954C16.1396 20.2907 15.5326 20.7635 14.9705 21.3038C13.9812 22.2494 13.3066 23.5326 12.4747 24.6133C13.1942 24.0279 13.8912 23.4426 14.5882 22.8347C15.8698 21.7315 17.0165 20.4483 18.2306 19.2551C18.3655 19.0975 18.478 18.9399 18.6129 18.7598C19.4223 17.9043 20.2317 17.0487 21.0411 16.1932C21.0861 16.2608 21.1535 16.3058 21.1985 16.3733C20.6364 16.9362 20.0968 17.499 19.5347 18.0618C19.6246 17.9943 19.7146 17.9493 19.8045 17.8817C19.872 17.7692 19.9619 17.6791 20.0518 17.5665C20.1193 17.4765 20.2317 17.4765 20.3216 17.5215L20.9287 17.0938C20.8163 17.3189 20.6589 17.4765 20.524 17.6566C20.4341 17.7692 20.3216 17.8817 20.2317 17.9943C19.872 18.4896 19.5122 18.9849 19.13 19.4802C19.1974 19.4127 19.2649 19.3451 19.3099 19.2776C19.4897 19.0975 19.7146 19.3901 19.5347 19.5702C18.8377 20.3357 18.0957 21.0561 17.3313 21.7315C17.2863 21.7991 17.2188 21.8441 17.1739 21.9117C16.6567 22.497 16.0497 22.9698 15.4201 23.3975C14.8355 23.9604 14.206 24.4782 13.5764 25.0185C12.7895 25.6939 11.8677 26.1892 10.9908 26.7521C10.9908 26.7295 10.9908 26.707 10.9908 26.6845C9.57431 27.8102 7.84304 28.3055 6.2242 29.0034C5.99936 29.0935 5.84197 28.7558 6.06681 28.6432C6.3591 28.5081 6.67388 28.3955 6.98865 28.283L6.89872 28.0353C7.01114 27.9903 7.10107 27.9228 7.21349 27.8777C7.07859 27.8552 6.98865 27.6076 7.16852 27.495C7.59572 27.2248 8.0454 27.1573 8.47259 26.9322C8.98972 26.662 9.46189 26.2117 9.91156 25.8515C9.97902 25.8065 10.024 25.7615 10.0914 25.7164C10.069 25.6939 10.0465 25.6714 10.0465 25.6489C9.84411 25.7615 9.61928 25.829 9.39444 25.9416C8.87731 26.1667 8.49508 26.5719 8.02291 26.8871C7.82056 27.0222 7.66317 26.662 7.86553 26.5269C8.27024 26.2568 8.6075 25.874 9.03469 25.6714C9.4394 25.4688 9.84411 25.3787 10.2039 25.1086C10.2263 25.1086 10.2263 25.0861 10.2488 25.0861C9.95653 25.2436 9.70921 25.3337 9.46189 25.3562C9.95653 24.9735 10.4287 24.6358 10.9009 24.2531C10.9458 24.118 11.0133 24.0054 11.0582 23.8703C10.8559 24.0054 10.6311 24.1405 10.4062 24.2531C10.2713 24.4107 10.1139 24.5908 9.97902 24.7484C9.84411 24.8834 9.68672 24.7484 9.68672 24.5908C9.50685 24.6583 9.34947 24.7484 9.1696 24.8159C8.94476 24.9059 8.78737 24.5457 9.01221 24.4557C9.01221 24.4557 9.01221 24.4557 9.03469 24.4557C8.65246 24.0504 8.27024 23.6452 7.88801 23.24C7.79807 23.33 7.68565 23.375 7.55075 23.3075C8.02291 23.9154 8.45011 24.5908 8.83234 25.2887C8.47259 24.996 8.22527 24.5908 7.95546 24.2305L7.93298 24.208C7.9105 24.2531 7.88801 24.2981 7.84304 24.3206C7.79807 24.4782 7.66317 24.5908 7.4833 24.5457C7.73062 24.8384 7.95546 25.1311 8.1803 25.4463C8.24775 25.5363 8.22527 25.6489 8.15782 25.7164C8.20279 25.829 8.27024 25.9641 8.29272 26.0767L8.13533 26.1892L7.01114 24.6808C6.31413 24.6583 5.72955 24.0504 5.30236 23.5551C4.6728 22.8347 4.15567 22.0017 3.68351 21.1687C3.61606 21.1237 3.54861 21.0561 3.48116 21.0111C3.4137 20.9436 3.36873 20.876 3.34625 20.8085C3.07644 20.6059 2.80664 20.4483 2.51435 20.2907C2.31199 20.0655 2.44689 19.6828 2.64925 19.7954ZM1.83983 21.0787C1.81734 21.0111 1.79486 20.9661 1.77237 20.8985C1.81734 20.9436 1.88479 20.9886 1.92976 21.0561C1.97473 21.0561 2.0197 21.0787 2.04218 21.1012C2.26702 21.3263 2.49186 21.5289 2.69422 21.7541C2.64925 21.664 2.60428 21.574 2.55931 21.4614C2.49186 21.3263 2.51435 21.2137 2.5818 21.1237C2.60428 21.0336 2.64925 20.9661 2.73918 20.9436C2.78415 20.5608 3.39122 20.5834 3.36874 20.9661C3.34625 21.1687 3.36874 21.3713 3.4137 21.5514C3.45867 21.619 3.52612 21.6865 3.57109 21.7541C4.17816 22.4745 4.80771 23.2174 5.45974 23.8703C5.54968 23.9604 5.63962 24.0504 5.72955 24.1405L5.797 24.0729C5.88694 24.208 5.97687 24.3206 6.06681 24.4557C6.60643 24.9285 7.14604 25.4238 7.50578 26.0767C7.57323 26.1892 7.50578 26.2793 7.43833 26.3243C7.4833 26.3693 7.50578 26.4369 7.55075 26.4819C7.4833 26.5494 7.39336 26.617 7.32591 26.6845L6.40407 25.3112C6.33662 25.2436 6.24668 25.1536 6.15674 25.0861C6.15674 25.1086 6.17923 25.1536 6.17923 25.1761C6.29165 25.3337 6.40407 25.4913 6.494 25.6714C6.60642 25.8965 6.26916 26.0767 6.15674 25.8515C6.08929 25.7164 6.02184 25.6039 5.95439 25.4913C5.81949 25.5814 5.61713 25.5814 5.50471 25.4238C5.03255 24.8159 4.51542 24.2305 4.02077 23.6227C3.81841 23.4201 3.63854 23.2174 3.48116 23.0148C2.91906 22.4745 2.33447 21.9342 1.77237 21.3713C1.68244 21.2588 1.72741 21.1237 1.83983 21.0787ZM0.648176 30.827C0.805564 30.4893 0.985436 30.1516 1.14282 29.8139C1.48008 28.9359 1.88479 28.0804 2.17709 27.1798L0.850532 29.994L0.648176 29.9039L0.828048 29.5212C0.738113 29.4987 0.648177 29.4086 0.715629 29.2736C1.23276 28.1704 1.5925 26.9997 2.0197 25.874C2.04218 25.829 2.06467 25.8065 2.08715 25.784L2.1546 25.6264L2.08715 25.6039C1.54753 26.7746 1.00792 27.9678 0.468306 29.1385L0.288433 29.0484C0.715628 28.0578 1.14282 27.0672 1.57002 26.0767C1.50257 26.0541 1.41263 26.0091 1.34518 25.9866L0.715629 27.8102C0.715629 26.8196 0.8955 25.8965 1.50257 25.1086C1.5925 24.996 1.79486 24.8609 1.92976 24.8384C1.72741 24.5908 1.52505 24.3206 1.32269 24.0729C1.30021 24.0279 1.27773 24.0054 1.27773 23.9604C1.14282 23.8253 1.12034 23.6227 1.43511 23.3525C1.4576 23.3525 1.4576 23.375 1.48008 23.375C1.48008 23.2625 1.5925 23.1274 1.72741 23.1949C1.95225 23.3075 2.1546 23.4426 2.35696 23.6002C2.33447 23.5777 2.33447 23.5326 2.31199 23.5101C2.19957 23.4201 2.06467 23.3075 1.95225 23.2174C1.79486 23.1049 1.90728 22.8797 2.04218 22.8572C2.10963 22.7221 2.2895 22.6321 2.44689 22.7446C2.46938 22.7672 2.51434 22.7897 2.53683 22.8122C2.60428 22.8122 2.67173 22.8347 2.7167 22.9022C2.73918 22.9473 2.78415 22.9698 2.80664 23.0148C3.30128 23.3975 3.70599 23.8703 4.08822 24.3656C4.33555 24.5908 4.58287 24.8159 4.83019 25.041C4.80771 25.0635 4.78522 25.1086 4.76274 25.1311C5.01006 25.4238 5.25739 25.7164 5.45974 26.0541C5.68458 26.2793 5.88694 26.5269 6.04433 26.7971C6.17923 26.9997 5.88694 27.2699 5.75203 27.0672C5.70707 26.9997 5.6621 26.9097 5.59465 26.8421C5.70707 27.0898 5.797 27.3374 5.84197 27.5851C5.72955 27.4275 5.61713 27.2924 5.50471 27.1573C5.45974 27.2248 5.39229 27.2699 5.32484 27.2699C5.39229 27.3599 5.45974 27.45 5.54968 27.54C5.50471 27.6076 5.43726 27.6751 5.39229 27.7426C5.2349 27.5625 5.03255 27.3824 4.92013 27.1798C4.80771 26.9997 4.69529 26.8421 4.56038 26.6845C4.11071 26.2342 3.66103 25.7615 3.2788 25.2662C3.23383 25.2211 3.21135 25.1761 3.16638 25.1311C2.80664 24.8384 2.42441 24.5682 2.0197 24.3431C2.26702 24.6808 2.53683 24.996 2.80664 25.3112C2.82912 25.2662 2.87409 25.2211 2.89657 25.1761C3.39122 25.7389 3.86338 26.3018 4.35803 26.8646C4.49293 26.9772 4.65032 27.0672 4.83019 27.1348C4.9651 27.2023 4.9651 27.3824 4.89764 27.4725C4.9651 27.54 5.01006 27.6076 5.07752 27.6751C5.01006 27.7426 4.94261 27.8102 4.87516 27.9002C4.74026 27.7426 4.60535 27.5625 4.47045 27.4049C3.95332 27.1123 3.54861 26.6395 3.12141 26.2117C2.8516 25.9416 2.60428 25.6714 2.35696 25.3787V25.4012C2.33447 25.5138 2.28951 25.6489 2.26702 25.7615C2.35696 25.784 2.42441 25.874 2.37944 26.0091C2.26702 26.3243 2.13212 26.662 2.0197 26.9772L2.35696 26.2342L2.5818 26.3468L2.22205 27.1123C2.33447 26.9772 2.60428 27.0898 2.53683 27.3149C2.53683 27.3374 2.51435 27.3599 2.51435 27.3824L2.64925 27.4275L1.99721 28.7558C1.77237 29.3186 1.52505 29.8814 1.30021 30.4668C1.25524 30.5794 1.16531 30.6019 1.09786 30.6019C1.0304 30.7369 0.962952 30.8495 0.917985 30.9846C0.805565 30.8945 0.738112 30.8495 0.648176 30.827ZM0.693145 32.1553C1.16531 31.0071 1.81734 29.949 2.22205 28.7783C2.31199 28.5306 2.64925 28.6432 2.5818 28.8908C2.5818 28.9134 2.55931 28.9359 2.55931 28.9584C2.5818 29.7463 1.70492 31.75 0.760596 32.8532C0.805564 32.6956 0.850533 32.538 0.895501 32.3804C0.760597 32.4255 0.625693 32.3354 0.693145 32.1553ZM1.16531 32.8307C1.16531 32.8307 1.16531 32.8082 1.18779 32.8082C1.65995 31.9977 2.17709 31.2322 2.49186 30.3317C2.5818 30.0841 2.91906 30.1966 2.8516 30.4443C2.80664 30.5343 2.78415 30.6469 2.73918 30.7369C2.73918 30.7369 2.76167 30.7369 2.76167 30.7595C2.62676 31.1422 2.49186 31.5249 2.35696 31.9076L2.37944 31.8851C1.99721 32.5605 1.61499 33.2359 1.21027 33.9789C0.8955 33.5061 0.985436 33.1459 1.16531 32.8307ZM2.78415 31.7726C2.33447 32.6956 1.90728 33.5962 1.4576 34.5192C1.39015 34.4967 1.34518 34.4742 1.27773 34.4292C1.63747 33.5736 1.99721 32.7406 2.35696 31.8851C2.44689 31.8176 2.55931 31.7501 2.64925 31.6825C2.69422 31.705 2.73918 31.7501 2.78415 31.7726ZM2.0197 40.1026C1.77238 40.2151 1.52505 40.3277 1.07537 40.5078C2.44689 39.4046 2.49186 39.3821 2.64925 40.2151C2.13212 40.4628 1.5925 40.7329 1.07537 41.0031C1.05289 40.9581 1.0304 40.913 1.00792 40.868C1.36766 40.6429 1.70492 40.4177 2.06467 40.1926C2.06467 40.1701 2.04218 40.1476 2.0197 40.1026ZM0.940468 42.489C0.917984 42.3989 0.8955 42.3089 0.850532 42.2188C1.57002 41.9262 2.26702 41.611 2.98651 41.3183C3.00899 41.4309 3.03148 41.5209 3.07644 41.6335C2.37944 41.9036 1.65995 42.1963 0.940468 42.489ZM2.0197 43.2319L1.97473 43.0068L3.59358 42.3764C3.61606 42.4665 3.63854 42.5565 3.66103 42.6466C3.09893 42.8492 2.55931 43.0293 2.0197 43.2319ZM7.37088 37.2433C7.28094 38.324 7.14604 39.4046 7.10107 40.5078C7.07859 41.3183 7.32591 42.2188 7.10107 43.0068C7.03362 43.2094 6.80878 43.1644 6.74133 43.0068C6.67388 43.0743 6.60642 43.1419 6.56146 43.2094C6.51649 43.1869 6.47152 43.1644 6.42655 43.1419C6.47152 41.9036 6.51649 40.6879 6.56146 39.4497C6.494 39.8324 6.44904 40.2151 6.44904 40.5979C6.44904 40.7104 6.38159 40.778 6.29165 40.778C6.29165 41.4984 6.26916 42.2413 6.26916 42.9618C6.15674 42.9618 6.06681 42.9618 5.95439 42.9618L6.13426 40.7104C6.11178 40.6879 6.08929 40.6429 6.08929 40.5753C5.99936 40.7555 5.90942 40.913 5.797 41.0706C5.77452 41.5659 5.75204 42.0837 5.72955 42.579C5.6621 42.579 5.61713 42.579 5.54968 42.579C5.48223 42.8042 5.14497 42.7817 5.18994 42.534C5.25739 42.1513 5.27987 41.7686 5.27987 41.3633C5.25739 41.3633 5.2349 41.3408 5.21242 41.3183C5.18994 41.7235 5.16745 42.1513 5.16745 42.5565C5.05503 42.5115 4.89764 42.489 4.89764 42.4665C4.9651 41.1832 5.03255 39.8999 5.1 38.6167C5.01006 37.6936 4.92013 36.7706 5.01006 35.825C5.07752 35.1271 5.05503 34.4517 5.07752 33.7537C5.01006 34.0239 4.94261 34.2941 4.87516 34.5642C4.83019 34.9019 4.80771 35.2396 4.80771 35.5773C4.85268 35.3072 4.89764 35.0595 4.9651 34.7894C4.85268 37.3334 4.71777 39.8774 4.60535 42.444C4.51542 42.444 4.403 42.444 4.31306 42.444C4.31306 42.0162 4.31306 41.5885 4.31306 41.1607C4.20064 41.2282 3.99829 41.1157 4.04325 40.913C4.20064 40.2602 4.26809 39.5848 4.31306 38.9093C4.15567 38.9319 4.02077 38.8868 3.9758 38.7067C3.95332 38.5491 3.93083 38.369 3.90835 38.2114C3.77345 39.1795 3.79593 40.1026 3.88587 41.1157C3.90835 41.3633 3.54861 41.4534 3.52612 41.2057C3.45867 40.4628 3.39122 39.6973 3.43619 38.9544L3.34625 39.8549C3.2788 39.8549 3.23383 39.8549 3.16638 39.8324C3.36874 37.7386 3.59357 35.6224 3.79593 33.5286C3.77345 33.5962 3.77345 33.6862 3.75096 33.7537C3.66103 34.159 3.57109 34.5868 3.43619 35.0145C3.25632 36.4779 3.05396 37.9413 2.87409 39.4046C2.82912 38.3015 2.87409 37.1983 2.98651 36.1177C2.87409 36.3203 2.76167 36.5004 2.62676 36.658C2.55931 37.1083 2.49186 37.5585 2.42441 38.0313C2.31199 37.7161 2.17709 37.5135 2.19957 37.3334C2.19957 37.2433 2.22205 37.1533 2.22205 37.0858C2.0197 37.2208 1.72741 37.1083 1.72741 36.8381C1.70492 35.1271 2.42441 33.5511 3.05396 31.9977C3.21135 31.2322 3.30128 30.4668 3.23383 29.6788C3.23383 29.5888 3.45867 29.4312 3.57109 29.3186C3.59357 29.3411 3.61606 29.3636 3.66103 29.4086C3.72848 29.3636 3.8409 29.3411 3.93083 29.3636C3.95332 29.3411 3.99829 29.3411 4.02077 29.3411C4.04325 29.1835 4.06574 29.0259 4.08822 28.8683C4.13319 28.8683 4.20064 28.8908 4.24561 28.8908C4.22312 29.0709 4.20064 29.2511 4.17816 29.4537C4.29058 29.7013 4.35803 29.949 4.403 30.2191C4.47045 29.6338 4.56039 29.0484 4.62784 28.4631C4.69529 28.4631 4.74026 28.4406 4.80771 28.4406C4.69529 29.2285 4.58287 30.0165 4.44796 30.8045C4.44796 31.0746 4.44797 31.3448 4.42548 31.615C4.38051 32.3129 4.29058 32.9883 4.26809 33.6862C4.29058 33.5736 4.31306 33.4611 4.31306 33.3485C4.35803 32.4255 4.47045 31.5024 4.58287 30.5794C4.60535 30.4668 4.69529 30.3992 4.78522 30.3992C4.80771 30.2416 4.94261 30.1741 5.07752 30.1516C5.14497 30.0615 5.27987 30.0165 5.34732 30.1291C5.41478 30.2191 5.45974 30.3092 5.50471 30.3992C5.5272 30.3992 5.52719 30.3767 5.54968 30.3767C5.54968 30.3317 5.54968 30.3092 5.54968 30.2642C5.61713 30.2642 5.6621 30.2642 5.72955 30.2416C5.72955 30.2867 5.72955 30.3317 5.72955 30.3767C5.88694 30.4218 5.99936 30.5568 5.95439 30.7595C5.86445 31.1197 5.77452 31.4799 5.6621 31.8626C5.6621 31.8851 5.6621 31.8851 5.6621 31.9076C5.59465 33.4386 5.5272 34.992 5.45974 36.5229C5.57216 35.8025 5.70707 35.0821 5.84197 34.3616C5.93191 32.9658 6.02184 31.5925 6.06681 30.1966C6.13426 30.1966 6.20171 30.1966 6.29165 30.1966C6.26917 30.5118 6.26917 30.827 6.24668 31.1197C6.29165 31.0972 6.31413 31.0746 6.3591 31.0521C6.3591 31.0296 6.3591 31.0296 6.3591 31.0071C6.3591 30.872 6.42655 30.782 6.51649 30.7369C6.49401 30.3767 6.49401 29.994 6.51649 29.6338C6.51649 29.3861 6.89872 29.3861 6.89872 29.6563C6.87623 30.039 6.89872 30.3992 6.89872 30.782C6.96617 30.827 6.98865 30.9171 6.98865 31.0071C6.98865 32.8757 7.07859 34.7218 6.94368 36.5905C6.9212 36.7931 6.9212 36.9957 6.89872 37.1983C6.89872 37.6486 6.89872 38.1214 6.89872 38.5716C6.94368 38.0313 6.98865 37.5135 7.03362 36.9732C7.12356 35.9376 7.28094 34.9019 7.28094 33.8438C7.28094 33.4836 7.28094 33.1459 7.25846 32.7857C7.25846 32.8982 7.25846 33.0108 7.25846 33.1234C7.21349 33.1234 7.14604 33.1234 7.10107 33.1234C7.10107 32.2003 7.07859 31.2773 7.07859 30.3767C7.16852 30.3767 7.23597 30.3767 7.32591 30.3767C7.32591 30.4218 7.32591 30.4893 7.32591 30.5343C7.43833 30.4443 7.64069 30.4893 7.64069 30.6919C7.59572 31.7501 7.66317 32.8082 7.66317 33.8663C7.64069 34.9695 7.46082 36.1177 7.37088 37.2433ZM8.11285 41.1832C8.13533 41.8361 8.15782 42.489 8.15782 43.1419C8.06788 43.1419 7.97795 43.1644 7.86553 43.1644C7.86553 42.489 7.84304 41.8361 7.86553 41.1607C7.77559 41.1157 7.70814 41.0256 7.70814 40.8905C7.68566 40.1251 7.73062 39.3821 7.82056 38.6392C7.88801 36.2302 7.84304 33.8438 7.82056 31.4349C7.82056 31.2548 7.95546 31.1422 8.09037 31.1422C8.09037 30.8945 8.09037 30.6244 8.09037 30.3767C8.09037 30.3542 8.09037 30.3317 8.06788 30.3092C8.00043 30.0615 8.36017 29.9715 8.42763 30.2191C8.51756 30.5793 8.6075 30.9621 8.65246 31.3448C8.7424 31.2548 8.87731 31.2548 8.98972 31.2773C8.98972 30.9846 8.98972 30.6919 8.98972 30.3992C9.05718 30.3992 9.12463 30.3992 9.19208 30.3992C9.19208 30.6919 9.19208 30.9846 9.19208 31.2773C9.19208 31.2322 9.19208 31.1872 9.21456 31.1197C9.23705 31.0071 9.3045 30.9621 9.39444 30.9396C9.41692 30.8045 9.50685 30.6919 9.68672 30.6919C9.91156 30.6919 10.024 30.8945 9.97902 31.0746C10.024 31.0746 10.069 31.0746 10.1139 31.0521L10.1364 31.8176C10.2713 31.6825 10.4961 31.6375 10.6086 31.7951C10.5861 31.4799 10.5411 31.1647 10.5186 30.872L10.7435 30.7144C10.8559 30.8495 11.0807 30.9846 11.0807 31.1422C11.1032 31.2773 11.1032 31.4349 11.1032 31.5699C11.1032 31.5925 11.1257 31.5925 11.1257 31.615C11.1707 31.9977 11.1932 32.3804 11.1932 32.7632C11.2381 32.538 11.2831 32.3129 11.3505 32.0878C11.3505 32.0427 11.3505 31.9752 11.3505 31.9302C11.3505 31.9752 11.373 31.9977 11.373 32.0427C11.3955 31.9977 11.3955 31.9752 11.418 31.9302C11.4854 31.7726 11.5979 31.7275 11.7328 31.7275V31.705C11.6428 31.4799 11.9801 31.2773 12.07 31.5249C12.2049 31.8851 12.2049 32.2679 12.2274 32.6731C12.2499 33.2134 12.2949 33.7538 12.2724 34.2941C12.1824 35.6224 12.2049 36.9056 12.4523 38.2114C12.4972 38.4591 12.1375 38.5491 12.0925 38.3015C11.9576 37.6261 11.8902 36.9507 11.8677 36.2753C11.8677 36.4554 11.8677 36.6355 11.8677 36.8156C11.8902 37.3784 11.9126 37.9413 12.0026 38.4816C12.1375 39.3371 12.115 39.4272 11.2381 39.6298C11.2381 39.5397 11.2381 39.4722 11.2381 39.3821C11.1932 39.4497 11.1257 39.4947 11.0358 39.5172C11.0358 39.7423 11.0358 39.9675 10.9908 40.1926C10.9233 40.1926 10.8559 40.1926 10.7884 40.2151L10.721 39.4272C10.6535 39.3821 10.6086 39.2921 10.6311 39.202C10.6311 39.1795 10.6311 39.1795 10.6311 39.157C10.6086 39.1345 10.5861 39.0669 10.6086 39.0219C10.6311 38.8868 10.6535 38.7517 10.676 38.6167C10.676 38.4591 10.676 38.3015 10.676 38.1439C10.6535 37.8512 10.6535 37.536 10.6311 37.2433C10.5636 36.6355 10.4287 36.0501 10.3388 35.4648C10.3163 35.3072 10.2938 35.1496 10.2713 34.992C10.3388 36.8831 10.4062 38.7743 10.4737 40.6654C10.3837 40.6654 10.3163 40.6879 10.2263 40.6879C10.1364 38.1664 10.0465 35.6224 9.95654 33.1009C9.84412 32.493 9.73169 31.8851 9.59679 31.2998H9.57431C9.52934 31.66 9.52934 32.0202 9.52934 32.4029C9.64176 32.4029 9.7317 32.4705 9.77666 32.6281C9.93405 33.5736 9.91157 34.5417 9.84412 35.4873C9.84412 35.5323 9.8666 35.5773 9.8666 35.6224C9.93405 36.3203 9.8666 36.9282 9.82163 37.6261C9.77666 38.2339 9.8666 38.8643 9.95654 39.4722C10.1139 40.08 10.3388 40.7104 10.1139 41.3408C10.0465 41.3408 10.0015 41.3408 9.93405 41.3408L9.91156 40.4853C9.82163 40.5303 9.70921 40.4853 9.68672 40.3502C9.66424 40.1026 9.64176 39.8774 9.59679 39.6298C9.57431 39.7198 9.55182 39.8324 9.52934 39.9225C9.64176 40.5979 9.79915 41.2507 9.39444 41.9262C9.41692 41.3858 9.4394 40.823 9.46189 40.2827C9.46189 40.3052 9.46189 40.3052 9.46189 40.3277C9.41692 40.4853 9.28202 40.5528 9.1696 40.5528V40.868C9.10215 40.8905 9.03469 40.8905 8.96724 40.913C8.96724 40.7555 8.96724 40.6204 8.96724 40.4628C8.89979 40.4177 8.85482 40.3277 8.85482 40.2376C8.83234 39.4722 8.89979 38.6842 8.98972 37.9187L9.01221 34.9695C8.94475 35.3747 8.8773 35.78 8.80985 36.1852C8.85482 36.8156 8.87731 37.446 8.83234 38.0989C8.83234 38.2339 8.71992 38.279 8.62998 38.279C8.71992 39.5622 8.76488 40.8455 8.80985 42.1288C8.80985 42.2864 8.69743 42.4665 8.62998 42.6466C8.58501 42.6241 8.51756 42.6241 8.47259 42.6016C8.49508 41.1382 8.49508 39.6973 8.51756 38.2339C8.49508 38.369 8.47259 38.5041 8.47259 38.6392C8.45011 39.3821 8.42762 40.1476 8.36017 40.8905C8.31521 41.0481 8.22527 41.1382 8.11285 41.1832ZM10.0914 43.0969C10.0465 43.1419 10.0015 43.1419 9.95654 43.1419C10.0015 43.2319 10.0465 43.322 10.1139 43.4346C9.64176 43.277 9.28202 43.0068 8.94476 43.6372C8.80985 43.5021 8.67495 43.367 8.45011 43.1644C8.8773 42.8942 9.21456 42.6916 9.59679 42.444C9.64176 42.5115 9.66424 42.579 9.70921 42.6466C9.70921 42.6241 9.70921 42.6016 9.70921 42.579C9.70921 42.4665 9.82163 42.3764 9.91156 42.3764C10.024 42.3764 10.0914 42.4665 10.0914 42.579C10.0914 42.6241 10.1139 42.7141 10.1364 42.7817C10.1814 42.8942 10.1814 43.0068 10.0914 43.0969ZM11.8677 43.9073C11.7777 43.7497 11.7103 43.5921 11.6653 43.4346C11.7103 43.6372 11.3955 43.7948 11.3056 43.5696C11.2156 43.3445 11.1257 43.0969 11.0358 42.8492C11.0807 43.0068 11.1032 43.1869 11.1257 43.367C11.1707 43.6147 10.7884 43.7047 10.766 43.4571C10.766 43.4346 10.766 43.4346 10.766 43.412C10.7435 43.5696 10.4962 43.6597 10.4062 43.4796C10.2263 43.1419 10.2263 42.7141 10.0015 42.3989C9.8666 42.1963 10.1364 41.9262 10.2938 42.1288C10.5411 42.4665 10.5411 42.9167 10.7435 43.277V43.2995C10.676 42.9167 10.6086 42.534 10.4512 42.1738C10.3612 41.9487 10.6985 41.7686 10.7884 41.9937C10.7884 42.0162 10.7884 42.0162 10.8109 42.0387C10.8559 41.8586 11.1032 41.7686 11.1482 41.9712C11.3056 42.444 11.463 42.9167 11.6428 43.367C11.5079 42.8492 11.4854 42.2864 11.2156 41.8136C11.1032 41.5885 11.4405 41.4083 11.5529 41.6335C11.8902 42.2413 11.7777 43.0293 12.1375 43.6147C12.2949 43.8398 12.0026 44.11 11.8677 43.9073ZM12.7445 43.7948C12.767 43.8848 12.812 43.9749 12.8345 44.0649C12.767 44.0874 12.6996 44.1325 12.6321 44.155C12.2949 43.2319 11.9576 42.3089 11.6203 41.3858L11.7777 41.3183C11.7777 41.3183 11.7777 41.3183 11.7777 41.3408C11.8452 41.2733 11.9576 41.2733 12.0251 41.3633C12.4972 42.0387 12.8345 42.8717 13.0593 43.6822C13.1268 43.8623 12.8345 43.9524 12.7445 43.7948ZM13.4865 43.8848C13.4191 43.8848 13.3516 43.8398 13.3291 43.7497C13.3066 43.6597 13.2617 43.5471 13.2392 43.4571C12.9694 42.9167 12.6996 42.2188 12.5647 41.6335C12.5197 41.5209 12.4523 41.4309 12.3623 41.3183C12.2499 41.2057 12.3398 41.0256 12.4747 41.0031C12.4747 40.9356 12.4747 40.8455 12.4747 40.778C12.4972 40.8455 12.5197 40.913 12.5647 40.9806C12.5872 40.9806 12.6321 41.0031 12.6546 41.0256C12.9469 41.3633 13.0593 41.7686 13.1717 42.1963C13.2842 42.6916 13.5765 43.1194 13.7114 43.6147C13.7338 43.6822 13.7114 43.7497 13.6664 43.7723C13.7114 43.9073 13.7788 44.0424 13.8238 44.1775C13.7338 44.1775 13.5989 44.0649 13.4865 43.8848ZM14.2285 43.7272C14.0486 43.7497 14.0261 43.5246 14.1161 43.3895C14.0486 43.2995 13.9362 43.1869 13.9137 43.1419C13.7788 42.9167 13.6664 42.6916 13.554 42.444C13.3516 41.9937 13.2617 41.4759 12.9244 41.0932C12.812 40.9581 12.9244 40.778 13.0593 40.7554C13.0593 40.7329 13.0593 40.7329 13.0368 40.7104C13.1043 40.6879 13.1717 40.6429 13.2392 40.6204L13.3966 41.0932C13.7114 41.611 13.8463 42.2864 14.161 42.8267C14.3409 43.0969 14.8356 43.6822 14.2285 43.7272ZM15.2178 43.7497C15.1953 43.7047 15.1728 43.6597 15.1503 43.6147C15.0829 43.6147 15.0154 43.5922 14.9705 43.5246C14.7681 43.1194 14.5657 42.6916 14.4308 42.2639C14.3634 42.0612 14.3184 41.8136 14.251 41.611C14.2285 41.5434 14.1835 41.4759 14.161 41.4083C14.1385 41.3633 14.1161 41.3408 14.0936 41.2958C14.3409 42.1738 14.6107 43.0293 14.858 43.9073C14.8355 43.9299 14.8131 43.9299 14.7906 43.9524C14.3634 42.8942 13.9362 41.8586 13.509 40.8005C13.5764 40.7555 13.6214 40.7329 13.6889 40.6879L13.9362 41.0031C13.9587 40.913 14.0261 40.823 14.1161 40.823C14.1386 40.7329 14.161 40.6204 14.1835 40.4628C14.251 40.6654 14.3409 40.868 14.4084 41.0706C14.5657 41.2958 14.6332 41.5434 14.7006 41.8136C14.7231 41.8811 14.7231 41.9262 14.7456 41.9937C14.8131 42.1963 14.903 42.3989 14.9705 42.6016C15.0829 42.8492 15.1953 43.0743 15.3077 43.322C15.3302 43.3895 15.3302 43.4571 15.3077 43.5021C15.3302 43.5696 15.3527 43.6147 15.3752 43.6822C15.3077 43.7047 15.2627 43.7272 15.2178 43.7497ZM16.3195 43.5471C16.297 43.5021 16.2745 43.4571 16.2745 43.412C16.2071 43.5246 16.0722 43.5696 15.9822 43.4571C15.645 43.0518 15.3527 42.6241 15.1278 42.1288C14.948 41.746 14.903 41.0932 14.5657 40.823C14.3859 40.6879 14.5882 40.3502 14.7906 40.4853C14.8805 40.5528 14.948 40.6429 15.0154 40.7329C15.0829 40.6654 15.1503 40.6429 15.2403 40.7104C15.2627 40.7329 15.2852 40.7555 15.3077 40.778C15.3752 40.7555 15.4426 40.7104 15.5101 40.6879C15.5775 40.8905 15.645 41.1157 15.7124 41.3183C15.8248 41.4984 15.9148 41.701 15.9822 41.8811C16.1846 42.3764 16.4769 42.8492 16.6343 43.3445C16.7467 43.6147 16.4094 43.7948 16.3195 43.5471ZM21.6032 43.9524C21.5583 43.8848 21.5358 43.8173 21.4908 43.7497C21.4908 43.7497 21.4908 43.7497 21.4683 43.7497C21.3559 43.7047 21.3334 43.6147 21.3559 43.5246C20.569 42.0837 19.9619 40.5528 19.4672 38.9544C19.4672 38.9544 19.4448 38.9544 19.4448 38.9769C19.4448 39.0669 19.4672 39.1345 19.4672 39.2245C19.6921 39.6073 19.782 40.0575 19.9169 40.4853C20.0518 40.913 20.0968 41.3858 20.2092 41.8361C20.5015 42.579 20.8163 43.2995 21.0861 44.0649C20.7263 43.6147 20.4565 43.0969 20.2542 42.5565C20.2317 42.5115 20.2317 42.489 20.2092 42.444C20.1193 42.489 20.0293 42.4665 19.9844 42.3539C19.782 41.8361 19.7146 41.2733 19.6021 40.7104C19.4897 40.3502 19.3773 39.99 19.2649 39.6523C19.2199 39.5397 19.1525 39.4497 19.085 39.3596C19.085 39.3371 19.0625 39.3371 19.0625 39.3146C19.0176 39.3371 18.9726 39.3596 18.9051 39.3821L20.479 44.0649C20.3891 44.11 20.3216 44.1325 20.2317 44.1775L18.6129 39.7649C18.5679 39.7874 18.5229 39.7874 18.5004 39.8099C18.5229 39.8999 18.5454 39.99 18.5679 40.0575C18.6129 40.08 18.6353 40.1026 18.6803 40.1251C18.7927 40.2151 18.7702 40.3727 18.6803 40.4403C18.7028 40.5303 18.7253 40.6204 18.7478 40.7104C18.8152 40.7329 18.8602 40.778 18.8602 40.868C18.9051 41.3858 19.175 41.8136 19.3548 42.2639C19.5572 42.8042 19.7371 43.3445 19.9844 43.8398C20.0743 43.9974 19.9169 44.1325 19.782 44.11C19.7595 44.11 19.7371 44.11 19.7146 44.11C19.6246 44.0874 19.6021 43.9974 19.6021 43.9299C19.3548 43.412 19.175 42.8492 18.9501 42.3089C18.7702 41.8586 18.5004 41.4534 18.478 40.9356C18.478 40.868 18.5004 40.823 18.5229 40.778C18.478 40.6654 18.433 40.5528 18.4105 40.4177C18.2756 40.3277 18.1182 40.2602 17.9608 40.3502C17.9608 40.4177 17.9833 40.4853 17.9608 40.5528C17.9608 40.6204 17.9159 40.6879 17.8484 40.7329C17.9383 41.0256 17.9833 41.3633 18.1182 41.656C18.388 42.3314 18.6803 43.0068 18.9726 43.6822C19.085 43.9073 18.7253 44.0875 18.6353 43.8623C18.5904 43.7723 18.5679 43.7047 18.5229 43.6147C18.478 43.6372 18.433 43.6597 18.388 43.6822C17.9833 42.6241 17.6011 41.5659 17.2188 40.5528C16.9266 40.778 16.8591 41.0031 16.9041 41.2282C17.0839 41.5659 17.1289 41.9712 17.2413 42.3314C17.3987 42.7592 17.6236 43.1419 17.8259 43.5471C17.8934 43.7272 17.736 43.8623 17.6011 43.8173C17.5111 43.8848 17.3987 43.8848 17.3538 43.7497C17.1064 43.0518 16.5668 42.4665 16.3869 41.7235L16.3195 41.611C16.297 41.6335 16.252 41.656 16.2296 41.6785C16.3195 41.9712 16.3869 42.2639 16.4769 42.5565C16.4319 42.579 16.3869 42.579 16.342 42.6016C16.1396 42.0162 15.9373 41.4309 15.7349 40.913C16.0047 40.6879 16.2071 40.5303 16.4094 40.3727C16.6792 40.1476 16.8816 39.8099 17.1739 39.6748C17.7585 39.4046 18.2756 39.112 18.6803 38.5491C18.7927 38.414 19.3323 38.414 19.4897 38.5716C19.782 38.8868 19.9844 39.3371 20.1418 39.7649C20.6364 40.9356 21.0861 42.1288 21.5583 43.322C21.5807 43.367 21.5807 43.3895 21.6032 43.4346C21.6707 43.4796 21.6932 43.5696 21.6932 43.6372C21.7381 43.7272 21.7606 43.8173 21.8056 43.9073C21.7606 43.8623 21.6707 43.9073 21.6032 43.9524ZM39.3655 34.2491C39.5679 34.7669 39.433 34.9695 39.0058 35.1271C38.0615 35.4648 37.1172 35.8475 36.1728 36.2077C32.0358 37.7612 27.8987 39.3371 23.7392 40.8905C23.1321 41.1157 22.57 41.0706 21.9854 40.6204C27.8313 38.4816 33.5872 36.3653 39.3655 34.2491ZM22.1653 42.1288C22.615 42.5565 23.0422 42.9393 23.4469 43.322C22.8174 43.5246 22.4351 43.1869 22.1653 42.1288ZM32.1032 41.4534C31.8334 41.5434 31.4512 41.2958 31.1364 41.1832C31.1364 41.1832 31.1814 40.9806 31.2039 40.868C30.8441 40.9581 30.4844 41.0706 30.1022 41.1382C29.2927 41.2733 28.5058 41.3858 27.6964 41.4984C27.1568 41.6335 26.5722 41.6785 26.0775 41.9036C25.6054 42.1288 25.2007 42.1063 24.8184 41.8811C24.4362 41.656 24.0765 41.3858 23.6942 41.1382C28.9555 39.157 34.1718 37.1983 39.388 35.2396C39.6354 35.6899 39.3655 35.7349 39.0508 35.87C36.4651 36.9507 33.8795 38.0538 31.2938 39.157C31.2938 39.1795 31.3163 39.202 31.3163 39.247C33.1375 38.5266 34.9362 37.8062 36.7574 37.0858C37.6568 36.7255 38.5561 36.3203 39.4555 35.9376C39.5679 36.5905 39.3431 36.8606 38.8484 37.0407C38.1064 37.3109 37.387 37.6486 36.645 37.9638C37.5219 37.6936 38.3987 37.4235 39.2756 37.1533C39.478 37.6261 39.1632 37.8737 38.8484 38.1214C39.2306 38.0763 39.5679 38.0763 39.4105 38.7743C37.0047 39.6973 34.554 40.6204 32.1032 41.4534ZM32.373 41.8586C32.373 41.7911 32.373 41.7235 32.373 41.6335C34.7339 40.7554 37.1171 39.8774 39.478 38.9994C39.6803 39.4497 39.3431 39.5622 39.0508 39.6748C37.1621 40.3727 35.2735 41.0932 33.3848 41.7686C33.07 41.9036 32.7103 41.8361 32.373 41.8586ZM39.7253 40.823C39.5454 41.0706 39.4105 41.4083 39.1857 41.5659C38.6685 41.9262 38.1964 41.746 37.6792 41.3408C38.3538 41.0932 38.9608 40.868 39.5679 40.6204C39.6129 40.7104 39.6578 40.778 39.7253 40.823ZM39.6578 40.3952C38.0165 40.8005 36.5775 41.8586 34.7563 41.701C36.4426 41.0256 37.9715 40.3952 39.5229 39.7649C39.5679 39.9675 39.6129 40.1476 39.6578 40.3952ZM39.478 29.0484C38.6461 28.3055 39.388 27.9903 39.7478 27.6301C39.6578 28.0578 39.5679 28.5081 39.478 29.0484ZM39.0508 28.0578C38.9384 28.0128 38.8259 27.9903 38.7135 27.9453C38.7585 27.5851 38.7135 27.1348 38.8709 26.8646C39.5005 25.829 40.2199 24.8384 40.8945 23.8478C40.9619 23.8928 41.0294 23.9153 41.0968 23.9604C40.3998 25.3112 39.7253 26.6845 39.0508 28.0578ZM38.7135 26.6845C38.6461 25.6714 38.7135 24.7033 39.5229 23.8928C40.175 23.2174 40.7146 22.4069 41.3217 21.664C41.2542 23.8253 39.5904 24.996 38.7135 26.6845ZM39.0957 23.9154C39.4555 22.1143 40.782 21.0111 41.8388 19.7278C41.7039 20.876 40.9844 22.0017 39.0957 23.9154ZM39.8602 21.5514C39.8377 21.0787 39.6353 20.5608 39.7927 20.3132C40.5797 19.2551 41.4566 18.2645 42.3559 17.1838C42.3109 18.7598 41.479 20.2006 39.8602 21.5514ZM40.0625 19.6378C40.0401 17.1613 41.8163 15.878 43.1429 14.167C43.2103 16.8011 41.1418 17.8817 40.0625 19.6378ZM40.4897 16.9362C40.5572 16.3508 40.5797 15.7204 40.872 15.3152C41.7264 14.1895 42.6707 13.1539 43.5925 12.0958C43.3677 14.3021 41.5015 15.2927 40.4897 16.9362ZM43.7949 11.3528C42.8955 12.6361 41.8163 13.7843 40.782 15.045C40.5347 14.077 40.8045 13.334 41.3441 12.6586C41.8388 12.0282 42.3559 11.3753 42.873 10.745C43.2553 10.2722 43.6375 9.84442 44.0422 9.39415C44.1321 9.43918 44.2221 9.46169 44.2895 9.50672C44.1321 10.1371 44.1321 10.88 43.7949 11.3528ZM40.782 12.9288C40.872 12.2984 40.8045 11.713 41.0518 11.3753C41.9287 10.1146 42.918 8.96639 43.8623 7.75066L44.0872 7.86323C44.0197 8.29099 44.0647 8.83131 43.8623 9.12398C42.8955 10.3847 41.8838 11.5554 40.782 12.9288ZM43.8623 7.43547C42.873 8.60617 41.8388 9.77687 40.827 10.9251C40.782 9.4842 40.782 9.4842 41.5915 8.26847C41.6814 8.15591 41.7488 8.02082 41.8388 7.90826C42.5133 6.91766 43.1653 5.94958 43.8623 4.93647C44.6718 5.99461 44.6718 6.46739 43.8623 7.43547Z" fill="black"/>
<path d="M6.68225 22.3555C7.08629 22.855 7.49034 23.3268 8.0187 23.7154C7.67682 23.3268 7.33493 22.9383 6.99305 22.522C6.86873 22.4942 6.77549 22.411 6.68225 22.3555Z" fill="black"/>
<path fill-rule="evenodd" clip-rule="evenodd" d="M6.68225 21.6755L7.16484 22.0863C7.18347 22.1021 7.2015 22.1194 7.21732 22.1347C7.21822 22.1355 7.21912 22.1364 7.22001 22.1373C7.23547 22.1522 7.24918 22.1654 7.26324 22.1778C7.29286 22.204 7.31744 22.2205 7.34162 22.2282L7.37831 22.2399L7.40068 22.2789C7.62991 22.6779 7.85927 23.0506 8.08983 23.4252L8.68692 24.3954L7.94089 23.611C7.57349 23.2248 7.29447 22.7577 7.02184 22.2758L6.68225 21.6755Z" fill="black"/>
<path d="M10.3832 17.1264C10.7173 17.2884 11.0257 17.4342 11.3599 17.5963C10.9486 17.337 10.5117 17.1264 10.0234 16.9158C10.1519 16.9968 10.2804 17.0616 10.3832 17.1264Z" fill="black"/>
<path fill-rule="evenodd" clip-rule="evenodd" d="M10.0234 16.4439L10.1673 16.2358C10.6002 16.5913 10.991 16.9496 11.3599 17.3922L11.2109 17.5957C11.0641 17.4603 10.923 17.3316 10.7816 17.2026L10.7814 17.2024C10.6401 17.0735 10.4985 16.9444 10.3512 16.8084L10.3453 16.803L10.3402 16.7968C10.2997 16.7483 10.2542 16.6994 10.2029 16.6444C10.2002 16.6415 10.1975 16.6386 10.1948 16.6357C10.1411 16.578 10.0824 16.5147 10.0234 16.4439Z" fill="black"/>
<path d="M46.7757 6.71631H58.3421C59.2492 6.71631 60.111 6.80619 60.9501 6.98595C61.7893 7.16571 62.447 7.3904 62.9232 7.68251C63.5129 8.01955 63.9665 8.44648 64.284 8.94081C64.6015 9.43514 64.7602 9.95195 64.7602 10.5137C64.7602 11.435 64.2613 12.2214 63.2407 12.873C62.8325 13.1427 62.4016 13.3673 61.9254 13.5471C61.4491 13.7269 60.7914 13.9291 59.9523 14.1538V14.1987C61.0409 14.401 61.9254 14.6481 62.6284 14.9178C64.5335 15.7491 65.486 16.8951 65.486 18.3556C65.486 19.1645 65.1911 19.8611 64.6242 20.4678C64.0572 21.0745 63.2181 21.5239 62.1521 21.8609C61.0862 22.1755 59.8162 22.3552 58.3647 22.3552H46.7757V21.9283H47.2293C48.2045 21.9283 48.9302 21.7036 49.3838 21.2318C49.8601 20.7599 50.0868 20.0409 50.0868 19.0971V9.99689C50.0868 9.03069 49.8601 8.31166 49.3838 7.8398C48.9075 7.36793 48.1818 7.14324 47.2293 7.14324H46.7757V6.71631ZM53.4434 7.12076V13.974H56.8679C59.6801 13.974 61.0862 12.7607 61.0862 10.3339C61.0862 9.25539 60.7914 8.44648 60.1791 7.9072C59.5667 7.36793 58.6596 7.12076 57.4122 7.12076H53.4434ZM53.4434 14.401V21.9733H56.9813C58.4781 21.9733 59.6348 21.6362 60.4285 20.9846C61.2223 20.333 61.6305 19.3892 61.6305 18.1759C61.6305 17.1423 61.313 16.3109 60.6553 15.7042C60.1564 15.2099 59.5667 14.8728 58.8637 14.6931C58.1606 14.5133 57.1174 14.4234 55.7566 14.4234H53.4434V14.401Z" fill="black"/>
<path d="M66.1766 6.71631H76.8113V7.12135H75.6919C74.7291 7.12135 74.0127 7.34637 73.5649 7.81891C73.0948 8.29146 72.8709 8.98902 72.8709 9.97911V21.9502H76.9009C77.7069 21.9502 78.4457 21.7702 79.1622 21.4102C79.8786 21.0501 80.4831 20.5551 80.9981 19.925C81.3115 19.52 81.5802 19.1374 81.8264 18.7549C82.0727 18.3724 82.2966 17.8998 82.4981 17.3373C82.722 16.7747 82.9235 16.1447 83.125 15.4246H83.528V22.3552H66.1766L66.1542 21.9502H66.7363C68.617 21.9502 69.5573 21.0051 69.5573 19.0924V9.97911C69.5573 8.08893 68.617 7.14385 66.7363 7.14385H66.1766V6.71631Z" fill="black"/>
<path d="M92.6507 6.03638H93.0493L99.2491 20.0142C99.4484 20.4502 99.6698 20.8175 99.9134 21.0929C100.157 21.3683 100.445 21.5749 100.755 21.7126C101.065 21.8503 101.419 21.8962 101.84 21.8962H102.238V22.3323H93.2928V21.8962H94.4664C95.0421 21.8962 95.4628 21.8044 95.7507 21.6438C96.0164 21.4831 96.1492 21.2306 96.1492 20.8863C96.1492 20.6798 96.1049 20.4043 95.9942 20.106C95.8835 19.8076 95.6621 19.2567 95.2857 18.4534C95.2635 18.4075 95.2414 18.3387 95.1971 18.2239C95.1528 18.1091 95.1085 18.0173 95.0642 17.9255L94.8207 17.3517H88.2887L87.8015 18.5452C87.6465 18.9584 87.558 19.3485 87.558 19.7617C87.558 20.106 87.6466 20.4502 87.8458 20.7945C88.023 21.1388 88.2887 21.3913 88.5765 21.5749C88.7758 21.6897 88.953 21.7815 89.1079 21.8274C89.2629 21.8733 89.4844 21.8962 89.7944 21.9192V22.3553H83.5281V21.9192C83.9931 21.8733 84.3473 21.7815 84.613 21.6667C84.8788 21.5519 85.1888 21.3683 85.5209 21.0929C86.2959 20.4732 87.0708 19.2797 87.8015 17.5583L92.6507 6.03638ZM91.4993 9.77755L88.488 16.8927H94.5992L91.4993 9.77755Z" fill="black"/>
<path d="M119.894 16.5255H120.28C120.099 17.2007 119.894 17.741 119.689 18.1911C119.462 18.6413 119.167 19.0915 118.78 19.5642C117.257 21.4324 115.189 22.3553 112.644 22.3553C111.03 22.3553 109.53 21.9726 108.121 21.2298C106.734 20.487 105.62 19.4741 104.802 18.2362C103.984 16.9757 103.575 15.6251 103.575 14.1621C103.575 13.2842 103.734 12.4289 104.052 11.5735C104.37 10.7182 104.848 9.90789 105.484 9.1651C106.098 8.42231 106.825 7.79207 107.643 7.25185C108.893 6.44154 110.325 6.03638 111.962 6.03638C112.507 6.03638 113.03 6.0814 113.507 6.17143C113.985 6.26147 114.462 6.41903 114.894 6.62161C115.326 6.82419 115.78 7.09429 116.235 7.43193C116.757 7.79207 117.121 7.94963 117.371 7.94963C117.917 7.94963 118.576 7.38691 119.394 6.28398H119.78L120.099 13.8244H119.735C119.599 13.2842 119.485 12.834 119.371 12.4964C119.258 12.1588 119.099 11.7986 118.894 11.416C118.371 10.3581 117.758 9.45772 117.053 8.69242C116.348 7.92712 115.576 7.3644 114.735 6.95924C113.894 6.55408 113.03 6.37401 112.144 6.37401C111.098 6.37401 110.234 6.64412 109.552 7.20684C108.893 7.76956 108.393 8.62489 108.075 9.81786C107.757 11.0108 107.598 12.4964 107.598 14.2971C107.598 15.3325 107.643 16.2779 107.757 17.0657C107.871 17.8535 108.052 18.5513 108.28 19.114C108.507 19.6767 108.825 20.1269 109.189 20.5095C109.643 20.9597 110.166 21.2974 110.803 21.5449C111.439 21.77 112.144 21.9051 112.894 21.9051C113.598 21.9051 114.257 21.8151 114.916 21.635C115.553 21.4549 116.166 21.1848 116.735 20.8247C117.303 20.4645 117.803 20.0369 118.28 19.4967C118.667 19.069 118.962 18.6188 119.189 18.1911C119.417 17.831 119.667 17.2458 119.894 16.5255Z" fill="black"/>
<path d="M121.617 6.71631H131.521V7.0994H131.07C130.125 7.0994 129.427 7.34728 128.932 7.8205C128.459 8.29372 128.212 9.01483 128.212 9.98381V16.8118L135.64 10.8627C136.135 10.457 136.472 10.119 136.63 9.8486C136.788 9.57819 136.878 9.28524 136.878 8.94722C136.878 8.38386 136.63 7.93317 136.157 7.59516C135.685 7.25714 135.032 7.0994 134.199 7.0994H133.839V6.71631H143V7.0994H142.775C141.514 7.0994 139.714 8.04585 137.373 9.91621L134.289 12.3725L139.016 19.6286C139.534 20.4398 140.096 21.0257 140.659 21.3863C141.244 21.7468 141.92 21.9271 142.685 21.9271H142.977V22.3552H133.321V21.9271H133.816C135.235 21.9271 135.955 21.5891 135.955 20.913C135.955 20.8004 135.932 20.6652 135.865 20.53C135.797 20.3947 135.662 20.1694 135.482 19.8539L131.903 14.3104L128.212 17.2625V19.0652C128.212 20.0117 128.459 20.7328 128.932 21.206C129.405 21.6792 130.125 21.9046 131.07 21.9046H131.521V22.3327H121.639V21.9046H122.067C123.035 21.9046 123.755 21.6792 124.228 21.206C124.7 20.7328 124.948 20.0117 124.948 19.0652V9.93874C124.948 8.96976 124.7 8.24866 124.228 7.77543C123.755 7.30221 123.035 7.05433 122.067 7.05433H121.617V6.71631Z" fill="black"/>
<path d="M61.8553 25.6863H62.2339V31.0958H61.8553C61.3875 29.8056 60.8529 28.7871 60.2738 28.0628C59.8506 27.5423 59.316 27.1122 58.6701 26.7048C58.0241 26.32 57.2891 26.0032 56.4872 25.7995C55.6853 25.5731 54.8835 25.46 54.0593 25.46C53.4356 25.46 52.9011 25.5505 52.411 25.7089C51.921 25.89 51.5201 26.139 51.186 26.4785C50.9409 26.7275 50.7627 26.9991 50.6291 27.2933C50.4955 27.5875 50.4286 27.8818 50.4286 28.1534C50.4286 28.674 50.6291 29.1266 51.03 29.5114C51.2082 29.6925 51.4755 29.8735 51.8319 30.0546C52.166 30.2357 52.6115 30.3941 53.1683 30.5525C53.7252 30.711 54.4825 30.9147 55.4403 31.1637C55.7076 31.2542 55.8858 31.2995 55.9749 31.2995L56.5095 31.4353L57.3782 31.6616C58.8483 32.0464 59.9174 32.3859 60.5856 32.6801C61.2539 32.9744 61.833 33.3591 62.3007 33.8344C62.6794 34.1966 62.9467 34.604 63.1694 35.0793C63.3699 35.5546 63.4813 36.0525 63.4813 36.6184C63.4813 37.1616 63.3699 37.7048 63.1472 38.248C62.9244 38.7912 62.5903 39.2665 62.1671 39.6739C61.6103 40.2398 60.942 40.6698 60.1402 40.964C59.3383 41.2583 58.425 41.3941 57.4004 41.3941C56.6877 41.3941 56.0194 41.3262 55.3735 41.1677C54.7498 41.0319 53.9702 40.7603 53.057 40.3529C52.4556 40.104 52.0101 39.9455 51.6983 39.855C51.3864 39.7645 51.0969 39.7192 50.8296 39.7192C50.295 39.7192 49.8495 39.855 49.4931 40.1492C49.1367 40.4208 48.8917 40.8282 48.7581 41.3488H48.3794V34.106H48.7581C48.914 35.3962 49.4263 36.5731 50.295 37.6143C50.8296 38.2254 51.4978 38.8138 52.2997 39.3344C53.1238 39.855 53.9702 40.285 54.8612 40.5793C55.7521 40.8735 56.5986 41.0093 57.4227 41.0093C58.1355 41.0093 58.8037 40.8961 59.3828 40.6472C59.9842 40.3982 60.452 40.0813 60.7638 39.6513C61.0979 39.2212 61.2539 38.7459 61.2539 38.2027C61.2539 37.6369 61.0311 37.1163 60.5856 36.6636C60.3852 36.4599 60.1179 36.2789 59.7838 36.0978C59.4497 35.9167 59.0264 35.7583 58.5141 35.5772C58.0018 35.3962 57.2668 35.1925 56.3758 34.9435L55.2621 34.6492C53.5247 34.1739 52.3442 33.8118 51.676 33.5402C50.9187 33.2686 50.3395 32.9743 49.9163 32.7027C49.4931 32.4311 49.1145 32.069 48.8026 31.639C48.3349 31.0279 48.1121 30.3715 48.1121 29.6472C48.1121 28.7645 48.3571 27.9949 48.8694 27.2933C49.3817 26.5916 50.0945 26.0484 51.0078 25.6637C51.921 25.2789 52.9456 25.0752 54.0593 25.0752C55.7521 25.0752 57.4895 25.5505 59.316 26.5011C59.962 26.818 60.3852 26.9764 60.6079 26.9764C61.187 26.9764 61.588 26.5464 61.8553 25.6863Z" fill="black"/>
<path d="M64.1716 25.0752H82.1916V33.0299L81.8382 33.0524C81.6616 31.0694 81.0653 29.3567 80.0716 27.9145C78.9011 26.2921 77.3995 25.4808 75.6107 25.4808H74.8157V37.4466C74.8157 39.3395 75.7432 40.286 77.5982 40.286H79.8949V40.7141H66.4683V40.286H68.7649C70.6199 40.286 71.5474 39.3395 71.5474 37.4466V25.4808H70.5537C68.7207 25.4808 67.2412 26.3597 66.0928 28.1174C65.5187 28.9737 65.0991 30.0103 64.812 31.182C64.7237 31.5877 64.6133 32.1961 64.5249 33.0299H64.1495V25.0752H64.1716Z" fill="black"/>
<path d="M92.7493 25.0752C94.2005 25.0752 95.5402 25.3009 96.7458 25.7749C97.9515 26.2489 99.0009 26.926 99.894 27.8289C100.653 28.5963 101.211 29.454 101.636 30.3794C102.037 31.3274 102.238 32.2754 102.238 33.2685C102.238 34.7356 101.814 36.1125 100.988 37.3539C100.162 38.5953 99.0455 39.5884 97.6166 40.3107C96.1877 41.033 94.6471 41.3941 92.9502 41.3941C91.6552 41.3941 90.4495 41.191 89.3108 40.7847C88.1722 40.3784 87.1674 39.7915 86.2967 39.0467C85.4259 38.3018 84.7561 37.4216 84.2649 36.4059C83.7737 35.4127 83.5281 34.3519 83.5281 33.2685C83.5281 31.8239 83.9523 30.4697 84.7784 29.2057C85.6268 27.9417 86.7432 26.9486 88.1498 26.2037C89.5788 25.4363 91.097 25.0752 92.7493 25.0752ZM93.0395 25.4589C92.3697 25.4589 91.7222 25.5718 91.1417 25.82C90.5388 26.0457 90.0476 26.3843 89.6458 26.8357C89.1992 27.3097 88.8196 27.874 88.5071 28.506C88.1945 29.1606 87.9489 29.8828 87.7926 30.6728C87.6363 31.4628 87.547 32.3205 87.547 33.2459C87.547 34.397 87.681 35.4579 87.9266 36.4059C88.1722 37.3539 88.5517 38.1664 89.0206 38.8661C89.4895 39.5433 90.07 40.085 90.7175 40.4235C91.3873 40.7847 92.1018 40.9652 92.9279 40.9652C94.0219 40.9652 94.982 40.6492 95.7858 40.0172C96.5895 39.3853 97.2147 38.4824 97.6613 37.3087C98.0855 36.135 98.3088 34.7356 98.3088 33.1105C98.3088 32.0722 98.1971 31.0791 97.9515 30.1763C97.7059 29.2734 97.371 28.4609 96.9245 27.7837C96.4779 27.1066 95.9421 26.5649 95.3169 26.1812C95.0043 25.978 94.6471 25.7975 94.2452 25.6846C93.821 25.5266 93.4191 25.4589 93.0395 25.4589Z" fill="black"/>
<path d="M103.866 25.0752H110.106L120.932 36.7216V29.7477C120.932 28.8876 120.798 28.167 120.507 27.5161C120.238 26.8884 119.836 26.4002 119.299 26.0515C119.008 25.8656 118.74 25.7261 118.449 25.6564C118.158 25.5866 117.756 25.5169 117.241 25.4936V25.0752H124.958V25.4936H124.801C123.683 25.4936 122.833 25.8656 122.229 26.6095C121.648 27.3533 121.357 28.4227 121.357 29.8407V41.3941H120.999L107.556 27.0744V36.6751C107.556 37.6049 107.668 38.3488 107.869 38.9067C108.093 39.4646 108.429 39.9063 108.921 40.2318C109.323 40.4875 109.793 40.627 110.352 40.6967C110.665 40.7432 111.113 40.7897 111.694 40.8129V41.2314H103.575V40.8129C104.402 40.7664 105.073 40.6037 105.61 40.348C106.125 40.0923 106.527 39.6971 106.773 39.1857C107.019 38.6743 107.154 38.0466 107.154 37.2795V28.1437C107.154 27.5858 107.042 27.0976 106.796 26.7024C106.55 26.3072 106.214 26.005 105.744 25.7958C105.275 25.5866 104.738 25.4704 104.067 25.4704H103.866V25.0752Z" fill="black"/>
<path d="M124.958 25.0752H141.897V31.1196H141.554C141.233 30.0635 140.958 29.277 140.707 28.7378C140.455 28.221 140.134 27.7042 139.745 27.2548C139.264 26.693 138.738 26.2886 138.189 26.0639C137.25 25.6819 136.128 25.5021 134.778 25.5021H131.665V32.9396H132.512C133.771 32.9396 134.755 32.4003 135.488 31.3442C135.877 30.805 136.151 30.1534 136.334 29.3894C136.426 29.0748 136.518 28.6029 136.586 27.9738H136.975V38.22H136.586C136.495 37.6582 136.38 37.1414 136.266 36.6696C136.151 36.1752 135.991 35.7933 135.854 35.4787C135.694 35.1641 135.488 34.872 135.259 34.5574C134.572 33.726 133.611 33.3216 132.352 33.3216H131.665V40.3097H134.297C135.076 40.3097 135.762 40.2647 136.38 40.1524C136.998 40.04 137.548 39.8827 138.051 39.658C138.555 39.4334 139.013 39.1412 139.448 38.7593C140.203 38.1301 140.775 37.3661 141.187 36.4449C141.416 35.9056 141.668 35.209 141.92 34.2878H142.332V40.7141H125.004L124.981 40.3097H125.416C127.339 40.3097 128.3 39.3659 128.3 37.456V28.3558C128.3 27.3896 128.071 26.6705 127.59 26.1987C127.11 25.7268 126.4 25.5021 125.393 25.5021H124.958V25.0752Z" fill="black"/>
</svg>
