<svg width="143" height="45" viewBox="0 0 143 45" fill="none" xmlns="http://www.w3.org/2000/svg">
<path d="M8.44488 18.2726C8.6343 18.4885 8.80267 18.7043 8.97104 18.9202C9.13941 19.0497 9.30778 19.1792 9.47615 19.3087C9.43406 19.244 9.39197 19.1792 9.34987 19.1144C9.47615 19.244 9.62348 19.3951 9.7708 19.5246C9.85499 19.5893 9.93918 19.6541 10.0234 19.7188C9.93918 19.3951 9.79185 19.1144 9.62348 18.8554C8.9079 18.1862 8.23441 17.4523 7.35046 16.999C7.77139 17.3444 8.10814 17.7977 8.44488 18.2726Z" fill="#F3F3F3"/>
<path fill-rule="evenodd" clip-rule="evenodd" d="M6.01398 16.3188L6.9782 16.7558C7.78226 17.1201 8.43058 17.6711 9.06238 18.208C9.19887 18.324 9.33459 18.4393 9.47095 18.552L9.48127 18.5605L9.48903 18.5711C9.6757 18.8248 9.84261 19.1045 9.93834 19.4298L10.0233 19.7186L9.68375 19.4878L9.69898 19.5085L8.60579 18.7655L8.59674 18.7553C8.41374 18.548 8.233 18.3433 8.02999 18.1388L8.02601 18.1348L8.02252 18.1305C7.65669 17.6746 7.2992 17.2506 6.85578 16.9291L6.01398 16.3188ZM9.11325 18.8517L9.17782 18.8037C9.30534 18.9193 9.44932 19.0497 9.59386 19.1646C9.51404 18.9994 9.41527 18.8449 9.30665 18.6964C9.16868 18.5822 9.03286 18.4669 8.89759 18.352C8.50679 18.0202 8.12053 17.6922 7.69984 17.4075C7.87485 17.5988 8.04017 17.8006 8.20376 18.0044C8.40683 18.2092 8.58768 18.4136 8.76604 18.6157L9.11325 18.8517Z" fill="#F3F3F3"/>
<path d="M6.60359 34.6777C6.44636 35.1817 6.32843 35.7097 6.1712 36.2136C6.1319 37.0536 6.05328 37.9175 6.01398 38.7575C6.36774 37.9895 6.56428 37.1976 6.6822 36.4056C6.60359 35.8057 6.56428 35.2537 6.60359 34.6777Z" fill="#F3F3F3"/>
<path fill-rule="evenodd" clip-rule="evenodd" d="M6.26837 35.4008C6.30979 35.1592 6.35151 34.9158 6.39924 34.6777L6.63423 34.7035C6.61079 35.2379 6.63417 35.7511 6.68139 36.3118L6.6822 36.3214L6.68128 36.331C6.60972 37.0786 6.49019 37.8293 6.27413 38.5589L6.01398 39.4374L6.04142 38.5252C6.0533 38.1302 6.07112 37.7297 6.0889 37.3301L6.08891 37.3297C6.10671 36.9297 6.12446 36.5306 6.13629 36.1373L6.13656 36.1283L6.13834 36.1195C6.18543 35.8847 6.22668 35.644 6.26824 35.4016L6.26837 35.4008ZM6.37311 36.1527C6.36246 36.5042 6.34715 36.86 6.33138 37.2156C6.37876 36.9186 6.41532 36.6196 6.44415 36.3201C6.43316 36.189 6.42345 36.0601 6.41531 35.9327C6.40169 36.0064 6.38768 36.0798 6.37311 36.1527Z" fill="#F3F3F3"/>
<path d="M44.6043 6.70347C44.8516 5.98304 44.8067 5.35266 44.5818 4.67725C43.9523 2.9212 42.8281 1.61542 41.524 0.46723C40.5797 -0.365769 38.3987 -0.0280669 37.387 1.03007C36.7349 1.72799 35.948 2.13323 35.0711 2.40339C34.5315 2.56098 34.0368 2.89869 33.5422 3.21388C32.8902 3.61912 32.2381 3.82174 31.4962 3.79923C30.2371 3.77671 28.978 3.88928 27.7413 4.38458C28.3259 4.45212 28.9105 4.49714 29.4951 4.54217C29.5176 4.45212 29.585 4.36206 29.6974 4.36206C29.7199 4.36206 29.7649 4.36206 29.7874 4.36206C29.7874 4.31704 29.7874 4.29452 29.7874 4.2495C30.9565 4.11441 32.1257 3.97934 33.3623 3.84425C33.16 4.02436 32.9576 4.38458 32.7553 4.38458C32.2831 4.40709 31.8109 4.40709 31.3613 4.40709C31.3613 4.51966 31.2938 4.65474 31.1589 4.65474C31.0465 4.65474 30.9341 4.67725 30.8216 4.67725C30.9341 4.69977 30.979 4.81233 30.979 4.9249L31.721 5.01496C31.7435 5.10501 31.766 5.21758 31.7885 5.30763C31.4512 5.48774 31.069 5.87047 30.7542 5.82544C30.6418 5.80293 30.5069 5.78042 30.3944 5.7579C30.5294 5.87047 30.3944 6.16315 30.1921 6.0956C28.9555 5.7579 27.6739 5.71287 26.4373 5.37517C26.2124 5.30763 26.3473 4.9249 26.5722 4.99244C27.4266 5.24009 28.3259 5.33014 29.2028 5.48774C28.7306 5.35266 28.2585 5.24009 27.7863 5.10501C27.7863 5.0825 27.7863 5.03747 27.8088 5.01496C28.7756 5.12752 29.7649 5.24009 30.7317 5.35266L30.7542 5.19506C29.9673 5.0825 29.1803 4.94741 28.3709 4.83485C28.1011 4.81233 27.8088 4.78982 27.539 4.74479C27.4266 4.72228 27.3816 4.63223 27.3816 4.51966C27.3141 4.56469 27.2242 4.5872 27.1568 4.63223C26.1899 5.12752 25.1557 5.37517 24.0315 5.33014C22.8174 5.28512 21.5807 5.66785 20.3666 5.87047C18.433 6.20817 16.5218 6.74849 14.5657 6.68095C14.2959 6.68095 13.9587 6.77101 13.7338 6.97363C12.7895 7.78412 11.7552 8.437 10.9908 9.51765C10.0465 10.8234 8.94476 12.0392 7.84304 13.2099C6.53897 14.5607 5.1 15.7539 3.81842 17.1272C2.51435 18.5231 1.27773 20.0089 1.14282 22.1027C1.12034 22.3504 1.07537 22.6881 0.917985 22.8456C0.198498 23.7012 0.333402 24.6242 0.355886 25.6148C0.37837 26.2902 0.108562 26.9881 0.0186265 27.6635C-0.0263414 28.0237 0.0186258 28.384 0.0635937 28.7442C0.153529 29.352 0.445822 29.9599 0.333402 30.5228C0.131047 31.5359 0.333401 32.3914 0.715629 33.2019C1.25524 34.3275 1.41263 35.4082 0.648176 36.6014C0.490788 36.849 0.490788 37.2543 0.535756 37.5695C0.67066 38.515 0.940468 39.3931 0.490789 40.4287C0.108562 41.3067 0.625692 42.3198 1.43511 42.7476C1.83983 42.9727 2.26702 43.1753 2.69422 43.378C2.69422 43.423 2.69422 43.468 2.69422 43.513C3.4137 43.5355 4.15567 43.6256 4.87516 43.5355C6.04433 43.4005 7.14604 43.5806 8.22527 44.0083C8.89979 44.2785 9.55182 44.2335 10.2488 44.0308C10.8109 43.8733 11.463 43.8507 12.0251 43.9408C12.9019 44.0759 13.7338 44.1884 14.6107 43.8733C14.858 43.7832 15.1503 43.7607 15.3977 43.7607C17.1289 43.8057 18.8602 43.9183 20.6139 43.8958C21.4233 43.8733 22.2553 43.6031 23.0422 43.3329C24.1439 42.9502 25.2231 42.7926 26.3473 42.8376C28.3484 42.9052 30.372 42.8827 32.373 42.8827C33.3398 42.8827 34.3291 42.8601 35.2959 42.8151C35.5433 42.8151 35.7906 42.7476 36.0154 42.635C37.0947 42.0722 38.2413 41.802 39.4105 41.7795C39.5904 41.7795 39.8827 41.5319 39.9276 41.3517C40.0401 40.8564 40.1075 40.3386 40.085 39.8659C40.0401 38.9653 39.9052 38.0873 39.8152 37.1867C39.7927 36.9616 39.8152 36.714 39.8602 36.4663C40.0625 34.8904 40.13 33.3144 39.7253 31.7835C39.6578 31.5359 39.7478 31.2207 39.7703 30.928C39.9052 29.9374 40.0176 28.9243 40.175 27.9337C40.3099 27.1232 40.4897 26.3352 40.6921 25.5473C41.0968 24.0839 41.569 22.643 41.9512 21.1571C42.5358 18.8833 43.0529 16.6094 43.615 14.3355C43.9073 13.1648 44.312 12.0167 44.4919 10.8234C44.6493 9.85536 44.5144 8.86477 44.5593 7.89668C44.4694 7.49144 44.4919 7.06368 44.6043 6.70347ZM43.4801 4.56469C42.918 5.2626 42.4234 5.98304 41.9062 6.70347C41.4566 7.35636 41.0743 8.03177 40.6471 8.70717C40.175 8.05428 40.13 7.94171 40.4673 7.46893C41.4116 6.11812 42.3784 4.78982 43.3452 3.4165C43.8399 3.82174 43.8174 4.13693 43.4801 4.56469ZM20.9512 39.2355C20.8163 39.0779 20.6589 38.9203 20.569 38.8302C26.752 36.4438 32.8902 34.0799 39.0733 31.6709C39.1632 31.9411 39.2306 32.1437 39.2981 32.3689C35.8131 33.7422 32.3955 35.1155 28.978 36.4213C26.6396 37.3218 24.2788 38.1323 21.9405 38.9878C22.2103 38.9428 22.4801 38.9653 22.7274 38.8753C26.3698 37.547 30.0122 36.2412 33.6546 34.8904C35.5658 34.1699 37.4544 33.4045 39.3655 32.6615C39.5904 33.2019 39.3431 33.382 38.9384 33.5396C35.8356 34.6652 32.7328 35.8359 29.63 36.9616C27.1568 37.8622 24.661 38.7177 22.1878 39.6632C21.5807 39.8659 21.221 39.7983 20.9512 39.2355ZM21.6482 41.9821H21.6257C21.2884 41.2392 20.9287 40.4962 20.5914 39.7308C20.6364 39.7083 20.6814 39.6857 20.7263 39.6632C21.0411 40.4512 21.3334 41.2167 21.6482 41.9821ZM20.0743 37.8622C26.4822 35.4532 32.8677 33.0443 39.2531 30.6353C39.388 31.1081 39.0957 31.2882 38.7135 31.4458C35.6557 32.639 32.5979 33.8773 29.5401 35.048C26.6846 36.1511 23.7842 37.2093 20.9287 38.3124C20.4116 38.4925 20.1418 38.3124 20.0743 37.8622ZM19.7146 37.637C19.6471 37.1867 19.6021 36.8941 19.5797 36.6239C19.4672 36.3312 19.3323 36.016 19.2199 35.7009C24.2788 33.9898 29.2478 32.3013 34.1942 30.6353C34.3741 31.018 34.2167 31.2207 33.8345 31.3557C29.7649 32.8191 25.6953 34.305 21.6257 35.7909C21.0636 35.9935 20.524 36.2637 19.9844 36.4888C20.2317 36.4438 20.479 36.4438 20.7039 36.3763C26.9319 34.5302 32.9576 31.9861 39.0283 29.6447C39.0957 29.6222 39.1407 29.6222 39.2306 29.5997C39.2981 29.8023 39.3431 29.9824 39.433 30.2526C32.8677 32.6615 26.3698 35.1155 19.7146 37.637ZM14.3184 37.0066C14.2285 37.0291 14.1385 37.0292 14.0486 37.0517C14.0261 36.849 14.0261 36.6239 14.0036 36.4213C13.8912 36.4213 13.7788 36.3763 13.7114 36.2862L13.8912 37.6145L13.6889 37.6595C13.6214 37.5244 13.5315 37.3894 13.464 37.2768L13.2842 37.9522C13.1942 37.8622 13.1043 37.7946 13.0144 37.7046C13.0144 37.637 13.0144 37.592 13.0144 37.5244C13.0144 37.5244 13.0144 37.547 12.9919 37.547C12.9919 37.592 12.9919 37.637 13.0144 37.7046C13.0144 37.7046 13.0144 37.7046 12.9919 37.682L12.812 38.2224C12.7445 38.2224 12.6771 38.1999 12.6096 38.1999C12.6096 38.0197 12.5872 37.8171 12.5872 37.637C12.4972 37.592 12.4523 37.5019 12.4523 37.3894C12.4523 36.6914 12.4523 35.971 12.4747 35.2731L12.2499 30.6578C12.3173 30.6578 12.4073 30.6353 12.4747 30.6353C12.4747 30.6578 12.4747 30.6803 12.4747 30.7254C12.5872 30.6578 12.7221 30.7029 12.7221 30.8605C12.7221 30.9505 12.7445 31.0406 12.7445 31.1306C12.7445 31.0406 12.767 30.973 12.767 30.883C12.7445 30.7704 12.7445 30.6128 12.7221 30.4552C12.767 30.4777 12.812 30.5228 12.8794 30.5453C13.0593 30.3652 13.464 30.5453 13.4191 30.8605C13.3966 31.0406 13.3741 31.2207 13.3516 31.4008C13.4191 32.2113 13.464 33.0443 13.509 33.8547C13.6214 34.305 13.6439 34.7778 13.5989 35.2731L13.7114 36.1286C13.8238 35.8359 13.8912 35.5207 13.9362 35.2281C13.8238 33.9448 13.7338 32.6615 13.6214 31.3783C13.5989 31.3557 13.5989 31.3332 13.5764 31.3107C13.5315 31.2432 13.554 31.1756 13.5989 31.1081C13.5989 31.0856 13.5989 31.0856 13.5989 31.0631C13.6214 31.0631 13.6214 31.0631 13.6439 31.0631C13.7338 30.9955 13.8687 30.9955 13.9362 31.1081C14.0486 31.3107 14.1161 31.5133 14.161 31.7385C14.206 31.4008 14.2735 31.0631 14.3859 30.7254C14.4758 30.4552 14.8131 30.4552 14.948 30.6353C15.0154 30.6578 15.0604 30.7029 15.0604 30.7704C15.1278 31.2657 15.1728 31.761 15.2403 32.2338C15.2627 31.716 15.2627 31.1982 15.2627 30.6803V30.6578C15.2178 30.5002 15.1503 30.3877 15.0379 30.2751C14.858 30.1175 15.0829 29.7798 15.2627 29.9374C15.3976 30.0725 15.4876 30.2076 15.555 30.3877C15.7124 30.3877 15.8923 30.4777 15.8923 30.6803C15.8923 31.4683 15.8473 32.2338 15.8473 33.0218C15.9148 33.2019 15.9822 33.3595 16.0497 33.5396C15.9822 32.2788 15.9148 30.9955 15.8248 29.7348C16.0497 30.3652 16.1396 31.0406 16.252 31.716C16.2745 31.8736 16.4319 32.0086 16.5218 32.1437C16.4544 31.4233 16.342 30.7029 16.297 29.9599C16.2745 29.7348 16.3869 29.4871 16.4319 29.2395C16.3645 28.8567 16.3869 28.519 16.4994 28.2489C16.252 28.384 16.0272 28.5416 15.8248 28.6992C15.5775 29.0819 15.2627 29.307 14.9255 29.4196C14.903 29.4421 14.8805 29.4421 14.8805 29.4646C14.3409 29.8023 13.7114 29.8473 13.1717 30.185C12.9694 30.3201 12.812 29.9599 13.0144 29.8248C13.1493 29.7348 13.2842 29.6672 13.4415 29.6222C13.3966 29.6222 13.3741 29.6222 13.3291 29.6222C13.8687 29.3971 14.4308 29.1494 14.9929 28.9018C15.4876 28.4965 15.8923 28.0913 16.4769 27.8211C16.5893 27.7761 16.6792 27.8211 16.7242 27.9112C16.8816 27.7311 17.0839 27.5735 17.3762 27.4384L16.6792 29.4871C16.7467 30.0275 16.8366 30.5453 16.8591 31.0856C16.8591 31.5133 17.1064 32.0312 16.5443 32.3463C16.4319 32.8416 16.3195 33.3144 16.2296 33.8097H16.2071C16.3869 34.1925 16.5443 34.5752 16.6343 35.0255C16.6792 35.2731 16.3195 35.3632 16.2745 35.1155C16.2071 34.7328 16.0497 34.3951 15.8923 34.0799C15.8923 34.305 15.9148 34.5302 15.9148 34.7553C15.9148 34.8679 15.8698 34.9579 15.8024 35.0029C15.8473 35.3406 15.8698 35.6783 15.8698 36.0386C15.8698 36.2862 15.5101 36.2862 15.5101 36.0386C15.4201 36.0611 15.3302 36.0611 15.2403 36.0836C15.1503 35.048 15.0604 33.9898 14.9705 32.9542C14.903 32.549 14.858 32.1212 14.8131 31.6934C14.7681 31.8961 14.7456 32.0987 14.7456 32.3013C14.7681 32.8867 14.8131 33.472 14.903 34.0349C15.0379 34.7553 15.2178 35.4532 15.1953 36.1961C15.1953 36.4438 14.8131 36.4438 14.8131 36.1736C14.8356 35.6558 14.7456 35.1605 14.6332 34.6652C14.6107 34.9804 14.5657 35.3181 14.4983 35.6333C14.5657 36.0386 14.6557 36.4438 14.7681 36.804C14.8356 37.0517 14.4983 37.2318 14.4308 36.9841C14.3859 36.8716 14.3634 36.7365 14.3184 36.6014V37.0066ZM14.1161 38.6276C13.3291 38.9203 12.5197 39.213 11.7328 39.5056L11.6428 39.1904C12.4523 38.9203 13.2392 38.6276 14.0486 38.3574C14.0711 38.4475 14.0936 38.5376 14.1161 38.6276ZM11.1482 29.2395C10.9233 29.3295 10.8559 28.9243 11.0807 28.8568C11.7777 28.6091 12.4298 28.2939 13.1268 28.0012C13.6889 27.7761 14.2959 27.596 14.8356 27.3033C15.6225 26.8981 16.1846 26.0651 16.9715 25.6598C17.3762 25.1645 17.7809 24.6467 18.1182 24.0614C18.8602 22.8682 19.5797 21.6524 20.3216 20.4367C20.5015 22.2153 19.7595 23.6786 18.7253 25.0745C19.175 23.9263 19.6021 22.8231 20.0293 21.6975L19.782 21.5624C19.3323 23.1608 18.388 24.3766 17.3762 25.5248C17.4662 25.5698 17.5111 25.7049 17.4437 25.8174C17.8484 25.3446 18.2531 24.8719 18.6578 24.3991C17.3987 26.6504 15.7124 28.3164 13.3066 29.2395C14.3409 28.4965 15.3752 27.8662 16.252 27.0557C16.6568 26.6955 17.0165 26.2902 17.3762 25.885C17.3538 25.885 17.3538 25.9075 17.3313 25.9075C17.0839 25.9975 16.8591 26.1551 16.6567 26.3127C16.5668 26.4028 16.4994 26.4928 16.4094 26.5829C15.1728 27.9562 12.4747 29.3746 11.2606 29.2845C11.5754 29.1494 11.8227 29.0369 12.07 28.9468C12.812 28.6992 13.509 28.384 14.1835 28.0012C13.1493 28.4515 12.1375 28.8793 11.1482 29.2395ZM8.71992 28.7442C8.92227 28.6541 9.14711 28.5866 9.34947 28.5191C9.07966 28.5641 8.78737 28.5641 8.49508 28.474C8.1803 28.5641 7.86552 28.6541 7.55075 28.7442C7.32591 28.8117 7.25846 28.429 7.4833 28.3615C7.6182 28.3164 7.73062 28.2939 7.86553 28.2489C7.82056 28.1363 7.86552 28.0012 8.00043 27.9562C8.49508 27.8211 8.98972 27.596 9.48437 27.3258C9.28201 27.3934 9.10214 27.4159 8.92227 27.4384C10.0914 26.718 11.2831 25.9975 12.4523 25.2996C13.8013 24.309 15.1054 23.2509 16.3869 22.1477C16.5893 21.9901 16.8141 22.2828 16.6118 22.4404C15.6899 23.2284 14.7906 23.9938 13.8463 24.7368C13.6214 24.9619 13.3516 25.187 13.0593 25.4122C13.1717 25.4797 13.1942 25.6823 13.0593 25.7724C12.1375 26.3803 11.3505 27.1908 10.3837 27.7311C9.88908 28.0238 9.39444 28.2039 8.87731 28.3615C9.52934 28.2039 10.2039 28.0688 10.8559 27.9112C10.6985 28.0012 10.5186 28.0913 10.3612 28.1588C10.7435 28.0238 11.1032 27.8887 11.463 27.7086C11.3056 27.7761 11.1257 27.8211 10.9683 27.8662C11.7328 27.3709 12.5197 26.8756 13.2842 26.3578C13.5315 26.1776 13.7338 25.9075 13.9362 25.6823C12.8345 26.3578 11.8227 27.2358 10.7884 27.5285C12.115 26.4703 13.6664 25.3897 15.0604 24.1064C16.4319 22.8456 17.6685 21.3598 18.9501 19.9864C18.9276 20.1215 18.8827 20.2116 18.8152 20.3016C18.1857 21.1121 17.5561 21.9001 16.9266 22.7106C17.3538 22.3053 17.7809 21.9226 18.2081 21.5174C18.5904 21.0221 18.9726 20.5042 19.3773 20.0089C19.4672 19.8964 19.6921 19.8964 19.8495 19.8514C19.9844 19.8063 20.1193 19.7388 20.2542 19.6938C20.2767 19.9864 20.2992 20.2116 20.3216 20.4367C20.1193 20.5493 19.827 20.6168 19.7371 20.7969C18.8152 22.3954 17.691 23.8362 16.4994 25.2321C15.2852 26.6729 13.8463 27.686 12.16 28.3615L13.5989 27.3258C12.4073 27.8436 11.2156 28.384 10.024 28.8793C9.55182 29.0594 9.01221 29.0819 8.51756 29.1945C8.6075 29.1719 8.69743 29.1494 8.78737 29.1044C8.6075 29.0594 8.54005 28.8117 8.71992 28.7442ZM25.6728 13.48C26.1675 13.4125 26.6396 13.2549 27.1343 13.1198C29.2927 12.557 31.4512 11.9716 33.6097 11.4088C33.5422 11.724 33.4748 12.0392 33.3848 12.4894C30.4394 13.2324 27.4715 13.9978 24.4137 14.7858C24.6161 13.9303 25.0208 13.5701 25.6728 13.48ZM24.751 12.9172L21.6932 11.8591C21.7156 11.814 21.7156 11.769 21.7381 11.724L24.7959 12.7821C24.7735 12.8271 24.7735 12.8722 24.751 12.9172ZM19.1974 9.69776C18.9726 9.67525 18.7253 9.63023 18.5004 9.60771C18.5004 9.51766 18.5229 9.4276 18.5229 9.33755C19.7146 9.29252 20.8388 9.63022 22.0079 9.81033C22.0079 9.87787 21.9854 9.94541 21.9854 10.0355C22.3452 9.99044 22.7049 9.9229 22.9523 9.9229C24.0989 9.99044 25.2681 10.148 26.3923 10.3281C26.5722 10.3507 26.5947 10.5983 26.4822 10.6884L26.752 10.7784C26.7296 10.846 26.6846 10.936 26.6621 11.0035C26.3698 10.8685 26.0775 10.7559 25.7628 10.6208C25.1782 10.5308 24.5711 10.4182 23.964 10.3507L26.1899 11.1161C26.1899 11.1837 26.1675 11.2287 26.1675 11.2962L23.4919 10.3732C23.4919 10.3507 23.5144 10.3281 23.5144 10.3056C23.1321 10.2831 22.7499 10.2831 22.3902 10.3281C23.2895 10.4632 24.1664 10.6433 25.0433 10.936C25.1782 10.981 25.1782 11.1386 25.1332 11.2287C25.403 11.2962 25.6728 11.3863 25.9651 11.4538C25.9426 11.5439 25.9201 11.6114 25.8977 11.7015C24.9084 11.4088 23.9191 11.1386 22.9298 10.846C22.5475 10.7784 22.1653 10.7109 21.7606 10.6433C21.5807 10.5983 21.3784 10.5533 21.1985 10.5083C20.2092 10.3507 19.1974 10.1705 18.2081 10.013C18.2081 9.94541 18.2306 9.87787 18.2306 9.81033L19.0625 9.94541C19.0625 9.85536 19.1075 9.7653 19.1974 9.69776ZM21.8281 8.30192C22.2777 8.30192 22.7049 8.32444 23.1321 8.39198C23.0647 8.27941 23.1321 8.07679 23.312 8.0993C24.706 8.21187 26.0775 8.50455 27.3816 8.97733C27.4715 9.02236 27.494 9.0899 27.494 9.17995L27.7638 9.27001L27.7189 9.49514C27.3141 9.5852 26.9769 9.36006 26.6396 9.13493C25.7852 8.86477 24.9308 8.68466 24.0315 8.57209C25.2007 8.86477 26.3249 9.33754 27.494 9.74279C27.2917 10.058 27.1118 10.3281 26.9994 10.4857C25.3805 10.0355 23.8067 9.5852 22.2553 9.15744C21.873 9.11241 21.5133 9.0899 21.1311 9.0899C20.9737 9.0899 20.9287 8.90979 20.9962 8.79722C20.6814 8.70717 20.3666 8.61711 20.0518 8.52706C20.7488 8.52706 21.4234 8.61711 22.0979 8.72968C22.66 8.77471 23.2221 8.86476 23.7842 8.97733L21.8281 8.30192ZM38.5786 8.5946C38.4662 8.61712 38.2863 8.52706 38.2413 8.41449C38.1739 8.27941 38.1514 7.94171 38.1739 7.9192C38.5786 7.73909 38.9833 7.55898 39.388 7.51395C39.5679 7.49144 39.7478 7.85166 40.0176 8.12182C39.433 8.32444 39.0058 8.48204 38.5786 8.5946ZM40.3324 9.20247C39.8377 9.31503 39.388 9.4276 38.9384 9.51765C38.6685 8.77471 39.2306 8.7522 39.6129 8.5946C40.13 8.39198 40.2424 8.72968 40.3324 9.20247ZM38.5561 7.35636C38.2189 7.22128 37.7917 7.85166 37.5668 7.24379C37.2071 8.0993 36.4426 7.73909 35.8131 8.03176C35.8131 7.67155 35.8356 7.37887 35.8356 6.95111C36.4651 6.95111 37.0272 6.95112 37.5893 6.9286C38.1289 6.72598 38.6685 6.50084 39.2531 6.27571C39.2981 6.61341 39.3431 6.83855 39.388 7.10871C39.0733 7.24379 38.7585 7.44641 38.5561 7.35636ZM36.3527 12.602C36.2852 12.1968 36.3752 11.9266 36.8249 11.814C37.6793 11.6114 38.5112 11.3638 39.388 11.1386C39.4105 11.814 39.7703 11.8816 36.3527 12.602ZM39.478 12.2418C39.6354 12.7596 39.478 12.9847 38.9833 13.0298C38.3313 13.0973 37.6792 13.2324 37.0272 13.3449C37.0047 13.2549 36.9823 13.1648 36.9598 13.0748C37.7017 12.4669 38.6236 12.4219 39.478 12.2418ZM36.4426 13.1648C36.4426 13.2999 36.4651 13.5251 36.4201 13.5476C35.3409 13.9303 34.2392 14.268 33.16 14.6282C33.115 14.5157 33.07 14.4256 33.0251 14.313C33.4972 13.7952 34.1718 13.7952 34.7563 13.5926C35.2959 13.39 35.858 13.2999 36.4426 13.1648ZM35.206 11.3187C35.251 11.2737 35.3409 11.0936 35.4533 10.936C35.7681 11.4313 35.8356 10.6433 36.0604 10.7559C35.948 11.0486 35.903 11.4988 35.7007 11.6114C35.0486 11.9491 34.3516 12.1292 33.6546 12.3994C33.6321 12.0167 33.6097 11.724 33.5872 11.4088C34.1043 11.4538 34.6664 10.8459 35.206 11.3187ZM33.0925 11.2962C33.07 10.4407 33.6096 10.1705 35.1835 10.0355C35.206 10.1705 35.2285 10.2831 35.251 10.4182C34.554 10.7109 33.8345 10.981 33.0925 11.2962ZM35.6557 10.5083C35.5433 10.5308 35.4084 10.4632 35.2735 10.4182C35.3859 10.2381 35.4758 9.94541 35.6107 9.87787C36.3527 9.60771 37.1172 9.40509 37.8591 9.20247C37.9041 9.29252 37.9715 9.38257 38.0165 9.45011C37.8591 9.63022 37.7242 9.90038 37.5443 9.96792C36.9373 10.1931 36.2852 10.3507 35.6557 10.5083ZM36.0829 8.79722C36.1953 8.14433 36.7124 8.16685 37.1396 8.0993C37.2745 8.07679 37.4544 8.27942 37.5893 8.36947C37.6343 8.23439 37.7017 8.05428 37.7917 7.87417C37.8591 7.89668 37.9041 7.89668 37.9715 7.9192C37.9715 8.18936 37.9491 8.45952 37.9491 8.79722C37.342 8.97733 36.7574 9.13492 36.1728 9.31503C36.1279 9.11241 36.1054 8.95482 36.0829 8.79722ZM36.0604 8.79722C35.948 9.02236 35.8581 9.33754 35.7007 9.40508C34.7788 9.72027 33.857 9.94541 32.9127 10.1931C32.8677 10.1255 32.8002 10.058 32.7553 9.96792C32.9127 9.72027 33.0476 9.31503 33.2499 9.24749C34.0818 8.95482 34.9362 8.77471 35.7681 8.57209C35.858 8.54958 35.9705 8.70717 36.0604 8.79722ZM35.2959 8.27941C32.7553 8.99984 30.2595 9.72028 27.6064 10.4632C28.0561 9.60771 28.4833 9.02236 29.3152 8.81974C30.5294 8.54958 31.7435 8.16685 32.9576 7.82914C32.9576 8.12182 32.9576 8.36947 32.9576 8.5946C33.2049 6.97363 34.509 7.71658 35.2959 7.22128C35.3184 7.60401 35.2959 7.91919 35.2959 8.27941ZM31.2713 10.6208C29.7424 11.0261 28.2135 11.4763 26.5722 11.9491C27.0219 11.0035 27.584 10.5308 28.4383 10.4857C28.8206 10.4632 29.1803 10.3056 29.5625 10.1931C30.3045 9.99044 31.0465 9.81033 31.766 9.60771C31.9234 10.2156 31.8334 10.4857 31.2713 10.6208ZM29.0454 7.44641C27.6064 6.9286 25.9651 6.81603 24.4362 7.06368C24.1889 7.10871 24.1439 6.70347 24.3687 6.68095C24.5486 6.65844 24.7285 6.63593 24.9084 6.61341C25.5379 6.36576 26.1225 6.45582 26.7071 6.56839C27.5615 6.61341 28.3934 6.79352 29.1803 7.06368C29.2028 7.06368 29.2253 7.0862 29.2478 7.10871C29.4726 7.15374 29.7199 7.22128 29.9897 7.26631C29.6525 7.55898 29.4726 7.69406 29.2478 7.89668C29.2253 7.69406 29.1803 7.55898 29.0904 7.44641C29.0679 7.46893 29.0454 7.46893 29.0454 7.44641ZM28.0336 8.03176C28.2585 8.05428 28.5058 8.07679 28.7981 8.0993C28.4159 8.63963 28.146 8.54957 27.8987 8.41449C26.5947 8.03176 25.2007 7.96422 23.8741 7.71658C23.6493 7.67155 23.6717 7.2663 23.9191 7.31133C25.2681 7.58149 26.6846 7.62652 28.0336 8.03176ZM22.1878 9.38258L22.1428 9.54017C21.1985 9.38257 20.2542 9.22498 19.3099 9.0899C19.3323 8.99984 19.3548 8.88728 19.3773 8.79722C20.3216 8.97733 21.266 9.17996 22.1878 9.38258ZM26.6396 12.1517C27.1118 12.1292 27.584 11.9941 28.0336 11.8816C29.2702 11.5439 30.4844 11.1837 31.721 10.8685C32.1482 10.7559 32.6204 10.5758 32.9127 11.3412C30.327 12.0167 27.7863 12.6921 25.1332 13.39C25.5154 12.602 25.8977 12.1742 26.6396 12.1517ZM24.6835 15.011C25.8302 14.7183 26.9769 14.4706 28.1236 14.1779C30.6867 13.5251 33.2274 12.8271 35.7681 12.1742C35.8131 12.2193 35.8581 12.2868 35.9255 12.3318C35.7681 12.557 35.6332 12.8947 35.4309 12.9847C34.7338 13.2549 33.9919 13.4575 33.2724 13.6376C33.07 13.6827 32.8227 13.5476 32.6428 13.5025C32.463 13.6376 32.3056 13.8628 32.1032 13.9078C30.6193 14.3355 29.1129 14.7633 27.6289 15.146C26.4148 15.4612 25.1782 15.7764 23.9191 16.0691C24.0315 15.1911 24.0315 15.1685 24.6835 15.011ZM24.4362 16.2717C25.358 16.0916 26.2799 15.8214 27.2017 15.5738C28.933 15.1235 30.6643 14.6507 32.418 14.2005C32.463 14.2905 32.5079 14.3581 32.5754 14.4481C32.418 14.6057 32.2831 14.8534 32.1032 14.9209C31.3837 15.1911 30.6643 15.3937 29.9448 15.6188C27.8987 16.2492 25.8527 16.8571 23.7617 17.4874C23.6268 16.677 23.8516 16.3843 24.4362 16.2717ZM23.8741 17.7351C26.7071 16.8345 29.5625 16.0466 32.3955 15.2361C32.5529 15.1911 32.7553 15.2586 32.8677 15.2586C34.0593 14.4931 35.3859 14.2905 36.6675 13.9978C36.7124 14.3581 36.7574 14.6732 36.8024 15.1235C32.1932 16.4068 27.584 17.7126 22.9747 18.9958C22.9298 18.9508 22.8848 18.9058 22.8623 18.8608C23.1771 18.478 23.4694 17.8702 23.8741 17.7351ZM21.7606 16.5419C22.0529 15.7314 22.4801 15.2361 23.2895 15.4387C23.312 16.2042 22.9298 16.4743 21.7606 16.5419ZM22.7049 16.767C22.6375 17.7801 22.4351 17.9377 20.7713 18.1628C21.0861 16.9696 21.4009 16.7445 22.7049 16.767ZM22.5251 18.0728C22.4801 19.2435 22.3677 19.3335 20.6814 19.5812C20.6589 19.2435 20.6364 18.9283 20.6139 18.478C21.3109 18.3429 21.8955 18.2079 22.5251 18.0728ZM21.0636 21.0446C21.3559 21.6524 21.266 22.1477 20.5914 22.4404L21.0636 21.0446ZM21.3334 22.5305C21.3559 22.6655 21.3784 22.8231 21.4009 22.9582C21.5358 22.8231 21.6482 22.7106 21.7606 22.598C21.6707 23.476 21.0411 23.4985 20.4341 23.6336C20.6814 22.553 20.6814 22.553 21.3334 22.5305ZM21.7381 23.4985C21.8955 23.7462 22.0304 23.9488 22.2328 24.2865C22.1878 23.0933 22.9972 23.1158 23.6043 22.9357C26.145 22.1477 28.7082 21.4048 31.2713 20.6393C33.8345 19.8739 36.3752 19.0859 38.9159 18.3204C39.2306 18.9958 38.736 19.0859 38.3763 19.221C37.0722 19.6712 35.7456 20.144 34.4191 20.5493C29.9223 21.9676 25.403 23.386 20.8837 24.8043C20.569 24.8944 20.2542 24.8719 19.9169 24.9169C19.9844 23.3409 21.1311 23.9038 21.7381 23.4985ZM37.7017 20.6843C37.2745 20.7744 36.8698 20.932 36.4426 21.0671C36.4651 19.8063 37.4769 20.054 38.1739 19.7163C38.2413 20.1891 38.2863 20.5718 37.7017 20.6843ZM38.1964 20.977C38.1514 22.0126 38.1514 22.0126 37.0497 22.1477C36.8473 21.1571 37.5443 21.1121 38.1964 20.977ZM33.2049 22.2378C29.3827 23.4985 25.5604 24.6918 21.7381 25.93C21.0186 26.1551 20.7938 25.9975 20.6814 25.1645C25.9426 23.5436 31.2039 21.9226 36.4426 20.3241C36.4426 20.5718 36.4426 20.8194 36.4651 21.0671C35.8356 21.3147 35.206 21.5624 34.509 21.8325C34.5315 21.6299 34.5315 21.5173 34.5315 21.4948C34.1268 21.6975 33.6996 22.0802 33.2049 22.2378ZM24.661 30.6128C27.8538 29.3971 31.069 28.1813 34.2842 26.9431C34.3741 27.2808 34.4416 27.4834 34.509 27.7311C31.0465 28.9468 27.6289 30.1625 24.1664 31.3783C23.9191 30.8154 24.3238 30.7254 24.661 30.6128ZM24.0765 30.5002C23.9865 30.185 23.8966 29.9374 23.7842 29.5997C27.2917 28.3615 30.7542 27.1457 34.3291 25.885C34.3291 26.7855 33.6996 26.7855 33.3174 26.9206C30.9341 27.8887 28.5283 28.8117 26.1225 29.7348C25.448 30.0049 24.7735 30.2526 24.0765 30.5002ZM25.0433 31.4008C29.0004 30.0275 32.9576 28.6316 36.9148 27.2808C37.1621 27.1908 37.4319 27.2808 37.6343 26.8756C37.7692 27.5285 37.5668 27.7986 37.0722 27.9562C35.6557 28.429 34.2842 28.9693 32.8677 29.4646C30.1246 30.4327 27.3816 31.3783 24.6386 32.3463C24.5936 32.3689 24.5711 32.3463 24.5037 32.3463C24.4362 32.1888 24.3463 32.0312 24.2114 31.7835C24.5261 31.6259 24.7735 31.4908 25.0433 31.4008ZM36.6675 25.6598C36.6225 25.0295 37.0272 24.7368 38.3763 24.5116C38.4887 25.0745 38.1064 25.2096 37.7467 25.3446C37.387 25.4797 37.0047 25.5698 36.6675 25.6598ZM36.8473 26.2002C36.8473 26.9656 36.5326 27.2133 35.0037 27.5059C34.7788 26.9206 34.9362 26.5604 35.5658 26.4478C36.0154 26.4028 36.4202 26.2902 36.8473 26.2002ZM34.9362 26.3127C34.9812 25.2546 35.7906 25.5473 36.1503 25.2321C36.3077 25.4572 36.4202 25.5923 36.6 25.8174C35.9705 26.0201 35.4758 26.1551 34.9362 26.3127ZM35.6557 25.052C34.9137 25.3221 34.1493 25.5698 33.4073 25.8399C31.8784 26.4253 30.3495 26.9206 28.8206 27.4834C27.1792 28.0688 25.5604 28.6766 23.9191 29.262C23.8291 28.5866 24.1214 28.2939 24.6835 28.1138C26.9544 27.3258 29.2028 26.4928 31.4737 25.6823C33.115 25.097 34.7563 24.5342 36.4651 23.9488C36.3527 24.8043 36.3527 24.8043 35.6557 25.052ZM23.8066 26.8305C26.9769 25.7724 30.1022 24.7368 33.2724 23.6561C33.2724 24.0839 33.2724 24.3315 33.2724 24.6467C30.1471 25.7724 27.0668 26.8756 23.964 27.9787C23.9416 27.596 23.8741 27.2358 23.8066 26.8305ZM32.8002 23.4985C30.0572 24.4666 27.2917 25.3672 24.5486 26.3352C23.8066 26.6054 23.267 26.5379 22.7949 25.9075C26.3923 24.7818 29.9673 23.6561 33.6097 22.5305C33.7895 23.2734 33.16 23.3635 32.8002 23.4985ZM17.736 26.4928C18.2981 25.885 18.7253 25.4347 19.175 24.9619C18.9726 25.4572 18.7927 25.9075 18.5904 26.4028C18.388 26.4253 18.1632 26.4478 17.736 26.4928ZM18.433 28.7667L18.2531 28.8117C18.2081 28.3389 18.1632 27.8436 18.0957 27.3258C17.9833 27.4609 17.9159 27.551 17.8259 27.6635C17.781 27.3709 17.7585 27.1232 17.736 26.853C17.9608 26.8305 18.1182 26.808 18.343 26.7855C18.3655 27.4609 18.388 28.1138 18.433 28.7667ZM19.7595 26.808C20.0069 26.8531 20.2542 26.853 20.5465 26.8981C20.5465 26.8756 20.5465 27.0106 20.524 27.1682C20.6364 27.1682 20.7488 27.1457 21.0636 27.1232C20.3666 27.9562 19.5347 27.7536 18.9051 28.2264C18.8377 27.2808 19.2199 26.7405 19.7595 26.808ZM20.2767 25.6823C19.8944 26.1326 19.5572 26.5153 19.2424 26.9206C19.2199 25.6373 19.4448 25.3672 20.2767 25.6823ZM20.9287 27.7986C21.0636 27.7536 21.2884 27.7311 21.3784 27.8211C21.7606 28.1363 21.9854 28.0688 22.1204 27.3934C22.1878 27.8887 22.2103 28.2264 22.2553 28.6316C21.2884 28.9243 20.2992 29.1945 19.3099 29.4871C19.1525 29.1494 18.9951 28.8342 18.7927 28.384C19.5797 28.1813 20.2542 27.9787 20.9287 27.7986ZM19.7371 30.7479C19.6471 30.3877 19.5797 30.0725 19.4897 29.7123C20.479 29.4421 21.4233 29.1945 22.3452 28.9693C22.5251 29.1494 22.6825 29.3295 22.9747 29.6447C21.8505 30.0275 20.7938 30.3877 19.7371 30.7479ZM22.9972 29.9824C23.0647 30.3201 23.1096 30.5678 23.1546 30.883C21.8955 31.2882 20.6814 31.6935 19.4448 32.0987L19.3099 31.9636C19.4897 31.6259 19.6021 31.1081 19.8495 31.018C20.8837 30.5903 21.9405 30.3201 22.9972 29.9824ZM19.6471 32.2788C20.8163 31.851 22.0304 31.5584 23.4019 31.1531C23.2221 31.4908 23.1546 31.806 23.0197 31.8736C21.7831 32.4139 20.5465 32.9092 19.2874 33.427C19.2199 33.3595 19.175 33.2919 19.1075 33.2469C19.2874 32.9092 19.3998 32.3689 19.6471 32.2788ZM36.6 21.5849C36.6 21.81 36.6 22.0577 36.5775 22.3278C36.0379 22.4854 35.4983 22.643 34.9137 22.8231C34.8688 21.9226 35.161 21.7425 36.6 21.5849ZM16.3645 36.5113C15.8248 36.6689 15.4651 36.7815 15.0829 36.8941L15.1278 37.0517C15.555 36.9841 15.9597 36.9166 16.3869 36.849C16.3869 36.9391 16.4094 37.0291 16.4094 37.0967C15.8024 37.2543 15.1953 37.3894 14.4983 37.547C14.8805 36.3763 14.8805 36.3763 16.3645 36.5113ZM18.3206 37.592C18.3206 37.6595 18.343 37.7271 18.343 37.7946C17.3987 37.9747 16.4319 38.1323 15.4876 38.3124C15.4876 38.2449 15.4651 38.1999 15.4651 38.1323C16.4094 37.9522 17.3762 37.7721 18.3206 37.592ZM17.1964 36.9841C17.1739 36.8716 17.1739 36.759 17.1514 36.6464C17.7135 36.5564 18.2981 36.4438 18.8602 36.3763C18.8827 36.3763 18.9501 36.6014 18.9951 36.7815C18.3655 36.849 17.7809 36.9166 17.1964 36.9841ZM17.2638 35.2956C17.8259 34.9804 18.2306 34.7328 18.6353 34.5076C18.7028 34.5752 18.7702 34.6427 18.8377 34.7103C18.6578 35.0255 18.5229 35.4757 18.2756 35.6108C18.0508 35.7234 17.691 35.4532 17.2638 35.2956ZM18.8152 31.9861C18.7927 32.0312 18.8377 32.1212 18.8377 32.1887C18.8152 32.4139 18.7702 32.639 18.7253 32.8642C18.6129 32.7741 18.5004 32.639 18.3655 32.594C18.1857 32.549 17.9833 32.594 17.7809 32.6165C17.5561 32.639 17.3313 32.684 17.1064 32.7066C17.1064 32.6615 17.0839 32.6165 17.0839 32.5715C17.4662 32.4589 17.8484 32.3463 18.388 32.1662C18.0732 32.0987 17.9383 32.0762 17.8034 32.0312C17.8034 31.9861 17.7809 31.9186 17.7809 31.8736C17.9833 31.8285 18.1632 31.806 18.3655 31.761C18.343 31.716 18.3206 31.6484 18.2981 31.6034C18.0058 31.6259 17.7135 31.6259 17.4212 31.6484C17.4212 31.6034 17.4212 31.5584 17.4212 31.5133C17.7135 31.4458 18.0058 31.3783 18.2756 31.2882C18.2756 31.2432 18.2531 31.1982 18.2531 31.1531C18.0283 31.1531 17.8034 31.1756 17.4437 31.1982C18.0058 30.6803 18.4555 30.2976 18.9501 29.8248C19.3099 30.6353 19.2874 31.3332 18.8152 31.9861ZM19.5122 33.5846C20.5015 33.1568 21.5133 32.8191 22.5026 32.3914C22.9523 32.1887 23.267 32.2113 23.4919 32.9092C22.0304 33.4045 20.6364 33.8773 19.2199 34.35C19.175 34.2825 19.1075 34.215 19.0625 34.1474C19.2199 33.9673 19.3323 33.6521 19.5122 33.5846ZM19.2199 34.7103C21.1311 34.0349 22.9073 33.382 24.706 32.7516C25.6278 32.4139 26.5722 32.1437 27.494 31.806C29.7424 30.9955 31.9683 30.185 34.2167 29.3971C34.3741 29.352 34.554 29.4421 34.7338 29.4871C34.6664 30.095 34.1942 30.2526 33.7895 30.4102C31.7435 31.1756 29.6974 31.9186 27.6514 32.639C24.8634 33.6071 22.0754 34.5076 19.1974 35.4757C19.1974 35.093 19.1974 34.8228 19.2199 34.7103ZM34.9587 30.883C34.8912 30.8154 34.8238 30.7479 34.7563 30.6803C34.8912 30.5002 35.0037 30.2301 35.1835 30.14C36.3077 29.6672 37.4544 29.262 38.5786 28.7667C39.0508 28.5641 39.1632 28.7667 39.2082 29.217C37.7692 29.8023 36.3527 30.3426 34.9587 30.883ZM35.251 29.8248C34.8463 30.0049 34.8688 29.6447 34.7338 29.4646C34.8912 29.2845 35.0486 29.0369 35.251 28.9693C36.1728 28.6091 37.1171 28.3389 38.0165 27.9787C38.4887 27.7761 38.6461 27.9562 38.781 28.4065C37.5893 28.8793 36.4202 29.3295 35.251 29.8248ZM36.8249 24.6692C36.5326 23.7912 36.8249 23.7012 38.691 23.2734C38.5561 24.6692 37.3645 24.0839 36.8249 24.6692ZM38.2863 22.9582C37.4769 23.2734 36.6675 23.476 35.858 23.7462C35.3859 23.9038 34.9137 24.0839 34.464 24.264C34.3516 24.0389 34.2617 23.9038 34.1942 23.7462C35.6782 22.7106 37.342 22.643 38.8709 22.0577C38.9384 22.1477 38.9833 22.2378 39.0508 22.3503C38.781 22.553 38.5561 22.8456 38.2863 22.9582ZM38.4887 18.0953C35.7456 18.9508 32.9801 19.7838 30.2371 20.6393C27.6739 21.4273 25.1332 22.1928 22.57 22.9582C22.1653 23.0708 21.918 22.9807 21.8056 22.5755C22.1428 22.3954 22.4576 22.1477 22.7949 22.0352C26.9094 20.7744 31.0015 19.5362 35.1161 18.2979C36.4876 17.8927 37.8591 17.5099 39.2531 17.1047C39.4105 17.8927 38.9159 17.9602 38.4887 18.0953ZM38.5112 16.9021C35.206 17.9377 31.8784 18.9508 28.5732 19.9639C26.4822 20.5943 24.3912 21.2247 22.2777 21.8325C21.6032 22.0352 21.3784 21.855 21.4009 21.1121C27.5615 19.6262 33.5197 17.2623 39.8152 15.9565C39.5679 16.7895 38.9608 16.767 38.5112 16.9021ZM39.1857 15.6413C37.9491 15.9565 36.7124 16.1817 35.4758 16.5419C30.7767 17.9152 26.1 19.311 21.4009 20.7294C21.266 20.7744 21.176 20.9095 21.0636 20.9995C20.6139 20.9995 20.7039 20.6393 20.7039 20.3466C20.7039 19.9864 20.8388 19.8063 21.1985 19.6938C23.9865 18.9508 26.7745 18.1628 29.5401 17.3974C31.6985 16.812 33.8345 16.2267 35.993 15.6413C37.2745 15.2811 38.5786 14.9434 39.8602 14.5832C40.1075 15.4162 39.5904 15.5288 39.1857 15.6413ZM39.9052 14.223C38.9383 14.4706 37.9715 14.7408 36.9148 15.011C37.0947 14.5157 37.1396 13.8628 37.3645 13.7952C38.1964 13.5025 39.0733 13.39 39.9726 13.2099C39.9501 13.6376 39.9276 13.9303 39.9052 14.223ZM39.7927 10.5083C39.6578 10.4857 39.5229 10.6208 39.3655 10.6658C38.2638 10.981 37.1846 11.2962 36.1054 11.6114C36.0829 11.2512 36.0829 11.0035 36.0604 10.7334C36.8923 10.5083 37.7017 10.2831 38.5336 10.0805C38.5561 10.2606 38.5786 10.4182 38.6461 10.7109C38.736 10.3281 38.8034 10.103 38.8484 9.90038C39.4105 9.7653 39.9052 9.63023 40.4448 9.49514C40.5347 10.148 40.4897 10.5758 39.7927 10.5083ZM42.6032 2.17825C42.873 2.5835 43.5251 2.67355 43.0754 3.32644C42.0861 4.69977 41.0968 6.07309 40.1075 7.46893C39.7927 7.10871 39.433 6.65844 39.7927 6.11812C40.6696 4.81233 41.6364 3.55158 42.6032 2.17825ZM42.3784 1.99815C41.4341 3.30393 40.5122 4.60971 39.5904 5.9155C39.3431 5.66785 39.1182 5.46522 38.8709 5.21758C39.7478 3.79923 40.6022 2.4259 41.479 1.00755C41.7713 1.36777 42.0411 1.66044 42.3784 1.99815ZM40.6022 0.534768C40.7595 0.602308 40.9169 0.669852 41.2317 0.804933C40.3548 2.2458 39.5005 3.64163 38.6461 5.03747C38.1739 4.65474 38.1289 4.2495 38.4887 3.70917C39.1632 2.69606 39.7927 1.63793 40.4673 0.602309C40.4897 0.602309 40.5347 0.579795 40.6022 0.534768ZM40.1525 0.557283C39.478 1.63793 38.8034 2.71858 38.1289 3.79923C37.7467 3.37147 37.6118 2.98874 38.0615 2.44842C38.3763 2.0882 38.6236 1.66044 38.8034 1.21017C39.0733 0.534768 39.5005 0.377175 40.1525 0.557283ZM38.5112 0.692365C38.5561 0.759906 38.6011 0.80493 38.6461 0.87247C38.2863 1.50285 37.9041 2.13323 37.5219 2.80863C37.2071 2.65104 36.9148 2.49344 36.5775 2.31334C37.2745 1.7505 37.8816 1.23269 38.5112 0.692365ZM36.6225 2.85366C35.948 3.01125 35.3409 3.14633 34.7114 3.30393C35.296 2.65104 36.3302 2.47093 36.6225 2.85366ZM33.1825 4.51966C33.4972 3.79923 34.1043 3.68666 34.6889 3.55158C35.3409 3.39398 35.9705 3.2589 36.6225 3.10131C37.1396 2.96623 37.4094 3.16885 37.5443 3.7542C35.858 4.18196 34.2167 4.60971 32.5979 5.03747C32.5979 5.01495 32.5979 4.96993 32.5979 4.94741C32.7777 4.81233 33.0925 4.72228 33.1825 4.51966ZM32.8227 5.2626C33.7446 5.12752 34.6889 4.83485 35.6107 4.60971C36.3302 4.4296 37.0497 4.20447 37.7467 4.00185C37.8366 4.33955 37.9266 4.5872 38.0165 4.94741C35.5208 5.60031 33.07 6.2532 30.6193 6.88358C31.2713 6.18566 31.8334 5.4202 32.8227 5.2626ZM30.5968 7.26631C31.721 6.83855 32.9127 6.61342 34.0818 6.32074C34.2617 6.27571 34.4865 6.45582 34.6439 6.41079C35.5433 6.11812 36.4202 5.82544 37.297 5.46523C38.084 5.15004 38.6011 5.39769 39.0733 6.02806C37.4994 6.70347 35.8356 6.47833 34.2842 7.0862C33.767 7.28882 33.1825 7.19877 32.6653 7.37887C31.4962 7.7616 30.3495 8.21187 29.2028 8.66214C29.63 8.07679 30.0572 7.46893 30.5968 7.26631ZM26.6846 6.0956C26.7071 6.00555 26.7745 5.91549 26.8869 5.93801C27.0219 5.93801 27.1792 5.96052 27.3141 5.96052C26.9994 5.89298 26.6846 5.84795 26.3698 5.84795C26.3923 5.73539 26.4148 5.64533 26.4373 5.53277C27.7638 5.80293 29.0679 6.07309 30.3944 6.34325C30.372 6.47833 30.3495 6.61341 30.3045 6.72598C30.1246 6.68095 29.9448 6.65844 29.7424 6.61341C29.6974 6.65844 29.63 6.70347 29.5625 6.68095C29.1803 6.5909 28.7981 6.52336 28.4159 6.47833C28.8655 6.61341 29.2927 6.79352 29.7424 6.99614C28.4383 6.70347 27.1343 6.43331 25.8077 6.14063C26.1 6.07309 26.3923 6.07309 26.6846 6.0956ZM14.9255 7.40138C17.0165 7.01866 19.085 6.65844 21.176 6.27571L21.1985 6.45582C20.8613 6.54587 20.524 6.61341 20.1867 6.70347C18.7028 7.0862 17.2189 7.46893 15.7349 7.80663C15.4651 7.87417 15.1728 7.71658 14.8805 7.67155C14.903 7.55898 14.903 7.46892 14.9255 7.40138ZM21.8955 7.37887C20.569 7.64904 19.2424 7.87417 17.9383 8.18936C17.3762 8.32444 16.949 8.27941 16.6118 7.69406C16.8141 7.73909 16.9715 7.80663 17.1289 7.78412C18.0058 7.53647 18.8827 7.28882 19.7595 6.99614C20.569 6.72598 21.2884 6.70347 21.8955 7.37887ZM14.9255 8.12182C15.555 8.18936 16.297 7.4239 16.8141 8.39198C16.6118 8.48203 16.4319 8.57209 16.252 8.66214C17.1289 8.50455 18.0058 8.34695 18.8827 8.16685C19.9169 7.94171 20.9737 7.64903 22.0079 7.40138C21.963 7.40138 21.918 7.37887 21.873 7.37887C21.6932 7.13122 21.5358 6.88358 21.3334 6.5909C22.7274 6.27571 24.0765 5.96052 25.4255 5.66785C25.448 5.73539 25.448 5.82544 25.4705 5.89298C25.3131 5.96052 25.1332 6.05058 24.9758 6.11812C23.9865 6.54587 22.9747 6.97363 21.9854 7.4239C22.2553 7.40139 22.5475 7.37887 22.8174 7.35636C22.8398 7.44641 22.8848 7.53647 22.9073 7.62652C22.66 7.69406 22.3902 7.82914 22.1428 7.85165C20.7488 7.94171 19.4897 8.52706 18.2081 9.11241C17.6011 9.38257 16.8591 9.31503 16.2071 9.47263C15.7124 9.60771 15.5101 9.51766 15.4651 8.93231C15.2403 8.7522 15.0154 8.57209 14.7906 8.39198C14.8356 8.30192 14.8805 8.21187 14.9255 8.12182ZM12.115 8.93231C12.3398 8.99985 12.5422 9.0899 12.7445 9.20247C12.6771 9.06738 12.7895 8.84225 12.9694 8.90979C13.4191 9.0899 13.7563 9.47263 14.0036 9.90038C13.9812 9.83284 13.9812 9.74279 14.0261 9.69776C13.8013 9.49514 13.5989 9.29252 13.464 8.99984C13.3516 8.77471 13.6889 8.5946 13.8013 8.81974C13.9362 9.13493 14.206 9.33755 14.4533 9.56268C14.4983 9.60771 14.5208 9.67525 14.5208 9.72028C15.4426 10.013 16.3869 10.2156 17.3313 10.3957C18.0957 10.1705 18.9276 10.2606 19.5122 10.5983C19.2199 10.5983 18.9276 10.5983 18.6129 10.5983C19.0401 10.6658 19.4448 10.7109 19.872 10.7559C20.6814 10.8459 21.4458 11.0261 22.2103 11.2512C23.2446 11.5439 24.2788 11.8365 25.3131 12.1292C25.2906 12.2643 25.2456 12.3769 25.2231 12.512C25.1107 12.4894 24.9983 12.4669 24.8859 12.4444C24.8409 12.4894 24.7735 12.512 24.706 12.4894C22.9298 11.8591 21.221 11.3187 19.3323 11.0936C17.5561 10.8685 15.8024 10.5983 14.1161 10.0355C14.0711 10.013 14.0486 10.0129 14.0261 9.96792C14.0486 10.0129 14.0936 10.0805 14.1161 10.1255C14.1835 10.2381 14.1161 10.3507 14.0261 10.3957C14.1161 10.5083 14.206 10.6433 14.2959 10.7784C14.3409 10.846 14.3409 10.936 14.2959 10.981C14.3184 11.0486 14.3634 11.0936 14.3859 11.1611C14.3409 11.1161 14.2959 11.0936 14.251 11.0486C14.1835 11.1386 14.0711 11.1611 13.9812 11.0486C13.8238 10.8009 13.6439 10.5533 13.4191 10.3281C13.2167 10.148 13.0368 9.99044 12.8345 9.81033C12.5647 9.60771 12.2724 9.45012 11.9576 9.36006C11.7552 9.24749 11.8902 8.86477 12.115 8.93231ZM20.9062 11.9941C20.8837 12.0617 20.8612 12.1517 20.8388 12.2193C19.2874 11.8591 17.736 11.4988 16.1621 11.1161C16.1846 11.0261 16.2071 10.9585 16.2296 10.8685C17.8034 11.2512 19.3548 11.6114 20.9062 11.9941ZM11.7103 9.40508C11.7103 9.4276 11.7328 9.4276 11.7553 9.45011C11.8452 9.36006 11.9801 9.31503 12.115 9.40508C12.7445 9.81033 13.2392 10.3957 13.7563 10.9135L13.7788 10.936C13.9812 11.1611 14.161 11.4088 14.3409 11.6789C14.1835 11.5439 14.0486 11.4313 13.8912 11.2962C13.9587 11.3863 14.0036 11.4988 14.0486 11.6114C14.1385 11.8365 13.8013 12.0392 13.7114 11.7915C13.6664 11.6564 13.5989 11.5439 13.509 11.4313C13.4415 11.4313 13.3741 11.4088 13.3066 11.3412C13.1043 11.1386 12.9019 10.9135 12.6996 10.7109C12.2274 10.3957 11.7328 10.1255 11.418 9.65273C11.3056 9.47263 11.5754 9.20246 11.7103 9.40508ZM10.7884 10.4407C10.8334 10.3281 10.9458 10.2606 11.0582 10.3281C11.0807 10.3507 11.1257 10.3732 11.1482 10.3957C11.2381 10.2606 11.373 10.1931 11.5529 10.3056C12.2499 10.7784 12.8794 11.3863 13.5315 11.9266C13.7114 12.0842 13.6439 12.2868 13.4865 12.3994C13.4865 12.4219 13.509 12.4219 13.509 12.4444C13.5315 12.4894 13.554 12.557 13.5315 12.602C13.6439 12.7596 13.7788 12.8947 13.8912 13.0523C13.7563 12.9397 13.6214 12.8271 13.4865 12.7146C13.4191 12.8046 13.2842 12.8497 13.2167 12.7146C13.0368 12.4444 12.8345 12.1968 12.6096 11.9941C12.3398 11.769 12.07 11.5439 11.8002 11.3187C11.4854 11.0936 11.1707 10.891 10.8559 10.6884C10.7884 10.6433 10.766 10.5533 10.7884 10.4857C10.766 10.4632 10.7435 10.4407 10.6985 10.4182C10.721 10.4182 10.766 10.4407 10.7884 10.4407ZM9.97902 11.3863C9.97902 11.1611 10.2039 10.936 10.4287 11.0936C10.676 11.2512 10.9009 11.4088 11.1482 11.5664C11.0358 11.4763 10.9458 11.3863 10.8109 11.3187C10.6086 11.1837 10.8334 10.8685 11.0358 10.981C11.3955 11.2062 11.6878 11.5214 11.9801 11.8365C12.3623 12.0842 12.6996 12.3769 12.9919 12.7146C13.0593 12.7371 13.1043 12.7596 13.1717 12.7821C13.2842 12.8271 13.3066 12.9622 13.2617 13.0523C13.3966 13.2324 13.5315 13.435 13.6439 13.6376C13.4865 13.48 13.3066 13.3224 13.1493 13.1648C13.1268 13.1648 13.0818 13.1648 13.0368 13.1648C13.0593 13.2549 13.0368 13.3675 12.9694 13.435C13.2617 13.7727 13.4191 14.0654 13.3741 14.268C13.1942 14.1104 12.9919 13.9528 12.812 13.7952C12.767 13.9078 12.6546 13.9753 12.5422 13.9078C11.5529 13.2324 10.5186 12.602 9.7317 11.6789C9.59679 11.5439 9.82163 11.3187 9.97902 11.3863ZM9.25953 12.2868C9.1696 12.0617 9.50686 11.8591 9.59679 12.1067C9.64176 12.2418 9.70921 12.3994 9.79914 12.5345C9.82163 12.5345 9.84411 12.557 9.8666 12.557C10.024 12.647 10.1589 12.7371 10.2938 12.8497C11.0807 13.2999 11.8227 13.8402 12.4298 14.5157C12.6096 14.6507 12.812 14.7858 13.0144 14.9209C13.1942 15.0335 13.1942 15.2361 13.0818 15.3712C13.0818 15.3937 13.1043 15.3937 13.1043 15.4162L13.0144 15.5738L12.9244 15.4837C12.9019 15.4837 12.8794 15.4837 12.8345 15.4837C12.7895 15.5288 12.7221 15.5738 12.6321 15.5513C11.5979 15.2136 10.4737 14.2905 9.77666 13.2324C9.68673 13.1874 9.61927 13.1198 9.52934 13.0748C9.37195 12.9622 9.34947 12.7821 9.41692 12.647C9.37195 12.557 9.32698 12.4669 9.28202 12.3769C9.25953 12.3544 9.23705 12.3318 9.21456 12.3093C9.23705 12.3093 9.25953 12.3318 9.28202 12.3318C9.28202 12.3318 9.28201 12.3093 9.25953 12.2868ZM7.30343 14.1104C7.41585 14.1104 7.52827 14.1329 7.64069 14.1554C7.73062 13.9753 7.95546 13.8853 8.13533 14.0654C8.67495 14.6282 9.3045 15.0335 9.93405 15.4612C9.39443 15.011 8.85482 14.5832 8.29272 14.1329C8.24775 14.1104 8.20278 14.0879 8.1803 14.0654C8.13533 14.0429 8.11285 14.0204 8.11285 13.9753C8.00043 13.8853 7.88801 13.7952 7.77559 13.6826C7.88801 13.6826 8.02291 13.7277 8.1803 13.7727C8.24775 13.7052 8.33769 13.6601 8.42763 13.7052C8.6075 13.7952 8.76488 13.9078 8.92227 13.9978C8.7424 13.8402 8.56253 13.6601 8.38266 13.4575C8.13533 13.1648 8.54004 12.7371 8.78737 12.9847C9.32698 13.2549 9.68673 13.6601 10.1139 14.0879C10.1589 14.1329 10.2039 14.178 10.2488 14.2005C10.8784 14.6057 11.5304 14.9659 12.1375 15.4387C12.2724 15.5288 12.2949 15.6864 12.2499 15.7989C12.2724 15.8665 12.2499 15.934 12.2274 15.979C12.4298 16.2267 12.5422 16.4293 12.5422 16.5419C12.2949 16.3392 12.07 16.1591 11.8227 15.9565C11.3056 15.5738 10.766 15.2361 10.2263 14.8984C11.0133 15.5062 11.7552 16.1817 12.5647 16.7895C12.7445 16.9246 12.5422 17.2623 12.3398 17.1272C12.3173 17.1047 12.2949 17.1047 12.2724 17.0822C12.3173 17.1948 12.3398 17.2623 12.3398 17.3524C12.1824 17.2398 12.0251 17.1047 11.8902 16.9696C12.0475 17.2173 11.8227 17.5099 11.5979 17.4649C11.7328 17.6 11.8677 17.7351 12.0026 17.8927C12.16 18.0728 11.8677 18.3429 11.7103 18.1628C11.1482 17.4874 10.4062 17.0597 9.77666 16.4743C9.32698 16.0691 8.92227 15.5738 8.51756 15.1235C8.27024 14.9434 8.0454 14.7408 7.84304 14.5382L7.28094 14.3355C7.25846 14.313 7.28094 14.2005 7.30343 14.1104ZM6.85375 14.8984C6.94368 14.9434 7.01113 14.9884 7.10107 15.011C6.98865 14.9209 6.87623 14.8308 6.7863 14.7408C8.31521 14.8984 11.6878 18.1178 11.5979 19.3335C11.4405 19.1759 11.3056 19.0184 11.1482 18.8382C11.0807 18.9283 10.9683 18.9508 10.9009 18.8382C10.4287 18.0278 9.68672 17.5775 9.01221 17.0147C8.27024 16.4068 7.6182 15.6638 6.74133 15.2811C6.51649 15.1685 6.65139 14.7858 6.85375 14.8984ZM5.6621 16.5869C5.84197 16.6544 6.02184 16.722 6.20171 16.812C6.26916 16.812 6.31413 16.812 6.38158 16.8571C6.42655 16.8345 6.47152 16.812 6.51649 16.7895C6.47152 16.767 6.42655 16.7445 6.38158 16.722C5.99936 16.5869 6.15674 15.979 6.53897 16.1141C6.56146 16.1141 6.58394 16.1366 6.60642 16.1366C6.60642 16.1141 6.60642 16.0916 6.60642 16.0916C6.40407 15.9565 6.17923 15.7989 5.97687 15.6638C6.13426 15.5738 6.31413 15.5288 6.40407 15.5738C6.40407 15.5738 6.40407 15.5738 6.42655 15.5738C6.494 15.4837 6.58394 15.4162 6.71884 15.4162C6.65139 15.3487 6.56146 15.3036 6.494 15.2361C6.58394 15.3036 6.69636 15.3712 6.7863 15.4387C6.83126 15.4612 6.87623 15.4837 6.9212 15.5062C6.94369 15.5288 6.96617 15.5513 7.01114 15.5738C7.70814 16.0466 8.38266 16.5419 9.01221 17.0822C9.59679 17.5099 10.1364 17.9827 10.5411 18.5681C10.7435 18.7932 10.9233 18.9958 11.1032 19.2435C11.2156 19.3786 11.2606 19.6037 11.3281 19.8063C11.2381 19.7163 11.1482 19.6487 11.0582 19.5587C11.0582 19.7163 10.9233 19.8288 10.766 19.8514C10.8784 20.0089 10.9233 20.2566 11.0133 20.4817C10.9458 20.5268 10.8559 20.5718 10.7884 20.6393C10.5636 20.3241 10.3388 20.0089 10.1139 19.6938C10.1364 19.8288 10.1814 19.9639 10.1814 20.1215C10.1814 20.1665 10.1814 20.2116 10.1589 20.2566C10.3837 20.5268 10.5861 20.7969 10.7435 21.1346C10.6985 21.1796 10.6311 21.2247 10.5861 21.2697C10.4062 21.0221 10.2039 20.7519 10.024 20.5042C9.95653 20.5493 9.8666 20.5718 9.77666 20.5493C9.7317 20.5268 9.68673 20.5268 9.66424 20.5042C9.70921 20.5943 9.77666 20.6843 9.82163 20.7744C10.024 21.0446 10.2039 21.3147 10.4062 21.6074C10.3163 21.4948 10.2039 21.4048 10.1139 21.2922C10.2263 21.5174 9.88908 21.6749 9.77666 21.4723C9.52934 21.0221 9.25953 20.5493 8.96724 20.099C8.71992 19.9189 8.51756 19.6938 8.33769 19.4686C7.4833 18.8157 6.65139 18.1628 6.02184 17.2623C5.97688 17.2173 5.97687 17.1497 5.97687 17.1047C5.86445 17.0597 5.72955 16.9921 5.61713 16.9471C5.30236 16.8796 5.43726 16.4968 5.6621 16.5869ZM2.64925 19.1985C2.96402 19.3561 3.25632 19.5362 3.52612 19.7388C3.59357 19.6938 3.70599 19.6938 3.79593 19.7613C3.81841 19.7838 3.86338 19.8063 3.88587 19.8288C3.9758 19.8288 4.06574 19.8739 4.13319 19.9864C4.15567 20.0089 4.17816 20.0315 4.17816 20.0765C4.94261 20.7294 5.59465 21.5399 6.31413 22.2378C5.84197 21.72 5.34732 21.2022 4.87516 20.6843C4.89764 20.6618 4.92013 20.6393 4.92013 20.6168C4.38051 20.1665 3.8409 19.6938 3.30128 19.2435C3.1439 19.1084 3.18886 18.9058 3.32377 18.8157C3.23383 18.7482 3.16638 18.6807 3.07644 18.6131C3.1439 18.5231 3.21135 18.4555 3.2788 18.3655C3.30128 18.388 3.30128 18.388 3.32377 18.4105C3.36874 18.3204 3.48115 18.2529 3.57109 18.3429C3.77345 18.5231 3.95332 18.7257 4.13319 18.9058C4.22312 18.8382 4.35803 18.7932 4.49293 18.8608C4.49293 18.8608 4.51542 18.8608 4.51542 18.8833C4.38051 18.7257 4.22313 18.5906 4.08822 18.433C4.04325 18.4105 3.99829 18.388 3.95332 18.3655C3.72848 18.2754 3.86338 17.8927 4.08822 17.9827C4.26809 18.0503 4.42548 18.1403 4.60535 18.2304C4.5379 18.0052 4.78522 17.7126 5.05503 17.8476C5.1 17.8702 5.16745 17.9152 5.21242 17.9377C5.2349 17.9152 5.2349 17.8927 5.25739 17.8702C5.2349 17.8476 5.2349 17.8251 5.21242 17.8251C5.12248 17.7351 5.05503 17.645 4.9651 17.555C4.98758 17.5775 5.03255 17.6 5.05503 17.6225C4.9651 17.4199 5.2349 17.1948 5.36981 17.3749C5.54968 17.6225 5.72955 17.8702 5.93191 18.0953C6.40407 18.5005 6.85375 18.9508 7.28094 19.4011C7.70814 19.7613 8.13533 20.1215 8.56253 20.4817C8.3152 20.144 8.06788 19.8063 7.82056 19.4686C8.67495 20.2341 9.52934 20.9995 10.069 22.0802C10.0015 22.1252 9.95653 22.1928 9.88908 22.2378C9.64176 21.9226 9.41692 21.5849 9.1696 21.2697C9.21456 21.3372 9.23705 21.4048 9.28202 21.4723C9.34947 21.6074 9.25953 21.72 9.1696 21.7425C9.50686 22.2153 9.70921 22.598 9.7317 22.8006C9.4394 22.4629 9.12463 22.1252 8.80985 21.7875C9.12463 22.1928 9.34947 22.643 9.32698 23.0708C9.39444 23.1608 9.4394 23.2284 9.50686 23.3184C9.46189 23.3635 9.39443 23.4085 9.34947 23.4535C9.32698 23.4085 9.28201 23.3635 9.25953 23.3184C9.14711 23.431 8.92227 23.386 8.94476 23.1833C8.96724 23.0933 8.94476 22.9807 8.92227 22.8907C8.56253 22.3954 8.20278 21.9001 7.84304 21.4048C7.84304 21.4048 7.84304 21.4048 7.86553 21.3823C7.66317 21.1571 7.46081 20.9545 7.23598 20.7519C6.33662 19.9414 5.41477 19.0859 4.33555 18.5456C4.71777 18.8157 5.07752 19.1309 5.43726 19.4461C6.47152 20.144 7.41585 21.0896 8.00043 22.1477C8.02291 22.1702 8.02291 22.2153 8.02291 22.2378C8.40514 22.7331 8.76488 23.2284 9.10214 23.7237C9.50686 23.5436 9.91157 23.3635 10.2938 23.1608C10.4287 23.0032 10.5636 22.8231 10.6985 22.6655C10.676 22.6881 10.6535 22.688 10.6311 22.7106C10.6311 22.6655 10.6535 22.598 10.676 22.5305C10.5861 22.6205 10.4962 22.7106 10.4062 22.8006C10.2263 22.9807 10.0015 22.6881 10.1814 22.5079C10.5861 22.0352 11.0582 21.6299 11.5079 21.2472C12.16 20.4367 13.0818 19.4911 13.8912 18.8833C13.7788 19.0184 13.6664 19.1534 13.5764 19.2885C13.8238 19.0409 14.0711 18.8157 14.3409 18.5906C14.7231 18.2754 15.0829 17.9377 15.4651 17.6225C14.4084 18.433 13.3291 19.221 12.2724 20.054C12.2274 20.099 12.16 20.099 12.115 20.099C12.0475 20.1665 11.9801 20.2341 11.9126 20.3016C11.8677 19.5137 12.2274 19.1534 13.509 18.6356C14.3184 18.0278 15.1054 17.4424 15.8923 16.812C16.4319 16.3843 16.9715 15.9115 17.5111 15.4387C17.1739 15.6638 16.8366 15.889 16.4994 16.1141C16.4769 16.0691 16.4319 16.0241 16.4094 15.979L18.9276 13.8853C18.6353 14.0429 18.2981 14.1554 18.0283 14.3806C17.2638 15.0109 16.4994 15.6413 15.7349 16.2942C15.7124 16.3167 15.6675 16.3392 15.645 16.3843C15.1278 16.8345 14.6107 17.2848 14.0711 17.6901C14.0261 17.7351 13.9587 17.7801 13.9137 17.8251C13.4865 18.1854 13.0144 18.478 12.5422 18.8157C12.4972 18.7482 12.4523 18.6581 12.4073 18.5906C12.4298 18.5681 12.4523 18.5456 12.4747 18.5231C12.3848 18.433 12.3848 18.2754 12.5197 18.2079C13.3516 17.8026 14.0936 17.2623 14.7906 16.6544C14.6557 16.6319 14.5208 16.6319 14.2735 16.6094C15.6 15.4612 16.8141 14.4031 18.0283 13.3675C17.9833 13.3675 17.9383 13.3449 17.8934 13.3449C17.646 13.435 17.4212 13.5025 17.2188 13.6601C16.3645 14.3806 15.5326 15.1911 14.6782 15.934C14.206 16.3618 13.6664 16.6995 13.1717 17.0822C13.1268 17.0146 13.0818 16.9696 13.0593 16.9021L17.1514 13.0973H17.1289C16.8591 13.2774 16.5668 13.435 16.3195 13.6376C15.4201 14.4031 14.5657 15.1911 13.6889 15.979C13.6439 15.7539 13.6664 15.5738 13.7563 15.4837C13.8687 15.3937 13.9587 15.3036 14.0711 15.2136C14.0261 15.2136 13.9812 15.1911 13.9587 15.146C13.9137 15.1911 13.8687 15.2136 13.8463 15.2586L13.6214 15.011C13.9587 14.7408 14.3184 14.4931 14.6332 14.2005C14.9929 13.8853 15.3302 13.5701 15.6675 13.2324C15.9148 12.9847 16.0722 12.8046 16.1846 12.7146C16.1396 12.6921 16.0722 12.6695 16.0272 12.647C15.4426 13.0973 14.8805 13.6151 14.4084 14.2005C14.2735 14.3581 14.0486 14.2455 14.0711 14.1104C14.0486 14.0879 14.0261 14.0654 14.0036 14.0204L14.251 13.8177C14.6782 13.3449 15.1503 12.8947 15.6225 12.4894C15.5326 12.4894 15.4201 12.5345 15.3302 12.5795C15.1278 12.7596 14.948 12.9172 14.7456 13.0973C14.6782 13.1874 14.6107 13.2549 14.5657 13.3449C14.4084 13.5476 14.1161 13.3224 14.2735 13.1198C14.5882 12.7146 14.948 12.2868 15.4201 12.1517C15.4426 12.0842 15.5101 12.0392 15.6 12.0392C15.645 11.9941 15.6899 11.9716 15.7574 11.9266C15.8024 11.9941 15.8473 12.0617 15.8923 12.1067L15.8698 12.1292C15.8698 12.1292 15.8698 12.1292 15.8698 12.1517C15.9148 12.1742 15.9597 12.1968 16.0047 12.2193C16.0722 12.1742 16.1396 12.1067 16.2071 12.0617C16.4094 11.9041 16.6343 12.2193 16.4319 12.3544C16.4094 12.3544 16.4094 12.3769 16.3869 12.3769C16.4319 12.3994 16.4769 12.4219 16.5218 12.4219C16.5443 12.4219 16.5668 12.4444 16.5893 12.4444C17.1064 12.647 17.6011 12.8271 18.1407 12.9397C18.0283 12.8497 17.9608 12.7596 17.8934 12.6245C17.7809 12.3994 18.1182 12.2193 18.2306 12.4444C18.4555 12.9397 19.2649 12.9622 19.9169 12.9397L18.5229 12.4669C18.5229 12.4444 18.5229 12.4444 18.5229 12.4219L20.3666 12.9397C20.4341 12.9397 20.524 12.9397 20.569 12.9397C20.6814 12.9397 20.7938 12.9397 20.9062 12.9622C19.3548 12.4894 17.7809 12.0167 16.2296 11.5214C16.2296 11.4763 16.252 11.4538 16.252 11.4088C18.3206 11.9491 20.3666 12.4669 22.4351 13.0072C22.4351 13.0072 22.4351 13.0072 22.4351 13.0298C22.66 13.0523 22.9073 13.0748 23.1321 13.0973C22.5026 12.8722 21.873 12.602 21.221 12.4444C21.2435 12.3544 21.2884 12.2643 21.3109 12.1742L24.5936 13.2999C24.5711 13.3675 24.5486 13.435 24.5261 13.5025C24.3687 13.48 24.2114 13.435 24.0765 13.39C24.0765 13.5025 23.964 13.6601 23.8291 13.6151C23.3795 13.5025 22.9298 13.435 22.4576 13.39C22.5026 13.39 22.5251 13.4125 22.57 13.4125C22.615 13.4125 22.6375 13.435 22.66 13.4575C23.0647 13.435 23.357 13.5025 23.6268 13.6826C22.5925 13.7952 21.6257 13.9078 20.6364 14.0204C21.0636 13.8628 21.4234 13.7277 21.7606 13.6376C20.8613 13.5025 19.9619 13.5251 19.0401 13.48C19.1075 13.5251 19.175 13.6151 19.2199 13.7502C19.5347 13.7052 19.8495 13.6601 20.1642 13.5926V13.7052C20.0069 13.8177 19.827 13.9303 19.6696 14.0429C19.7146 14.1329 19.6921 14.268 19.6021 14.3355C19.4223 14.4481 19.2424 14.5832 19.0625 14.7183C18.9501 14.8534 18.8152 14.9884 18.7028 15.1235C18.8602 15.0335 18.9951 14.9434 19.1525 14.8759C19.0401 14.9434 18.9501 15.0109 18.8377 15.0785C18.9276 15.0335 19.0176 14.9884 19.1075 14.9434C19.2424 14.8759 19.3323 14.9659 19.3548 15.0785C19.4223 15.0335 19.4897 14.9659 19.5572 14.9209C20.3441 14.313 21.2884 14.1554 22.2553 14.2005C19.6696 15.1235 17.5786 16.812 15.7574 18.9508C15.0379 19.8063 14.2735 20.5943 13.4865 21.3823C13.5989 21.4723 13.5764 21.6975 13.3966 21.7425C13.2842 21.765 13.1493 21.7875 13.0593 21.8325C12.812 22.0802 12.5872 22.3278 12.3398 22.5755C12.2949 22.553 12.2499 22.5079 12.2274 22.4854C12.3398 22.3503 12.4523 22.2153 12.5647 22.0802C12.2499 22.2603 11.9801 22.5079 11.6878 22.7556C11.6203 22.8907 11.5529 23.0483 11.4854 23.1833C11.6653 23.0483 11.8452 22.9132 12.0251 22.7781C11.9126 22.9132 11.8227 23.0483 11.7103 23.1608C11.8902 23.0032 12.0475 22.8456 12.2274 22.7106C12.3623 22.598 12.5422 22.7106 12.5422 22.8456C12.9694 22.4179 13.3966 21.9901 13.8013 21.5399C14.1835 20.9995 14.5882 20.5042 15.0829 20.099C15.1503 20.0315 15.2403 19.9639 15.3077 19.8964C16.6343 18.433 17.9833 16.9921 19.6021 15.8665C19.872 15.6413 20.1418 15.4387 20.4341 15.2586C20.5914 15.146 20.7263 15.3486 20.6814 15.5062C20.8163 15.4162 20.9287 15.3712 20.9962 15.3487C18.9501 17.4649 16.7467 19.6938 14.5657 21.9451C14.903 21.2922 15.7574 20.2566 16.7242 19.1985C16.1396 19.6938 15.5326 20.1665 14.9705 20.7069C13.9812 21.6524 13.3066 22.9357 12.4747 24.0163C13.1942 23.431 13.8912 22.8456 14.5882 22.2378C15.8698 21.1346 17.0165 19.8513 18.2306 18.6581C18.3655 18.5005 18.478 18.3429 18.6129 18.1628C19.4223 17.3073 20.2317 16.4518 21.0411 15.5963C21.0861 15.6638 21.1535 15.7089 21.1985 15.7764C20.6364 16.3392 20.0968 16.9021 19.5347 17.4649C19.6246 17.3974 19.7146 17.3524 19.8045 17.2848C19.872 17.1722 19.9619 17.0822 20.0518 16.9696C20.1193 16.8796 20.2317 16.8796 20.3216 16.9246L20.9287 16.4968C20.8163 16.722 20.6589 16.8796 20.524 17.0597C20.4341 17.1722 20.3216 17.2848 20.2317 17.3974C19.872 17.8927 19.5122 18.388 19.13 18.8833C19.1974 18.8157 19.2649 18.7482 19.3099 18.6806C19.4897 18.5005 19.7146 18.7932 19.5347 18.9733C18.8377 19.7388 18.0957 20.4592 17.3313 21.1346C17.2863 21.2022 17.2188 21.2472 17.1739 21.3147C16.6567 21.9001 16.0497 22.3729 15.4201 22.8006C14.8355 23.3635 14.206 23.8813 13.5764 24.4216C12.7895 25.097 11.8677 25.5923 10.9908 26.1551C10.9908 26.1326 10.9908 26.1101 10.9908 26.0876C9.57431 27.2133 7.84304 27.7086 6.2242 28.4065C5.99936 28.4965 5.84197 28.1588 6.06681 28.0463C6.3591 27.9112 6.67388 27.7986 6.98865 27.686L6.89872 27.4384C7.01114 27.3934 7.10107 27.3258 7.21349 27.2808C7.07859 27.2583 6.98865 27.0106 7.16852 26.8981C7.59572 26.6279 8.0454 26.5604 8.47259 26.3352C8.98972 26.0651 9.46189 25.6148 9.91156 25.2546C9.97902 25.2096 10.024 25.1645 10.0914 25.1195C10.069 25.097 10.0465 25.0745 10.0465 25.052C9.84411 25.1645 9.61928 25.2321 9.39444 25.3446C8.87731 25.5698 8.49508 25.975 8.02291 26.2902C7.82056 26.4253 7.66317 26.0651 7.86553 25.93C8.27024 25.6598 8.6075 25.2771 9.03469 25.0745C9.4394 24.8719 9.84411 24.7818 10.2039 24.5116C10.2263 24.5116 10.2263 24.4891 10.2488 24.4891C9.95653 24.6467 9.70921 24.7368 9.46189 24.7593C9.95653 24.3766 10.4287 24.0389 10.9009 23.6561C10.9458 23.5211 11.0133 23.4085 11.0582 23.2734C10.8559 23.4085 10.6311 23.5436 10.4062 23.6561C10.2713 23.8137 10.1139 23.9938 9.97902 24.1514C9.84411 24.2865 9.68672 24.1514 9.68672 23.9938C9.50685 24.0614 9.34947 24.1514 9.1696 24.219C8.94476 24.309 8.78737 23.9488 9.01221 23.8588C9.01221 23.8588 9.01221 23.8588 9.03469 23.8588C8.65246 23.4535 8.27024 23.0483 7.88801 22.643C7.79807 22.7331 7.68565 22.7781 7.55075 22.7106C8.02291 23.3184 8.45011 23.9938 8.83234 24.6918C8.47259 24.3991 8.22527 23.9938 7.95546 23.6336L7.93298 23.6111C7.9105 23.6561 7.88801 23.7012 7.84304 23.7237C7.79807 23.8813 7.66317 23.9938 7.4833 23.9488C7.73062 24.2415 7.95546 24.5342 8.1803 24.8493C8.24775 24.9394 8.22527 25.052 8.15782 25.1195C8.20279 25.2321 8.27024 25.3672 8.29272 25.4797L8.13533 25.5923L7.01114 24.0839C6.31413 24.0614 5.72955 23.4535 5.30236 22.9582C4.6728 22.2378 4.15567 21.4048 3.68351 20.5718C3.61606 20.5268 3.54861 20.4592 3.48116 20.4142C3.4137 20.3467 3.36873 20.2791 3.34625 20.2116C3.07644 20.0089 2.80664 19.8514 2.51435 19.6938C2.31199 19.4686 2.44689 19.0859 2.64925 19.1985ZM1.83983 20.4817C1.81734 20.4142 1.79486 20.3692 1.77237 20.3016C1.81734 20.3467 1.88479 20.3917 1.92976 20.4592C1.97473 20.4592 2.0197 20.4817 2.04218 20.5042C2.26702 20.7294 2.49186 20.932 2.69422 21.1571C2.64925 21.0671 2.60428 20.977 2.55931 20.8645C2.49186 20.7294 2.51435 20.6168 2.5818 20.5268C2.60428 20.4367 2.64925 20.3692 2.73918 20.3466C2.78415 19.9639 3.39122 19.9864 3.36874 20.3692C3.34625 20.5718 3.36874 20.7744 3.4137 20.9545C3.45867 21.0221 3.52612 21.0896 3.57109 21.1571C4.17816 21.8776 4.80771 22.6205 5.45974 23.2734C5.54968 23.3635 5.63962 23.4535 5.72955 23.5436L5.797 23.476C5.88694 23.6111 5.97687 23.7237 6.06681 23.8588C6.60643 24.3315 7.14604 24.8268 7.50578 25.4797C7.57323 25.5923 7.50578 25.6823 7.43833 25.7274C7.4833 25.7724 7.50578 25.8399 7.55075 25.885C7.4833 25.9525 7.39336 26.02 7.32591 26.0876L6.40407 24.7143C6.33662 24.6467 6.24668 24.5567 6.15674 24.4891C6.15674 24.5116 6.17923 24.5567 6.17923 24.5792C6.29165 24.7368 6.40407 24.8944 6.494 25.0745C6.60642 25.2996 6.26916 25.4797 6.15674 25.2546C6.08929 25.1195 6.02184 25.0069 5.95439 24.8944C5.81949 24.9844 5.61713 24.9844 5.50471 24.8268C5.03255 24.219 4.51542 23.6336 4.02077 23.0258C3.81841 22.8231 3.63854 22.6205 3.48116 22.4179C2.91906 21.8776 2.33447 21.3372 1.77237 20.7744C1.68244 20.6618 1.72741 20.5268 1.83983 20.4817ZM0.648176 30.2301C0.805564 29.8924 0.985436 29.5547 1.14282 29.217C1.48008 28.3389 1.88479 27.4834 2.17709 26.5829L0.850532 29.3971L0.648176 29.307L0.828048 28.9243C0.738113 28.9018 0.648177 28.8117 0.715629 28.6766C1.23276 27.5735 1.5925 26.4028 2.0197 25.2771C2.04218 25.2321 2.06467 25.2096 2.08715 25.187L2.1546 25.0295L2.08715 25.0069C1.54753 26.1776 1.00792 27.3709 0.468306 28.5416L0.288433 28.4515C0.715628 27.4609 1.14282 26.4703 1.57002 25.4797C1.50257 25.4572 1.41263 25.4122 1.34518 25.3897L0.715629 27.2133C0.715629 26.2227 0.8955 25.2996 1.50257 24.5116C1.5925 24.3991 1.79486 24.264 1.92976 24.2415C1.72741 23.9938 1.52505 23.7237 1.32269 23.476C1.30021 23.431 1.27773 23.4085 1.27773 23.3635C1.14282 23.2284 1.12034 23.0258 1.43511 22.7556C1.4576 22.7556 1.4576 22.7781 1.48008 22.7781C1.48008 22.6655 1.5925 22.5305 1.72741 22.598C1.95225 22.7106 2.1546 22.8456 2.35696 23.0032C2.33447 22.9807 2.33447 22.9357 2.31199 22.9132C2.19957 22.8231 2.06467 22.7106 1.95225 22.6205C1.79486 22.5079 1.90728 22.2828 2.04218 22.2603C2.10963 22.1252 2.2895 22.0352 2.44689 22.1477C2.46938 22.1702 2.51434 22.1928 2.53683 22.2153C2.60428 22.2153 2.67173 22.2378 2.7167 22.3053C2.73918 22.3504 2.78415 22.3729 2.80664 22.4179C3.30128 22.8006 3.70599 23.2734 4.08822 23.7687C4.33555 23.9938 4.58287 24.219 4.83019 24.4441C4.80771 24.4666 4.78522 24.5116 4.76274 24.5342C5.01006 24.8268 5.25739 25.1195 5.45974 25.4572C5.68458 25.6823 5.88694 25.93 6.04433 26.2002C6.17923 26.4028 5.88694 26.6729 5.75203 26.4703C5.70707 26.4028 5.6621 26.3127 5.59465 26.2452C5.70707 26.4928 5.797 26.7405 5.84197 26.9881C5.72955 26.8305 5.61713 26.6955 5.50471 26.5604C5.45974 26.6279 5.39229 26.6729 5.32484 26.6729C5.39229 26.763 5.45974 26.8531 5.54968 26.9431C5.50471 27.0106 5.43726 27.0782 5.39229 27.1457C5.2349 26.9656 5.03255 26.7855 4.92013 26.5829C4.80771 26.4028 4.69529 26.2452 4.56038 26.0876C4.11071 25.6373 3.66103 25.1645 3.2788 24.6692C3.23383 24.6242 3.21135 24.5792 3.16638 24.5342C2.80664 24.2415 2.42441 23.9713 2.0197 23.7462C2.26702 24.0839 2.53683 24.3991 2.80664 24.7143C2.82912 24.6692 2.87409 24.6242 2.89657 24.5792C3.39122 25.142 3.86338 25.7049 4.35803 26.2677C4.49293 26.3803 4.65032 26.4703 4.83019 26.5379C4.9651 26.6054 4.9651 26.7855 4.89764 26.8756C4.9651 26.9431 5.01006 27.0106 5.07752 27.0782C5.01006 27.1457 4.94261 27.2133 4.87516 27.3033C4.74026 27.1457 4.60535 26.9656 4.47045 26.808C3.95332 26.5153 3.54861 26.0426 3.12141 25.6148C2.8516 25.3446 2.60428 25.0745 2.35696 24.7818V24.8043C2.33447 24.9169 2.28951 25.052 2.26702 25.1645C2.35696 25.187 2.42441 25.2771 2.37944 25.4122C2.26702 25.7274 2.13212 26.0651 2.0197 26.3803L2.35696 25.6373L2.5818 25.7499L2.22205 26.5153C2.33447 26.3803 2.60428 26.4928 2.53683 26.718C2.53683 26.7405 2.51435 26.763 2.51435 26.7855L2.64925 26.8305L1.99721 28.1588C1.77237 28.7217 1.52505 29.2845 1.30021 29.8699C1.25524 29.9824 1.16531 30.0049 1.09786 30.0049C1.0304 30.14 0.962952 30.2526 0.917985 30.3877C0.805565 30.2976 0.738112 30.2526 0.648176 30.2301ZM0.693145 31.5584C1.16531 30.4102 1.81734 29.352 2.22205 28.1813C2.31199 27.9337 2.64925 28.0463 2.5818 28.2939C2.5818 28.3164 2.55931 28.3389 2.55931 28.3615C2.5818 29.1494 1.70492 31.1531 0.760596 32.2563C0.805564 32.0987 0.850533 31.9411 0.895501 31.7835C0.760597 31.8285 0.625693 31.7385 0.693145 31.5584ZM1.16531 32.2338C1.16531 32.2338 1.16531 32.2113 1.18779 32.2113C1.65995 31.4008 2.17709 30.6353 2.49186 29.7348C2.5818 29.4871 2.91906 29.5997 2.8516 29.8473C2.80664 29.9374 2.78415 30.05 2.73918 30.14C2.73918 30.14 2.76167 30.14 2.76167 30.1625C2.62676 30.5453 2.49186 30.928 2.35696 31.3107L2.37944 31.2882C1.99721 31.9636 1.61499 32.639 1.21027 33.382C0.8955 32.9092 0.985436 32.549 1.16531 32.2338ZM2.78415 31.1756C2.33447 32.0987 1.90728 32.9992 1.4576 33.9223C1.39015 33.8998 1.34518 33.8773 1.27773 33.8322C1.63747 32.9767 1.99721 32.1437 2.35696 31.2882C2.44689 31.2207 2.55931 31.1531 2.64925 31.0856C2.69422 31.1081 2.73918 31.1531 2.78415 31.1756ZM2.0197 39.5056C1.77238 39.6182 1.52505 39.7308 1.07537 39.9109C2.44689 38.8077 2.49186 38.7852 2.64925 39.6182C2.13212 39.8659 1.5925 40.136 1.07537 40.4062C1.05289 40.3611 1.0304 40.3161 1.00792 40.2711C1.36766 40.046 1.70492 39.8208 2.06467 39.5957C2.06467 39.5732 2.04218 39.5507 2.0197 39.5056ZM0.940468 41.8921C0.917984 41.802 0.8955 41.712 0.850532 41.6219C1.57002 41.3292 2.26702 41.014 2.98651 40.7214C3.00899 40.8339 3.03148 40.924 3.07644 41.0365C2.37944 41.3067 1.65995 41.5994 0.940468 41.8921ZM2.0197 42.635L1.97473 42.4099L3.59358 41.7795C3.61606 41.8696 3.63854 41.9596 3.66103 42.0497C3.09893 42.2523 2.55931 42.4324 2.0197 42.635ZM7.37088 36.6464C7.28094 37.7271 7.14604 38.8077 7.10107 39.9109C7.07859 40.7214 7.32591 41.6219 7.10107 42.4099C7.03362 42.6125 6.80878 42.5675 6.74133 42.4099C6.67388 42.4774 6.60642 42.545 6.56146 42.6125C6.51649 42.59 6.47152 42.5675 6.42655 42.545C6.47152 41.3067 6.51649 40.091 6.56146 38.8527C6.494 39.2355 6.44904 39.6182 6.44904 40.0009C6.44904 40.1135 6.38159 40.181 6.29165 40.181C6.29165 40.9015 6.26916 41.6444 6.26916 42.3649C6.15674 42.3649 6.06681 42.3649 5.95439 42.3649L6.13426 40.1135C6.11178 40.091 6.08929 40.046 6.08929 39.9784C5.99936 40.1585 5.90942 40.3161 5.797 40.4737C5.77452 40.969 5.75204 41.4868 5.72955 41.9821C5.6621 41.9821 5.61713 41.9821 5.54968 41.9821C5.48223 42.2073 5.14497 42.1847 5.18994 41.9371C5.25739 41.5544 5.27987 41.1716 5.27987 40.7664C5.25739 40.7664 5.2349 40.7439 5.21242 40.7214C5.18994 41.1266 5.16745 41.5544 5.16745 41.9596C5.05503 41.9146 4.89764 41.8921 4.89764 41.8696C4.9651 40.5863 5.03255 39.303 5.1 38.0197C5.01006 37.0967 4.92013 36.1736 5.01006 35.2281C5.07752 34.5302 5.05503 33.8547 5.07752 33.1568C5.01006 33.427 4.94261 33.6972 4.87516 33.9673C4.83019 34.305 4.80771 34.6427 4.80771 34.9804C4.85268 34.7103 4.89764 34.4626 4.9651 34.1924C4.85268 36.7365 4.71777 39.2805 4.60535 41.847C4.51542 41.847 4.403 41.847 4.31306 41.847C4.31306 41.4193 4.31306 40.9915 4.31306 40.5638C4.20064 40.6313 3.99829 40.5187 4.04325 40.3161C4.20064 39.6632 4.26809 38.9878 4.31306 38.3124C4.15567 38.3349 4.02077 38.2899 3.9758 38.1098C3.95332 37.9522 3.93083 37.7721 3.90835 37.6145C3.77345 38.5826 3.79593 39.5056 3.88587 40.5187C3.90835 40.7664 3.54861 40.8564 3.52612 40.6088C3.45867 39.8658 3.39122 39.1004 3.43619 38.3574L3.34625 39.258C3.2788 39.258 3.23383 39.258 3.16638 39.2355C3.36874 37.1417 3.59357 35.0254 3.79593 32.9317C3.77345 32.9992 3.77345 33.0893 3.75096 33.1568C3.66103 33.5621 3.57109 33.9898 3.43619 34.4176C3.25632 35.881 3.05396 37.3443 2.87409 38.8077C2.82912 37.7046 2.87409 36.6014 2.98651 35.5207C2.87409 35.7234 2.76167 35.9035 2.62676 36.0611C2.55931 36.5113 2.49186 36.9616 2.42441 37.4344C2.31199 37.1192 2.17709 36.9166 2.19957 36.7365C2.19957 36.6464 2.22205 36.5564 2.22205 36.4888C2.0197 36.6239 1.72741 36.5113 1.72741 36.2412C1.70492 34.5302 2.42441 32.9542 3.05396 31.4008C3.21135 30.6353 3.30128 29.8699 3.23383 29.0819C3.23383 28.9918 3.45867 28.8342 3.57109 28.7217C3.59357 28.7442 3.61606 28.7667 3.66103 28.8117C3.72848 28.7667 3.8409 28.7442 3.93083 28.7667C3.95332 28.7442 3.99829 28.7442 4.02077 28.7442C4.04325 28.5866 4.06574 28.429 4.08822 28.2714C4.13319 28.2714 4.20064 28.2939 4.24561 28.2939C4.22312 28.474 4.20064 28.6541 4.17816 28.8568C4.29058 29.1044 4.35803 29.352 4.403 29.6222C4.47045 29.0369 4.56039 28.4515 4.62784 27.8662C4.69529 27.8662 4.74026 27.8436 4.80771 27.8436C4.69529 28.6316 4.58287 29.4196 4.44796 30.2076C4.44796 30.4777 4.44797 30.7479 4.42548 31.018C4.38051 31.716 4.29058 32.3914 4.26809 33.0893C4.29058 32.9767 4.31306 32.8642 4.31306 32.7516C4.35803 31.8285 4.47045 30.9055 4.58287 29.9824C4.60535 29.8699 4.69529 29.8023 4.78522 29.8023C4.80771 29.6447 4.94261 29.5772 5.07752 29.5547C5.14497 29.4646 5.27987 29.4196 5.34732 29.5322C5.41478 29.6222 5.45974 29.7123 5.50471 29.8023C5.5272 29.8023 5.52719 29.7798 5.54968 29.7798C5.54968 29.7348 5.54968 29.7123 5.54968 29.6672C5.61713 29.6672 5.6621 29.6672 5.72955 29.6447C5.72955 29.6898 5.72955 29.7348 5.72955 29.7798C5.88694 29.8248 5.99936 29.9599 5.95439 30.1625C5.86445 30.5227 5.77452 30.883 5.6621 31.2657C5.6621 31.2882 5.6621 31.2882 5.6621 31.3107C5.59465 32.8416 5.5272 34.3951 5.45974 35.926C5.57216 35.2056 5.70707 34.4851 5.84197 33.7647C5.93191 32.3689 6.02184 30.9955 6.06681 29.5997C6.13426 29.5997 6.20171 29.5997 6.29165 29.5997C6.26917 29.9149 6.26917 30.2301 6.24668 30.5228C6.29165 30.5002 6.31413 30.4777 6.3591 30.4552C6.3591 30.4327 6.3591 30.4327 6.3591 30.4102C6.3591 30.2751 6.42655 30.185 6.51649 30.14C6.49401 29.7798 6.49401 29.3971 6.51649 29.0369C6.51649 28.7892 6.89872 28.7892 6.89872 29.0594C6.87623 29.4421 6.89872 29.8023 6.89872 30.185C6.96617 30.2301 6.98865 30.3201 6.98865 30.4102C6.98865 32.2788 7.07859 34.1249 6.94368 35.9935C6.9212 36.1961 6.9212 36.3988 6.89872 36.6014C6.89872 37.0517 6.89872 37.5244 6.89872 37.9747C6.94368 37.4344 6.98865 36.9166 7.03362 36.3763C7.12356 35.3406 7.28094 34.305 7.28094 33.2469C7.28094 32.8867 7.28094 32.549 7.25846 32.1887C7.25846 32.3013 7.25846 32.4139 7.25846 32.5265C7.21349 32.5265 7.14604 32.5265 7.10107 32.5265C7.10107 31.6034 7.07859 30.6803 7.07859 29.7798C7.16852 29.7798 7.23597 29.7798 7.32591 29.7798C7.32591 29.8248 7.32591 29.8924 7.32591 29.9374C7.43833 29.8473 7.64069 29.8924 7.64069 30.095C7.59572 31.1531 7.66317 32.2113 7.66317 33.2694C7.64069 34.3726 7.46082 35.5207 7.37088 36.6464ZM8.11285 40.5863C8.13533 41.2392 8.15782 41.8921 8.15782 42.545C8.06788 42.545 7.97795 42.5675 7.86553 42.5675C7.86553 41.8921 7.84304 41.2392 7.86553 40.5638C7.77559 40.5187 7.70814 40.4287 7.70814 40.2936C7.68566 39.5281 7.73062 38.7852 7.82056 38.0423C7.88801 35.6333 7.84304 33.2469 7.82056 30.8379C7.82056 30.6578 7.95546 30.5453 8.09037 30.5453C8.09037 30.2976 8.09037 30.0274 8.09037 29.7798C8.09037 29.7573 8.09037 29.7348 8.06788 29.7123C8.00043 29.4646 8.36017 29.3746 8.42763 29.6222C8.51756 29.9824 8.6075 30.3652 8.65246 30.7479C8.7424 30.6578 8.87731 30.6578 8.98972 30.6803C8.98972 30.3877 8.98972 30.095 8.98972 29.8023C9.05718 29.8023 9.12463 29.8023 9.19208 29.8023C9.19208 30.095 9.19208 30.3877 9.19208 30.6803C9.19208 30.6353 9.19208 30.5903 9.21456 30.5228C9.23705 30.4102 9.3045 30.3652 9.39444 30.3426C9.41692 30.2076 9.50685 30.095 9.68672 30.095C9.91156 30.095 10.024 30.2976 9.97902 30.4777C10.024 30.4777 10.069 30.4777 10.1139 30.4552L10.1364 31.2207C10.2713 31.0856 10.4961 31.0406 10.6086 31.1982C10.5861 30.883 10.5411 30.5678 10.5186 30.2751L10.7435 30.1175C10.8559 30.2526 11.0807 30.3877 11.0807 30.5453C11.1032 30.6803 11.1032 30.8379 11.1032 30.973C11.1032 30.9955 11.1257 30.9955 11.1257 31.018C11.1707 31.4008 11.1932 31.7835 11.1932 32.1662C11.2381 31.9411 11.2831 31.716 11.3505 31.4908C11.3505 31.4458 11.3505 31.3783 11.3505 31.3332C11.3505 31.3783 11.373 31.4008 11.373 31.4458C11.3955 31.4008 11.3955 31.3783 11.418 31.3332C11.4854 31.1756 11.5979 31.1306 11.7328 31.1306V31.1081C11.6428 30.883 11.9801 30.6803 12.07 30.928C12.2049 31.2882 12.2049 31.6709 12.2274 32.0762C12.2499 32.6165 12.2949 33.1568 12.2724 33.6972C12.1824 35.0255 12.2049 36.3087 12.4523 37.6145C12.4972 37.8622 12.1375 37.9522 12.0925 37.7046C11.9576 37.0291 11.8902 36.3537 11.8677 35.6783C11.8677 35.8584 11.8677 36.0386 11.8677 36.2187C11.8902 36.7815 11.9126 37.3443 12.0026 37.8847C12.1375 38.7402 12.115 38.8302 11.2381 39.0328C11.2381 38.9428 11.2381 38.8753 11.2381 38.7852C11.1932 38.8527 11.1257 38.8978 11.0358 38.9203C11.0358 39.1454 11.0358 39.3706 10.9908 39.5957C10.9233 39.5957 10.8559 39.5957 10.7884 39.6182L10.721 38.8302C10.6535 38.7852 10.6086 38.6951 10.6311 38.6051C10.6311 38.5826 10.6311 38.5826 10.6311 38.5601C10.6086 38.5376 10.5861 38.47 10.6086 38.425C10.6311 38.2899 10.6535 38.1548 10.676 38.0197C10.676 37.8621 10.676 37.7046 10.676 37.547C10.6535 37.2543 10.6535 36.9391 10.6311 36.6464C10.5636 36.0386 10.4287 35.4532 10.3388 34.8679C10.3163 34.7103 10.2938 34.5527 10.2713 34.3951C10.3388 36.2862 10.4062 38.1773 10.4737 40.0685C10.3837 40.0685 10.3163 40.091 10.2263 40.091C10.1364 37.5695 10.0465 35.0254 9.95654 32.5039C9.84412 31.8961 9.73169 31.2882 9.59679 30.7029H9.57431C9.52934 31.0631 9.52934 31.4233 9.52934 31.806C9.64176 31.806 9.7317 31.8736 9.77666 32.0312C9.93405 32.9767 9.91157 33.9448 9.84412 34.8904C9.84412 34.9354 9.8666 34.9804 9.8666 35.0255C9.93405 35.7234 9.8666 36.3312 9.82163 37.0291C9.77666 37.637 9.8666 38.2674 9.95654 38.8753C10.1139 39.4831 10.3388 40.1135 10.1139 40.7439C10.0465 40.7439 10.0015 40.7439 9.93405 40.7439L9.91156 39.8884C9.82163 39.9334 9.70921 39.8884 9.68672 39.7533C9.66424 39.5056 9.64176 39.2805 9.59679 39.0328C9.57431 39.1229 9.55182 39.2355 9.52934 39.3255C9.64176 40.0009 9.79915 40.6538 9.39444 41.3292C9.41692 40.7889 9.4394 40.2261 9.46189 39.6857C9.46189 39.7083 9.46189 39.7083 9.46189 39.7308C9.41692 39.8884 9.28202 39.9559 9.1696 39.9559V40.2711C9.10215 40.2936 9.03469 40.2936 8.96724 40.3161C8.96724 40.1585 8.96724 40.0234 8.96724 39.8659C8.89979 39.8208 8.85482 39.7308 8.85482 39.6407C8.83234 38.8753 8.89979 38.0873 8.98972 37.3218L9.01221 34.3726C8.94475 34.7778 8.8773 35.183 8.80985 35.5883C8.85482 36.2187 8.87731 36.849 8.83234 37.5019C8.83234 37.637 8.71992 37.682 8.62998 37.682C8.71992 38.9653 8.76488 40.2486 8.80985 41.5318C8.80985 41.6894 8.69743 41.8695 8.62998 42.0497C8.58501 42.0271 8.51756 42.0271 8.47259 42.0046C8.49508 40.5413 8.49508 39.1004 8.51756 37.637C8.49508 37.7721 8.47259 37.9072 8.47259 38.0423C8.45011 38.7852 8.42762 39.5507 8.36017 40.2936C8.31521 40.4512 8.22527 40.5413 8.11285 40.5863ZM10.0914 42.4999C10.0465 42.545 10.0015 42.545 9.95654 42.545C10.0015 42.635 10.0465 42.7251 10.1139 42.8376C9.64176 42.68 9.28202 42.4099 8.94476 43.0403C8.80985 42.9052 8.67495 42.7701 8.45011 42.5675C8.8773 42.2973 9.21456 42.0947 9.59679 41.847C9.64176 41.9146 9.66424 41.9821 9.70921 42.0497C9.70921 42.0271 9.70921 42.0046 9.70921 41.9821C9.70921 41.8696 9.82163 41.7795 9.91156 41.7795C10.024 41.7795 10.0914 41.8696 10.0914 41.9821C10.0914 42.0271 10.1139 42.1172 10.1364 42.1847C10.1814 42.2973 10.1814 42.4099 10.0914 42.4999ZM11.8677 43.3104C11.7777 43.1528 11.7103 42.9952 11.6653 42.8376C11.7103 43.0403 11.3955 43.1978 11.3056 42.9727C11.2156 42.7476 11.1257 42.4999 11.0358 42.2523C11.0807 42.4099 11.1032 42.59 11.1257 42.7701C11.1707 43.0177 10.7884 43.1078 10.766 42.8601C10.766 42.8376 10.766 42.8376 10.766 42.8151C10.7435 42.9727 10.4962 43.0628 10.4062 42.8827C10.2263 42.545 10.2263 42.1172 10.0015 41.802C9.8666 41.5994 10.1364 41.3292 10.2938 41.5318C10.5411 41.8696 10.5411 42.3198 10.7435 42.68V42.7026C10.676 42.3198 10.6086 41.9371 10.4512 41.5769C10.3612 41.3517 10.6985 41.1716 10.7884 41.3968C10.7884 41.4193 10.7884 41.4193 10.8109 41.4418C10.8559 41.2617 11.1032 41.1716 11.1482 41.3743C11.3056 41.847 11.463 42.3198 11.6428 42.7701C11.5079 42.2523 11.4854 41.6894 11.2156 41.2167C11.1032 40.9915 11.4405 40.8114 11.5529 41.0365C11.8902 41.6444 11.7777 42.4324 12.1375 43.0177C12.2949 43.2429 12.0026 43.513 11.8677 43.3104ZM12.7445 43.1978C12.767 43.2879 12.812 43.378 12.8345 43.468C12.767 43.4905 12.6996 43.5355 12.6321 43.5581C12.2949 42.635 11.9576 41.712 11.6203 40.7889L11.7777 40.7214C11.7777 40.7214 11.7777 40.7214 11.7777 40.7439C11.8452 40.6763 11.9576 40.6763 12.0251 40.7664C12.4972 41.4418 12.8345 42.2748 13.0593 43.0853C13.1268 43.2654 12.8345 43.3554 12.7445 43.1978ZM13.4865 43.2879C13.4191 43.2879 13.3516 43.2429 13.3291 43.1528C13.3066 43.0628 13.2617 42.9502 13.2392 42.8601C12.9694 42.3198 12.6996 41.6219 12.5647 41.0365C12.5197 40.924 12.4523 40.8339 12.3623 40.7214C12.2499 40.6088 12.3398 40.4287 12.4747 40.4062C12.4747 40.3386 12.4747 40.2486 12.4747 40.181C12.4972 40.2486 12.5197 40.3161 12.5647 40.3837C12.5872 40.3837 12.6321 40.4062 12.6546 40.4287C12.9469 40.7664 13.0593 41.1716 13.1717 41.5994C13.2842 42.0947 13.5765 42.5224 13.7114 43.0177C13.7338 43.0853 13.7114 43.1528 13.6664 43.1753C13.7114 43.3104 13.7788 43.4455 13.8238 43.5806C13.7338 43.5806 13.5989 43.468 13.4865 43.2879ZM14.2285 43.1303C14.0486 43.1528 14.0261 42.9277 14.1161 42.7926C14.0486 42.7026 13.9362 42.59 13.9137 42.545C13.7788 42.3198 13.6664 42.0947 13.554 41.847C13.3516 41.3968 13.2617 40.879 12.9244 40.4962C12.812 40.3611 12.9244 40.181 13.0593 40.1585C13.0593 40.136 13.0593 40.136 13.0368 40.1135C13.1043 40.091 13.1717 40.046 13.2392 40.0234L13.3966 40.4962C13.7114 41.014 13.8463 41.6894 14.161 42.2298C14.3409 42.4999 14.8356 43.0853 14.2285 43.1303ZM15.2178 43.1528C15.1953 43.1078 15.1728 43.0628 15.1503 43.0177C15.0829 43.0177 15.0154 42.9952 14.9705 42.9277C14.7681 42.5224 14.5657 42.0947 14.4308 41.6669C14.3634 41.4643 14.3184 41.2167 14.251 41.014C14.2285 40.9465 14.1835 40.879 14.161 40.8114C14.1385 40.7664 14.1161 40.7439 14.0936 40.6988C14.3409 41.5769 14.6107 42.4324 14.858 43.3104C14.8355 43.3329 14.8131 43.3329 14.7906 43.3554C14.3634 42.2973 13.9362 41.2617 13.509 40.2036C13.5764 40.1585 13.6214 40.136 13.6889 40.091L13.9362 40.4062C13.9587 40.3161 14.0261 40.2261 14.1161 40.2261C14.1386 40.136 14.161 40.0234 14.1835 39.8659C14.251 40.0685 14.3409 40.2711 14.4084 40.4737C14.5657 40.6988 14.6332 40.9465 14.7006 41.2167C14.7231 41.2842 14.7231 41.3292 14.7456 41.3968C14.8131 41.5994 14.903 41.802 14.9705 42.0046C15.0829 42.2523 15.1953 42.4774 15.3077 42.7251C15.3302 42.7926 15.3302 42.8601 15.3077 42.9052C15.3302 42.9727 15.3527 43.0177 15.3752 43.0853C15.3077 43.1078 15.2627 43.1303 15.2178 43.1528ZM16.3195 42.9502C16.297 42.9052 16.2745 42.8601 16.2745 42.8151C16.2071 42.9277 16.0722 42.9727 15.9822 42.8601C15.645 42.4549 15.3527 42.0271 15.1278 41.5318C14.948 41.1491 14.903 40.4962 14.5657 40.2261C14.3859 40.091 14.5882 39.7533 14.7906 39.8884C14.8805 39.9559 14.948 40.046 15.0154 40.136C15.0829 40.0685 15.1503 40.046 15.2403 40.1135C15.2627 40.136 15.2852 40.1585 15.3077 40.181C15.3752 40.1585 15.4426 40.1135 15.5101 40.091C15.5775 40.2936 15.645 40.5187 15.7124 40.7214C15.8248 40.9015 15.9148 41.1041 15.9822 41.2842C16.1846 41.7795 16.4769 42.2523 16.6343 42.7476C16.7467 43.0177 16.4094 43.1978 16.3195 42.9502ZM21.6032 43.3554C21.5583 43.2879 21.5358 43.2204 21.4908 43.1528C21.4908 43.1528 21.4908 43.1528 21.4683 43.1528C21.3559 43.1078 21.3334 43.0177 21.3559 42.9277C20.569 41.4868 19.9619 39.9559 19.4672 38.3574C19.4672 38.3574 19.4448 38.3574 19.4448 38.38C19.4448 38.47 19.4672 38.5376 19.4672 38.6276C19.6921 39.0103 19.782 39.4606 19.9169 39.8884C20.0518 40.3161 20.0968 40.7889 20.2092 41.2392C20.5015 41.9821 20.8163 42.7026 21.0861 43.468C20.7263 43.0177 20.4565 42.4999 20.2542 41.9596C20.2317 41.9146 20.2317 41.8921 20.2092 41.847C20.1193 41.8921 20.0293 41.8696 19.9844 41.757C19.782 41.2392 19.7146 40.6763 19.6021 40.1135C19.4897 39.7533 19.3773 39.3931 19.2649 39.0554C19.2199 38.9428 19.1525 38.8527 19.085 38.7627C19.085 38.7402 19.0625 38.7402 19.0625 38.7177C19.0176 38.7402 18.9726 38.7627 18.9051 38.7852L20.479 43.468C20.3891 43.513 20.3216 43.5356 20.2317 43.5806L18.6129 39.1679C18.5679 39.1904 18.5229 39.1904 18.5004 39.213C18.5229 39.303 18.5454 39.3931 18.5679 39.4606C18.6129 39.4831 18.6353 39.5056 18.6803 39.5281C18.7927 39.6182 18.7702 39.7758 18.6803 39.8433C18.7028 39.9334 18.7253 40.0234 18.7478 40.1135C18.8152 40.136 18.8602 40.181 18.8602 40.2711C18.9051 40.7889 19.175 41.2167 19.3548 41.6669C19.5572 42.2073 19.7371 42.7476 19.9844 43.2429C20.0743 43.4005 19.9169 43.5355 19.782 43.513C19.7595 43.513 19.7371 43.513 19.7146 43.513C19.6246 43.4905 19.6021 43.4005 19.6021 43.3329C19.3548 42.8151 19.175 42.2523 18.9501 41.712C18.7702 41.2617 18.5004 40.8564 18.478 40.3386C18.478 40.2711 18.5004 40.2261 18.5229 40.181C18.478 40.0685 18.433 39.9559 18.4105 39.8208C18.2756 39.7308 18.1182 39.6632 17.9608 39.7533C17.9608 39.8208 17.9833 39.8884 17.9608 39.9559C17.9608 40.0234 17.9159 40.091 17.8484 40.136C17.9383 40.4287 17.9833 40.7664 18.1182 41.0591C18.388 41.7345 18.6803 42.4099 18.9726 43.0853C19.085 43.3104 18.7253 43.4905 18.6353 43.2654C18.5904 43.1753 18.5679 43.1078 18.5229 43.0177C18.478 43.0403 18.433 43.0628 18.388 43.0853C17.9833 42.0271 17.6011 40.969 17.2188 39.9559C16.9266 40.181 16.8591 40.4062 16.9041 40.6313C17.0839 40.969 17.1289 41.3743 17.2413 41.7345C17.3987 42.1622 17.6236 42.545 17.8259 42.9502C17.8934 43.1303 17.736 43.2654 17.6011 43.2204C17.5111 43.2879 17.3987 43.2879 17.3538 43.1528C17.1064 42.4549 16.5668 41.8696 16.3869 41.1266L16.3195 41.014C16.297 41.0366 16.252 41.0591 16.2296 41.0816C16.3195 41.3743 16.3869 41.6669 16.4769 41.9596C16.4319 41.9821 16.3869 41.9821 16.342 42.0046C16.1396 41.4193 15.9373 40.8339 15.7349 40.3161C16.0047 40.091 16.2071 39.9334 16.4094 39.7758C16.6792 39.5507 16.8816 39.213 17.1739 39.0779C17.7585 38.8077 18.2756 38.515 18.6803 37.9522C18.7927 37.8171 19.3323 37.8171 19.4897 37.9747C19.782 38.2899 19.9844 38.7402 20.1418 39.1679C20.6364 40.3386 21.0861 41.5318 21.5583 42.7251C21.5807 42.7701 21.5807 42.7926 21.6032 42.8376C21.6707 42.8827 21.6932 42.9727 21.6932 43.0403C21.7381 43.1303 21.7606 43.2204 21.8056 43.3104C21.7606 43.2654 21.6707 43.3104 21.6032 43.3554ZM39.3655 33.6521C39.5679 34.1699 39.433 34.3726 39.0058 34.5302C38.0615 34.8679 37.1172 35.2506 36.1728 35.6108C32.0358 37.1642 27.8987 38.7402 23.7392 40.2936C23.1321 40.5187 22.57 40.4737 21.9854 40.0234C27.8313 37.8847 33.5872 35.7684 39.3655 33.6521ZM22.1653 41.5318C22.615 41.9596 23.0422 42.3423 23.4469 42.7251C22.8174 42.9277 22.4351 42.59 22.1653 41.5318ZM32.1032 40.8564C31.8334 40.9465 31.4512 40.6988 31.1364 40.5863C31.1364 40.5863 31.1814 40.3837 31.2039 40.2711C30.8441 40.3611 30.4844 40.4737 30.1022 40.5413C29.2927 40.6763 28.5058 40.7889 27.6964 40.9015C27.1568 41.0366 26.5722 41.0816 26.0775 41.3067C25.6054 41.5318 25.2007 41.5093 24.8184 41.2842C24.4362 41.0591 24.0765 40.7889 23.6942 40.5413C28.9555 38.5601 34.1718 36.6014 39.388 34.6427C39.6354 35.093 39.3655 35.138 39.0508 35.2731C36.4651 36.3537 33.8795 37.4569 31.2938 38.5601C31.2938 38.5826 31.3163 38.6051 31.3163 38.6501C33.1375 37.9297 34.9362 37.2093 36.7574 36.4888C37.6568 36.1286 38.5561 35.7234 39.4555 35.3406C39.5679 35.9935 39.3431 36.2637 38.8484 36.4438C38.1064 36.714 37.387 37.0517 36.645 37.3669C37.5219 37.0967 38.3987 36.8265 39.2756 36.5564C39.478 37.0291 39.1632 37.2768 38.8484 37.5244C39.2306 37.4794 39.5679 37.4794 39.4105 38.1773C37.0047 39.1004 34.554 40.0234 32.1032 40.8564ZM32.373 41.2617C32.373 41.1941 32.373 41.1266 32.373 41.0365C34.7339 40.1585 37.1171 39.2805 39.478 38.4025C39.6803 38.8527 39.3431 38.9653 39.0508 39.0779C37.1621 39.7758 35.2735 40.4962 33.3848 41.1716C33.07 41.3067 32.7103 41.2392 32.373 41.2617ZM39.7253 40.2261C39.5454 40.4737 39.4105 40.8114 39.1857 40.969C38.6685 41.3292 38.1964 41.1491 37.6792 40.7439C38.3538 40.4962 38.9608 40.2711 39.5679 40.0234C39.6129 40.1135 39.6578 40.181 39.7253 40.2261ZM39.6578 39.7983C38.0165 40.2036 36.5775 41.2617 34.7563 41.1041C36.4426 40.4287 37.9715 39.7983 39.5229 39.1679C39.5679 39.3706 39.6129 39.5507 39.6578 39.7983ZM39.478 28.4515C38.6461 27.7086 39.388 27.3934 39.7478 27.0332C39.6578 27.4609 39.5679 27.9112 39.478 28.4515ZM39.0508 27.4609C38.9384 27.4159 38.8259 27.3934 38.7135 27.3483C38.7585 26.9881 38.7135 26.5379 38.8709 26.2677C39.5005 25.2321 40.2199 24.2415 40.8945 23.2509C40.9619 23.2959 41.0294 23.3184 41.0968 23.3635C40.3998 24.7143 39.7253 26.0876 39.0508 27.4609ZM38.7135 26.0876C38.6461 25.0745 38.7135 24.1064 39.5229 23.2959C40.175 22.6205 40.7146 21.81 41.3217 21.0671C41.2542 23.2284 39.5904 24.3991 38.7135 26.0876ZM39.0957 23.3184C39.4555 21.5174 40.782 20.4142 41.8388 19.1309C41.7039 20.2791 40.9844 21.4048 39.0957 23.3184ZM39.8602 20.9545C39.8377 20.4817 39.6353 19.9639 39.7927 19.7163C40.5797 18.6581 41.4566 17.6675 42.3559 16.5869C42.3109 18.1628 41.479 19.6037 39.8602 20.9545ZM40.0625 19.0409C40.0401 16.5644 41.8163 15.2811 43.1429 13.5701C43.2103 16.2042 41.1418 17.2848 40.0625 19.0409ZM40.4897 16.3392C40.5572 15.7539 40.5797 15.1235 40.872 14.7183C41.7264 13.5926 42.6707 12.557 43.5925 11.4988C43.3677 13.7052 41.5015 14.6958 40.4897 16.3392ZM43.7949 10.7559C42.8955 12.0392 41.8163 13.1874 40.782 14.4481C40.5347 13.48 40.8045 12.7371 41.3441 12.0617C41.8388 11.4313 42.3559 10.7784 42.873 10.148C43.2553 9.67525 43.6375 9.24749 44.0422 8.79722C44.1321 8.84225 44.2221 8.86477 44.2895 8.90979C44.1321 9.54017 44.1321 10.2831 43.7949 10.7559ZM40.782 12.3318C40.872 11.7015 40.8045 11.1161 41.0518 10.7784C41.9287 9.51765 42.918 8.36947 43.8623 7.15374L44.0872 7.26631C44.0197 7.69406 44.0647 8.23438 43.8623 8.52706C42.8955 9.78782 41.8838 10.9585 40.782 12.3318ZM43.8623 6.83855C42.873 8.00925 41.8388 9.17995 40.827 10.3281C40.782 8.88728 40.782 8.88728 41.5915 7.67155C41.6814 7.55898 41.7488 7.4239 41.8388 7.31133C42.5133 6.32074 43.1653 5.35266 43.8623 4.33955C44.6718 5.39769 44.6718 5.87047 43.8623 6.83855Z" fill="#F3F3F3"/>
<path d="M6.68225 21.7588C7.08629 22.2583 7.49034 22.7302 8.0187 23.1187C7.67682 22.7302 7.33493 22.3416 6.99305 21.9253C6.86873 21.8976 6.77549 21.8143 6.68225 21.7588Z" fill="#F3F3F3"/>
<path fill-rule="evenodd" clip-rule="evenodd" d="M6.68225 21.0786L7.16484 21.4893C7.18347 21.5052 7.2015 21.5225 7.21732 21.5377C7.21822 21.5386 7.21912 21.5395 7.22001 21.5403C7.23547 21.5553 7.24918 21.5685 7.26324 21.5809C7.29286 21.6071 7.31744 21.6236 7.34162 21.6313L7.37831 21.643L7.40068 21.682C7.62991 22.081 7.85927 22.4537 8.08983 22.8283L8.68692 23.7984L7.94089 23.0141C7.57349 22.6279 7.29447 22.1608 7.02184 21.6789L6.68225 21.0786Z" fill="#F3F3F3"/>
<path d="M10.3832 16.5295C10.7173 16.6915 11.0257 16.8373 11.3598 16.9993C10.9486 16.7401 10.5117 16.5295 10.0234 16.3188C10.1519 16.3999 10.2804 16.4647 10.3832 16.5295Z" fill="#F3F3F3"/>
<path fill-rule="evenodd" clip-rule="evenodd" d="M10.0234 15.8467L10.1672 15.6387C10.6001 15.9941 10.991 16.3524 11.3598 16.795L11.2109 16.9986C11.0641 16.8631 10.923 16.7344 10.7815 16.6054L10.7814 16.6053C10.6401 16.4764 10.4985 16.3472 10.3511 16.2112L10.3453 16.2059L10.3401 16.1996C10.2997 16.1511 10.2541 16.1022 10.2029 16.0472C10.2002 16.0443 10.1975 16.0414 10.1948 16.0385C10.1411 15.9809 10.0824 15.9175 10.0234 15.8467Z" fill="#F3F3F3"/>
<path d="M46.7756 6.11963H58.342C59.2492 6.11963 60.111 6.20951 60.9501 6.38927C61.7892 6.56903 62.4469 6.79372 62.9232 7.08583C63.5128 7.42287 63.9664 7.8498 64.2839 8.34413C64.6014 8.83846 64.7602 9.35527 64.7602 9.91701C64.7602 10.8383 64.2612 11.6247 63.2407 12.2763C62.8325 12.546 62.4016 12.7707 61.9253 12.9504C61.449 13.1302 60.7913 13.3324 59.9522 13.5571V13.6021C61.0408 13.8043 61.9253 14.0514 62.6283 14.3211C64.5334 15.1525 65.4859 16.2984 65.4859 17.759C65.4859 18.5679 65.1911 19.2644 64.6241 19.8711C64.0571 20.4778 63.218 20.9272 62.1521 21.2642C61.0862 21.5788 59.8161 21.7586 58.3647 21.7586H46.7756V21.3316H47.2292C48.2044 21.3316 48.9302 21.1069 49.3837 20.6351C49.86 20.1632 50.0868 19.4442 50.0868 18.5005V9.40021C50.0868 8.43401 49.86 7.71498 49.3837 7.24312C48.9075 6.77125 48.1817 6.54656 47.2292 6.54656H46.7756V6.11963ZM53.4433 6.52408V13.3774H56.8678C59.6801 13.3774 61.0862 12.164 61.0862 9.73726C61.0862 8.65871 60.7913 7.8498 60.179 7.31053C59.5667 6.77125 58.6595 6.52408 57.4122 6.52408H53.4433ZM53.4433 13.8043V21.3766H56.9812C58.4781 21.3766 59.6347 21.0395 60.4285 20.3879C61.2222 19.7363 61.6305 18.7926 61.6305 17.5792C61.6305 16.5456 61.313 15.7142 60.6553 15.1075C60.1563 14.6132 59.5667 14.2761 58.8636 14.0964C58.1606 13.9166 57.1173 13.8268 55.7566 13.8268H53.4433V13.8043Z" fill="#F3F3F3"/>
<path d="M66.1766 6.11963H76.8113V6.52467H75.6919C74.7291 6.52467 74.0127 6.74969 73.5649 7.22223C73.0948 7.69478 72.8709 8.39234 72.8709 9.38243V21.3535H76.9009C77.7069 21.3535 78.4457 21.1735 79.1622 20.8135C79.8786 20.4534 80.4831 19.9584 80.9981 19.3283C81.3115 18.9233 81.5802 18.5408 81.8264 18.1582C82.0727 17.7757 82.2966 17.3032 82.4981 16.7406C82.722 16.1781 82.9235 15.548 83.125 14.8279H83.528V21.7586H66.1766L66.1542 21.3535H66.7363C68.617 21.3535 69.5573 20.4084 69.5573 18.4958V9.38243C69.5573 7.49225 68.617 6.54717 66.7363 6.54717H66.1766V6.11963Z" fill="#F3F3F3"/>
<path d="M92.6506 5.43945H93.0492L99.249 19.4172C99.4483 19.8533 99.6697 20.2206 99.9133 20.496C100.157 20.7714 100.445 20.978 100.755 21.1157C101.065 21.2534 101.419 21.2993 101.84 21.2993H102.238V21.7354H93.2927V21.2993H94.4663C95.042 21.2993 95.4627 21.2075 95.7505 21.0468C96.0162 20.8862 96.1491 20.6337 96.1491 20.2894C96.1491 20.0828 96.1048 19.8074 95.9941 19.509C95.8834 19.2107 95.662 18.6598 95.2855 17.8565C95.2634 17.8106 95.2413 17.7417 95.197 17.627C95.1527 17.5122 95.1084 17.4204 95.0641 17.3286L94.8205 16.7548H88.2886L87.8014 17.9483C87.6464 18.3614 87.5579 18.7516 87.5579 19.1648C87.5579 19.509 87.6464 19.8533 87.8457 20.1976C88.0228 20.5419 88.2886 20.7944 88.5764 20.978C88.7757 21.0927 88.9528 21.1845 89.1078 21.2304C89.2628 21.2763 89.4842 21.2993 89.7942 21.3223V21.7583H83.528V21.3223C83.9929 21.2764 84.3472 21.1845 84.6129 21.0698C84.8786 20.955 85.1886 20.7714 85.5208 20.496C86.2957 19.8763 87.0707 18.6828 87.8014 16.9614L92.6506 5.43945ZM91.4992 9.18063L88.4878 16.2958H94.5991L91.4992 9.18063Z" fill="#F3F3F3"/>
<path d="M119.894 15.9286H120.28C120.098 16.6038 119.894 17.144 119.689 17.5942C119.462 18.0444 119.167 18.4946 118.78 18.9673C117.257 20.8355 115.189 21.7583 112.643 21.7583C111.03 21.7583 109.53 21.3757 108.12 20.6329C106.734 19.8901 105.62 18.8772 104.802 17.6392C103.984 16.3787 103.575 15.0282 103.575 13.5651C103.575 12.6873 103.734 11.832 104.052 10.9766C104.37 10.1213 104.848 9.31097 105.484 8.56818C106.098 7.82539 106.825 7.19514 107.643 6.65493C108.893 5.84461 110.325 5.43945 111.962 5.43945C112.507 5.43945 113.03 5.48447 113.507 5.57451C113.984 5.66454 114.462 5.8221 114.894 6.02468C115.325 6.22726 115.78 6.49737 116.235 6.835C116.757 7.19514 117.121 7.3527 117.371 7.3527C117.917 7.3527 118.576 6.78998 119.394 5.68705H119.78L120.098 13.2275H119.735C119.598 12.6873 119.485 12.2371 119.371 11.8995C119.258 11.5619 119.098 11.2017 118.894 10.8191C118.371 9.76114 117.757 8.8608 117.053 8.0955C116.348 7.3302 115.575 6.76747 114.735 6.36232C113.894 5.95716 113.03 5.77709 112.143 5.77709C111.098 5.77709 110.234 6.04719 109.552 6.60991C108.893 7.17263 108.393 8.02797 108.075 9.22094C107.757 10.4139 107.598 11.8995 107.598 13.7002C107.598 14.7356 107.643 15.681 107.757 16.4688C107.87 17.2566 108.052 17.9544 108.28 18.5171C108.507 19.0798 108.825 19.53 109.189 19.9126C109.643 20.3628 110.166 20.7004 110.802 20.948C111.439 21.1731 112.143 21.3082 112.893 21.3082C113.598 21.3082 114.257 21.2181 114.916 21.0381C115.553 20.858 116.166 20.5879 116.735 20.2277C117.303 19.8676 117.803 19.4399 118.28 18.8997C118.667 18.4721 118.962 18.0219 119.189 17.5942C119.417 17.2341 119.667 16.6488 119.894 15.9286Z" fill="#F3F3F3"/>
<path d="M121.617 6.11963H131.521V6.50272H131.07C130.125 6.50272 129.427 6.7506 128.932 7.22382C128.459 7.69705 128.212 8.41815 128.212 9.38713V16.2151L135.64 10.266C136.135 9.86035 136.472 9.52234 136.63 9.25192C136.788 8.98151 136.878 8.68856 136.878 8.35054C136.878 7.78718 136.63 7.33649 136.157 6.99848C135.685 6.66046 135.032 6.50272 134.199 6.50272H133.839V6.11963H143V6.50272H142.775C141.514 6.50272 139.714 7.44917 137.373 9.31953L134.289 11.7758L139.016 19.0319C139.534 19.8431 140.096 20.429 140.659 20.7896C141.244 21.1501 141.92 21.3304 142.685 21.3304H142.977V21.7586H133.321V21.3304H133.816C135.235 21.3304 135.955 20.9924 135.955 20.3164C135.955 20.2037 135.932 20.0685 135.865 19.9333C135.797 19.7981 135.662 19.5727 135.482 19.2572L131.903 13.7138L128.212 16.6658V18.4685C128.212 19.415 128.459 20.1361 128.932 20.6093C129.405 21.0825 130.125 21.3079 131.07 21.3079H131.521V21.736H121.639V21.3079H122.067C123.035 21.3079 123.755 21.0825 124.228 20.6093C124.7 20.1361 124.948 19.415 124.948 18.4685V9.34207C124.948 8.37308 124.7 7.65198 124.228 7.17875C123.755 6.70553 123.035 6.45765 122.067 6.45765H121.617V6.11963Z" fill="#F3F3F3"/>
<path d="M61.8552 25.0891H62.2339V30.4986H61.8552C61.3874 29.2085 60.8529 28.1899 60.2737 27.4657C59.8505 26.9451 59.316 26.5151 58.67 26.1076C58.0241 25.7229 57.289 25.406 56.4871 25.2023C55.6853 24.976 54.8834 24.8628 54.0593 24.8628C53.4356 24.8628 52.901 24.9533 52.411 25.1118C51.9209 25.2928 51.52 25.5418 51.1859 25.8813C50.9409 26.1303 50.7627 26.4019 50.629 26.6961C50.4954 26.9904 50.4286 27.2846 50.4286 27.5562C50.4286 28.0768 50.629 28.5295 51.03 28.9142C51.2082 29.0953 51.4755 29.2764 51.8318 29.4574C52.166 29.6385 52.6114 29.7969 53.1683 29.9554C53.7251 30.1138 54.4825 30.3175 55.4403 30.5665C55.7075 30.657 55.8857 30.7023 55.9748 30.7023L56.5094 30.8381L57.3781 31.0644C58.8482 31.4492 59.9174 31.7887 60.5856 32.0829C61.2538 32.3772 61.8329 32.762 62.3007 33.2373C62.6793 33.5994 62.9466 34.0068 63.1694 34.4821C63.3698 34.9574 63.4812 35.4554 63.4812 36.0212C63.4812 36.5644 63.3698 37.1076 63.1471 37.6508C62.9244 38.194 62.5903 38.6693 62.167 39.0768C61.6102 39.6426 60.942 40.0726 60.1401 40.3669C59.3382 40.6611 58.425 40.7969 57.4004 40.7969C56.6876 40.7969 56.0194 40.729 55.3734 40.5706C54.7498 40.4348 53.9702 40.1632 53.0569 39.7558C52.4555 39.5068 52.01 39.3484 51.6982 39.2578C51.3864 39.1673 51.0968 39.122 50.8295 39.122C50.2949 39.122 49.8494 39.2578 49.4931 39.5521C49.1367 39.8237 48.8917 40.2311 48.758 40.7516H48.3793V33.5089H48.758C48.9139 34.799 49.4262 35.9759 50.2949 37.0171C50.8295 37.6282 51.4977 38.2167 52.2996 38.7373C53.1237 39.2578 53.9702 39.6879 54.8611 39.9821C55.7521 40.2763 56.5985 40.4121 57.4226 40.4121C58.1354 40.4121 58.8036 40.299 59.3828 40.05C59.9842 39.801 60.4519 39.4842 60.7638 39.0541C61.0979 38.6241 61.2538 38.1488 61.2538 37.6056C61.2538 37.0397 61.0311 36.5191 60.5856 36.0665C60.3851 35.8628 60.1178 35.6817 59.7837 35.5006C59.4496 35.3196 59.0264 35.1611 58.5141 34.9801C58.0018 34.799 57.2667 34.5953 56.3758 34.3463L55.2621 34.0521C53.5247 33.5768 52.3441 33.2146 51.6759 32.943C50.9186 32.6714 50.3395 32.3772 49.9163 32.1056C49.4931 31.834 49.1144 31.4718 48.8026 31.0418C48.3348 30.4307 48.1121 29.7743 48.1121 29.05C48.1121 28.1673 48.3571 27.3978 48.8694 26.6961C49.3817 25.9945 50.0945 25.4513 51.0077 25.0665C51.9209 24.6817 52.9455 24.478 54.0593 24.478C55.7521 24.478 57.4895 24.9533 59.316 25.9039C59.9619 26.2208 60.3851 26.3793 60.6079 26.3793C61.187 26.3793 61.5879 25.9492 61.8552 25.0891Z" fill="#F3F3F3"/>
<path d="M64.1715 24.478H82.1915V32.4327L81.8381 32.4552C81.6615 30.4722 81.0652 28.7596 80.0715 27.3174C78.9011 25.6949 77.3994 24.8837 75.6106 24.8837H74.8156V36.8495C74.8156 38.7424 75.7431 39.6888 77.5981 39.6888H79.8948V40.117H66.4682V39.6888H68.7648C70.6198 39.6888 71.5473 38.7424 71.5473 36.8495V24.8837H70.5536C68.7207 24.8837 67.2411 25.7625 66.0927 27.5202C65.5186 28.3765 65.099 29.4131 64.8119 30.5849C64.7236 30.9905 64.6132 31.5989 64.5248 32.4327H64.1494V24.478H64.1715Z" fill="#F3F3F3"/>
<path d="M92.7491 24.478C94.2004 24.478 95.54 24.7037 96.7457 25.1777C97.9514 25.6517 99.0008 26.3289 99.8939 27.2317C100.653 27.9991 101.211 28.8568 101.635 29.7822C102.037 30.7302 102.238 31.6782 102.238 32.6713C102.238 34.1384 101.814 35.5153 100.988 36.7567C100.162 37.9981 99.0454 38.9912 97.6165 39.7135C96.1875 40.4358 94.647 40.7969 92.9501 40.7969C91.6551 40.7969 90.4494 40.5938 89.3107 40.1875C88.172 39.7812 87.1673 39.1944 86.2965 38.4495C85.4258 37.7047 84.756 36.8244 84.2648 35.8087C83.7736 34.8156 83.528 33.7547 83.528 32.6713C83.528 31.2268 83.9522 29.8725 84.7783 28.6085C85.6267 27.3446 86.7431 26.3514 88.1497 25.6066C89.5786 24.8392 91.0969 24.478 92.7491 24.478ZM93.0394 24.8617C92.3696 24.8617 91.7221 24.9746 91.1416 25.2229C90.5387 25.4486 90.0475 25.7871 89.6456 26.2386C89.1991 26.7126 88.8195 27.2768 88.5069 27.9088C88.1944 28.5634 87.9488 29.2857 87.7925 30.0757C87.6362 30.8656 87.5469 31.7233 87.5469 32.6488C87.5469 33.7999 87.6808 34.8607 87.9264 35.8087C88.172 36.7567 88.5516 37.5693 89.0205 38.269C89.4893 38.9461 90.0699 39.4878 90.7173 39.8264C91.3872 40.1875 92.1016 40.3681 92.9277 40.3681C94.0218 40.3681 94.9819 40.0521 95.7856 39.4201C96.5894 38.7881 97.2146 37.8852 97.6611 36.7115C98.0854 35.5379 98.3086 34.1385 98.3086 32.5133C98.3086 31.4751 98.197 30.4819 97.9514 29.5791C97.7058 28.6762 97.3709 27.8637 96.9243 27.1866C96.4778 26.5094 95.9419 25.9677 95.3168 25.584C95.0042 25.3809 94.647 25.2003 94.2451 25.0874C93.8208 24.9294 93.4189 24.8617 93.0394 24.8617Z" fill="#F3F3F3"/>
<path d="M103.865 24.478H110.106L120.932 36.1244V29.1505C120.932 28.2904 120.798 27.5698 120.507 26.9189C120.238 26.2912 119.836 25.8031 119.299 25.4544C119.008 25.2684 118.74 25.1289 118.449 25.0592C118.158 24.9894 117.756 24.9197 117.241 24.8965V24.478H124.958V24.8965H124.801C123.683 24.8965 122.833 25.2684 122.229 26.0123C121.648 26.7562 121.357 27.8255 121.357 29.2435V40.7969H120.999L107.556 26.4772V36.0779C107.556 37.0078 107.668 37.7517 107.869 38.3096C108.093 38.8675 108.428 39.3092 108.921 39.6346C109.323 39.8903 109.793 40.0298 110.352 40.0995C110.665 40.146 111.113 40.1925 111.694 40.2158V40.6342H103.575V40.2158C104.402 40.1693 105.073 40.0065 105.61 39.7508C106.125 39.4951 106.527 39.0999 106.773 38.5885C107.019 38.0771 107.153 37.4495 107.153 36.6823V27.5465C107.153 26.9886 107.042 26.5005 106.796 26.1053C106.55 25.7101 106.214 25.4079 105.744 25.1987C105.275 24.9894 104.738 24.8732 104.067 24.8732H103.865V24.478Z" fill="#F3F3F3"/>
<path d="M124.958 24.478H141.897V30.5224H141.553C141.233 29.4663 140.958 28.6799 140.707 28.1406C140.455 27.6238 140.134 27.107 139.745 26.6576C139.264 26.0959 138.738 25.6914 138.189 25.4667C137.25 25.0847 136.128 24.905 134.778 24.905H131.665V32.3424H132.512C133.771 32.3424 134.755 31.8032 135.487 30.7471C135.877 30.2078 136.151 29.5562 136.334 28.7922C136.426 28.4776 136.518 28.0058 136.586 27.3766H136.975V37.6228H136.586C136.495 37.0611 136.38 36.5443 136.266 36.0724C136.151 35.5781 135.991 35.1961 135.854 34.8815C135.693 34.5669 135.487 34.2748 135.259 33.9603C134.572 33.1289 133.61 32.7244 132.351 32.7244H131.665V39.7125H134.297C135.075 39.7125 135.762 39.6676 136.38 39.5552C136.998 39.4429 137.548 39.2856 138.051 39.0609C138.555 38.8362 139.013 38.5441 139.448 38.1621C140.203 37.5329 140.775 36.769 141.187 35.8477C141.416 35.3084 141.668 34.6119 141.92 33.6906H142.332V40.117H125.004L124.981 39.7125H125.416C127.338 39.7125 128.3 38.7688 128.3 36.8589V27.7586C128.3 26.7924 128.071 26.0734 127.59 25.6015C127.11 25.1296 126.4 24.905 125.393 24.905H124.958V24.478Z" fill="#F3F3F3"/>
</svg>
