<svg width="88" height="88" viewBox="0 0 88 88" fill="none" xmlns="http://www.w3.org/2000/svg">
<circle cx="44" cy="44" r="44" fill="#B89F5D"/>
<path d="M57 38.7158C52.3766 43.4658 47.7931 48.2571 43.1698 53.0484C42.6118 53.6266 42.0538 54.2049 41.4958 54.7832C41.2168 55.0723 41.0574 55.0723 40.7784 54.7832C37.9486 51.8092 35.0789 48.8353 32.2092 45.8614C31.9303 45.5723 31.9303 45.4071 32.2092 45.1179C32.847 44.4571 33.4847 43.7962 34.1224 43.1353C34.4014 42.8462 34.5608 42.8462 34.8398 43.1353C36.8725 45.2418 38.9051 47.3484 40.9378 49.4549C41.0175 49.5375 41.0574 49.6201 41.0972 49.7027C41.177 49.6201 41.2567 49.5375 41.3364 49.4962C45.601 45.0766 49.8258 40.6984 54.0905 36.2788C54.4492 35.9071 54.5688 35.9071 54.9275 36.2788C55.5253 36.8984 56.1232 37.5179 56.721 38.1375C56.8007 38.2201 56.9203 38.344 57 38.4679C57 38.5505 57 38.6332 57 38.7158Z" fill="white"/>
</svg>
