<svg width="141" height="23" viewBox="0 0 141 23" fill="none" xmlns="http://www.w3.org/2000/svg">
<path d="M26.7682 11.3783L26.3769 10.6675L25.8658 9.73738V9.73664H25.8651L25.4745 9.02662L24.9634 8.09574L24.5721 7.38498L24.1815 8.09649L23.6711 9.02737L24.0617 9.73738H24.0624V9.73813L24.5742 10.6683L24.1836 11.3798L23.6732 12.3106L23.2834 13.0221L22.7722 13.953L22.3824 14.6638L21.3601 14.6645L20.9695 13.9538L20.4577 13.0229L20.0664 12.3121L19.5553 11.3812L19.164 10.6705L18.6529 9.74035V9.73961H18.6522L18.2616 9.02959L17.7505 8.09871L17.3592 7.38795L16.8481 6.45781V6.45707H16.8474L16.4568 5.74631L15.9457 4.81617V4.81543H15.945L15.1653 4.81617L14.1423 4.81691H14.1416L13.3619 4.81765L12.3389 4.81839H12.3382L11.5585 4.81914L10.5362 4.81988H10.5355L9.75581 4.82062L8.73286 4.82136H8.73215L7.95242 4.8221L6.92947 4.82284L6.14833 4.82358L5.63791 5.75446L5.24734 6.46596L4.73692 7.39684L4.34705 8.10834L4.34635 8.10909L3.83593 9.03997L3.44606 9.75147H3.44536L2.93494 10.6823L3.32621 11.3938L4.34846 11.3931H5.1289L4.73833 10.6816L5.24875 9.75072L5.24945 9.74998L5.63861 9.03922L6.14974 8.10834V8.1076L6.5396 7.39684L7.05002 6.46596L7.83116 6.46522L8.85341 6.46448L9.63385 6.46374H9.63455L10.6568 6.463L11.4372 6.46226H11.4379L12.4602 6.46152L13.2399 6.46077H13.2406L14.2629 6.46003L15.0433 6.45929H15.044V6.46003L15.5551 7.39017L15.9464 8.10093L16.4582 9.03181L16.8481 9.74183H16.8488V9.74257L17.3606 10.6727L17.7512 11.3835L18.263 12.3144L18.6536 13.0251L19.1654 13.956L19.5567 14.6667H18.7756L17.7533 14.6675H16.9722L15.9499 14.6682H15.1688L14.1466 14.669H13.3661L12.3439 14.6697H11.5627L10.5405 14.6705H9.75934L8.73709 14.6712H7.95595L6.9337 14.6719H6.15256L5.13101 14.6749L5.64214 15.605L6.03341 16.3158L6.54454 17.2467L6.93581 17.9574L7.44694 18.8883L7.83821 19.5991L8.86046 19.5983H9.6416L10.6639 19.5976H11.445L12.4672 19.5969H13.2484L14.2706 19.5961H15.0518L16.074 19.5954H16.8552L17.8774 19.5946L18.6578 19.5939L19.6801 19.5932L20.4612 19.5924L21.4835 19.5917L21.8734 18.8802L22.3845 17.9493L22.7743 17.2385L23.2848 16.3076L23.6746 15.5961L24.1858 14.6653L24.5756 13.9538L25.086 13.0229L25.4766 12.3114L25.8672 13.0221L26.379 13.9523L26.8894 13.0214L27.2793 12.3099L26.7682 11.3783ZM20.971 17.2378L20.5811 17.9485L19.5588 17.9493H18.7777L17.7554 17.95L16.9743 17.9508L15.9521 17.9515L15.1709 17.9523L14.1487 17.953L13.3675 17.9537L12.3453 17.9545L11.5641 17.9552L10.5419 17.956L9.76145 17.9567L8.7392 17.9574L8.34793 17.2467L7.8368 16.3158L8.85905 16.3151L9.63949 16.3143L10.6617 16.3136L11.4429 16.3128L12.4651 16.3121L13.2463 16.3114L14.2685 16.3106L15.049 16.3099L16.0712 16.3091L16.8523 16.3084L17.8746 16.3076L18.6557 16.3069L19.678 16.3062L20.4591 16.3054L21.4814 16.3047L20.971 17.2378Z" fill="white"/>
<path d="M15.0482 13.0265L14.2671 13.0273L13.2448 13.028L12.3424 11.3871L13.3647 11.3864L14.1458 11.3856L15.0482 13.0265ZM11.4414 13.0288L10.661 13.0295L9.63874 13.0302L8.8576 13.031H7.83535L7.05421 13.0317H6.03196L5.25153 13.0325L4.22857 13.0332L3.838 12.3224L3.32617 11.3923L4.34913 11.3916H5.12956L6.15181 11.3901H6.93295L7.9552 11.3893L8.73634 11.3886H9.75859L10.539 11.3879L11.0509 12.318L11.4414 13.0288ZM39.5399 13.174H36.9709V16.7034H34.6402V7.51611H36.9709V11.0455H39.4102L41.7085 7.51611H44.5285L41.4519 12.0245L44.7844 16.7041H41.8946L39.5399 13.174Z" fill="white"/>
<path d="M55.9932 16.7033H53.6159L53.0033 14.5717H48.3023L47.6897 16.7033H45.3124L47.9696 7.51602H53.3375L55.9932 16.7033ZM49.7546 9.5223L48.9256 12.4409H52.3801L51.5503 9.5223H49.7546ZM67.4128 11.0372C67.4128 11.4797 67.3902 12.1608 67.3331 12.5491C67.1103 14.0603 66.368 14.6948 64.4299 14.6948H59.6V16.6944H57.2692V7.50712H64.4299C66.1727 7.50712 67.0412 8.05335 67.3148 9.51637C67.3818 9.87212 67.4128 10.5947 67.4128 11.0372ZM65.013 10.3479C65.013 9.88843 64.6583 9.51637 64.222 9.51637H59.6007V12.564H64.222C64.6591 12.564 65.013 12.1912 65.013 11.7324V10.3479ZM71.3826 9.5223V11.1054H77.9779V13.1146H71.3826V14.7007H79.1961V16.7033H69.0519V7.51602H79.1954V9.52156L71.3826 9.5223ZM91.4526 7.51454V16.7033H89.1218V9.52378H84.4963C84.0592 9.52378 83.7053 9.89658 83.7053 10.3554V13.0042L83.7018 13.0072C83.7018 13.6883 83.6595 14.0522 83.5827 14.4961C83.4677 15.1661 83.1131 15.6968 82.6944 16.0637C82.1557 16.5358 81.4225 16.704 80.3108 16.704V14.7014C81.204 14.5814 81.2956 13.6216 81.3048 13.4822V11.0454C81.3048 10.6029 81.3358 9.88028 81.4028 9.52378C81.6763 8.0615 82.5456 7.51454 84.2877 7.51454H91.4526ZM103.586 7.51009V16.6973H101.228V9.64088L97.2731 16.6973H93.4428V7.51009H95.801V14.5658L99.7913 7.51009H103.586ZM105.405 12.5462C105.348 12.1578 105.326 11.4767 105.326 11.0342C105.326 10.5918 105.357 9.86916 105.424 9.51267C105.697 8.05038 106.566 7.50342 108.308 7.50342H115.469V16.6907H113.138V14.6911H109.08L107.971 16.6936H105.326L106.606 14.4139C105.89 14.0974 105.545 13.4941 105.405 12.5462ZM113.138 9.51267H108.517C108.08 9.51267 107.726 9.88546 107.726 10.3442V11.728C107.726 12.1875 108.08 12.5595 108.517 12.5595H113.138V9.51267Z" fill="white"/>
<path d="M123.618 16.7039V7.51667H125.949V16.7039H123.618ZM137.385 9.51999H133.479V16.698H131.148V9.51999H127.242V7.51074H137.385V9.51999Z" fill="#A3905F"/>
</svg>
