<svg width="44" height="32" viewBox="0 0 44 32" fill="none" xmlns="http://www.w3.org/2000/svg">
<path d="M44 4.99783C38.2465 7.7744 35.3698 11.0369 35.3698 14.7852C37.8221 15.0629 39.8499 16.0578 41.4534 17.7701C43.0568 19.436 43.8585 21.3796 43.8585 23.6009C43.8585 25.961 43.0804 27.9508 41.5241 29.5705C39.9678 31.1902 38.0107 32 35.6527 32C33.0118 32 30.7245 30.9588 28.791 28.8764C26.8575 26.7477 25.8907 24.1793 25.8907 21.1714C25.8907 12.1475 31.0311 5.09038 41.3119 0L44 4.99783ZM18.1093 4.99783C12.3087 7.7744 9.40836 11.0369 9.40836 14.7852C11.9078 15.0629 13.9593 16.0578 15.5627 17.7701C17.1661 19.436 17.9678 21.3796 17.9678 23.6009C17.9678 25.961 17.1661 27.9508 15.5627 29.5705C14.0064 31.1902 12.0493 32 9.69132 32C7.05038 32 4.76313 30.9588 2.82958 28.8764C0.943194 26.7477 0 24.1793 0 21.1714C0 12.1475 5.11683 5.09038 15.3505 0L18.1093 4.99783Z" fill="#3D3D3D"/>
</svg>
