<svg width="19" height="16" fill="none" xmlns="http://www.w3.org/2000/svg"><g clip-path="url(#clip0_91_2409)" fill="#BA9D51"><path d="M19 3.618c-.071-.005-.143-.019-.21-.019-4.121 0-8.238 0-12.36-.004-.162 0-.23.037-.267.205-.291 1.265-1.403 2.138-2.715 2.133A2.77 2.77 0 01.734 3.79C.386 2.288 1.459.752 3.019.533c1.498-.21 2.815.677 3.153 2.133.029.126.072.168.205.168 4.156-.005 8.31-.005 12.466-.005.052 0 .105-.01.157-.018v.807zM3.458 5.158c1.097-.005 1.984-.877 1.98-1.95 0-1.083-.897-1.942-2.014-1.938-1.083.005-1.965.883-1.96 1.951.004 1.074.897 1.942 1.994 1.937zM19 13.171c-.472 0-.94-.005-1.412-.005h-4.856c-.143.794-.535 1.428-1.212 1.877a2.76 2.76 0 01-1.655.457 2.778 2.778 0 01-2.648-2.329H.69v-.765h6.512c.062-.206.104-.402.176-.584a2.775 2.775 0 012.772-1.755c1.269.098 2.3.971 2.543 2.17.028.136.076.164.205.164 1.96-.005 3.921-.005 5.882 0 .071 0 .143.005.214.005.005.252.005.508.005.765zM9.98 14.73c1.107-.01 1.985-.878 1.98-1.951a1.963 1.963 0 00-1.99-1.942c-1.102.005-1.994.896-1.984 1.975.01 1.05.916 1.927 1.994 1.918z"/></g><defs><clipPath id="clip0_91_2409"><path fill="#fff" transform="translate(.667 .5)" d="M0 0h18.333v15H0z"/></clipPath></defs></svg>