<svg xmlns="http://www.w3.org/2000/svg" viewBox="0 0 799.9 724.2"><path d="M400.1 107.4c5.5-7.7 10.7-15.6 16.6-22.9 34.4-42.3 79.1-67.8 132-78.9 37.4-7.9 74.8-8 111.7 3.6 46.7 14.7 81.4 44.6 105.8 86.5 26.4 45.4 36.5 94.8 33.3 146.9-3.7 59.4-24.8 113.1-54.7 163.8-31.7 53.8-71.5 101.1-115.7 144.9-64 63.5-134.8 118.5-210.8 166.9-12.3 7.8-23.3 8.2-35.7.2C288 658 201.2 588.6 127 504.3 90.7 463.1 59.1 418.7 35.3 369 12.4 321-1.8 270.8.2 217.1 2.3 157.7 20 103.7 60.9 59.2 96.1 20.9 140.5 2 192.2.5c59.6-1.7 113.4 15.2 160.2 52.8 17.8 14.3 32.7 31.3 44.8 50.7.6 1 1.2 2 1.9 2.9.2.2.6.3 1 .5zm350 114.9c-.3-32-7.1-64.9-23.3-95.4-19.2-36.1-47.5-61.7-87.8-71.8-44.3-11-87-4.1-127.1 16.3-53 26.9-85.6 68.2-87.1 130.2-.1 5-3 10.7-6.1 14.8-6.2 8.3-17.4 10.7-27.1 7.1-10.2-3.7-16.3-12.6-16.5-24.4-.5-36.8-13.9-68.3-39.9-94.1-37.6-37.4-83.9-54.5-136.4-54.6-45.2-.1-82.7 17.3-110.5 53.4-26.2 34-36.9 73.5-38.1 115.7-1.3 46 11.3 88.9 31.2 129.9 23 47.5 54.1 89.4 89.3 128.4 66.6 73.8 143.4 135.6 226.2 190.3 2.6 1.7 4.3 1.3 6.7-.3 80.9-53.6 156.1-113.9 221.7-185.6 35.8-39.1 67.6-81.2 91.4-128.8 20.2-40.5 33.3-83 33.4-131.1z"/></svg>