<svg width="143" height="45" fill="none" xmlns="http://www.w3.org/2000/svg"><path d="M8.445 18.87c.19.215.358.431.526.647l.505.388-.126-.194c.126.13.274.28.42.41l.253.195a2.931 2.931 0 00-.4-.864c-.715-.67-1.389-1.403-2.273-1.856.421.345.758.798 1.095 1.273z" fill="#000"/><path fill-rule="evenodd" clip-rule="evenodd" d="M6.014 16.916l.964.437c.804.364 1.453.915 2.084 1.452.137.116.273.231.409.344l.01.008.008.011c.187.254.354.533.45.859l.084.288-.34-.23.016.02-1.093-.743-.01-.01a14.003 14.003 0 00-.566-.616l-.004-.004-.003-.005c-.366-.455-.724-.88-1.167-1.2l-.842-.611zm3.1 2.533l.064-.048c.127.115.271.246.416.36a3.033 3.033 0 00-.287-.468c-.138-.114-.274-.23-.41-.344-.39-.332-.776-.66-1.197-.945.175.192.34.393.504.597.203.205.384.41.562.612l.347.236z" fill="#000"/><path d="M6.604 35.274c-.158.504-.276 1.032-.433 1.536-.04.84-.118 1.704-.157 2.544.354-.768.55-1.56.668-2.352-.078-.6-.118-1.152-.078-1.728z" fill="#000"/><path fill-rule="evenodd" clip-rule="evenodd" d="M6.268 35.998c.042-.242.084-.486.131-.724l.235.026c-.023.535 0 1.048.047 1.608l.001.01v.01a11.787 11.787 0 01-.408 2.228l-.26.878.027-.912c.012-.395.03-.796.048-1.195.018-.4.035-.8.047-1.193v-.009l.002-.009c.047-.235.089-.475.13-.718zm.105.751c-.01.352-.026.708-.042 1.063.048-.297.084-.596.113-.895l-.029-.388a7.77 7.77 0 01-.042.22z" fill="#000"/><path d="M44.604 7.3c.248-.72.203-1.35-.022-2.026-.63-1.756-1.754-3.062-3.058-4.21-.944-.833-3.125-.495-4.137.563-.652.698-1.439 1.103-2.316 1.373-.54.158-1.034.496-1.529.81-.652.406-1.304.609-2.046.586-1.259-.022-2.518.09-3.755.585.585.068 1.17.113 1.754.158.023-.09.09-.18.202-.18h.09v-.113c1.17-.135 2.339-.27 3.575-.405-.202.18-.404.54-.607.54-.472.023-.944.023-1.394.023 0 .113-.067.248-.202.248-.112 0-.225.022-.337.022.112.023.157.135.157.248l.742.09c.023.09.045.202.067.293-.337.18-.719.562-1.034.517-.112-.022-.247-.045-.36-.067.135.112 0 .405-.202.338-1.236-.338-2.518-.383-3.755-.72-.225-.068-.09-.451.135-.384.855.248 1.754.338 2.63.496-.471-.135-.944-.248-1.416-.383 0-.023 0-.068.023-.09.967.112 1.956.225 2.923.338l.022-.158c-.787-.113-1.574-.248-2.383-.36-.27-.023-.562-.045-.832-.09-.112-.023-.157-.113-.157-.225-.068.045-.158.067-.225.112a6.191 6.191 0 01-3.125.698c-1.215-.045-2.451.338-3.665.54-1.934.338-3.845.878-5.801.81-.27 0-.607.09-.832.294-.944.81-1.979 1.463-2.743 2.544-.944 1.305-2.046 2.521-3.148 3.692-1.304 1.35-2.743 2.544-4.025 3.917-1.304 1.396-2.54 2.882-2.675 4.976-.023.247-.068.585-.225.743-.72.855-.585 1.778-.562 2.769.022.675-.247 1.373-.337 2.049-.045.36 0 .72.045 1.08.09.608.382 1.216.27 1.779-.203 1.013 0 1.868.382 2.679.54 1.126.697 2.206-.068 3.4-.157.247-.157.652-.112.967.135.946.404 1.824-.045 2.86-.382.878.135 1.89.944 2.318.405.226.832.428 1.26.63v.136c.719.023 1.46.112 2.18.023 1.17-.136 2.271.044 3.35.472.675.27 1.327.225 2.024.023a4.31 4.31 0 011.776-.09c.877.135 1.709.247 2.586-.068.247-.09.54-.112.787-.112 1.73.045 3.462.157 5.216.135.81-.023 1.641-.293 2.428-.563a8.808 8.808 0 013.305-.495c2.001.067 4.025.045 6.026.045.967 0 1.956-.023 2.923-.068.247 0 .495-.068.72-.18a7.587 7.587 0 013.395-.856c.18 0 .472-.247.517-.427.112-.496.18-1.013.157-1.486-.045-.9-.18-1.779-.27-2.68-.022-.224 0-.472.045-.72.203-1.576.27-3.152-.135-4.683-.067-.247.023-.562.045-.855.135-.99.248-2.004.405-2.994.135-.81.315-1.599.517-2.387.405-1.463.877-2.904 1.26-4.39.584-2.274 1.1-4.548 1.663-6.822.292-1.17.697-2.318.877-3.512.157-.968.022-1.958.067-2.926a2.368 2.368 0 01.045-1.194zM43.48 5.162c-.562.698-1.057 1.418-1.574 2.138-.45.653-.832 1.329-1.259 2.004-.472-.653-.517-.765-.18-1.238.945-1.351 1.911-2.68 2.878-4.053.495.406.472.72.135 1.149zm-22.529 34.67a7.492 7.492 0 00-.382-.405c6.183-2.386 12.321-4.75 18.504-7.16.09.271.158.474.225.699-3.485 1.373-6.903 2.746-10.32 4.052-2.338.9-4.7 1.711-7.038 2.567.27-.045.54-.023.787-.113 3.643-1.328 7.285-2.634 10.928-3.985 1.91-.72 3.8-1.486 5.71-2.229.225.54-.022.72-.427.878-3.102 1.126-6.205 2.297-9.308 3.422-2.473.901-4.969 1.757-7.442 2.702-.607.203-.967.135-1.237-.428zm.697 2.747h-.022c-.338-.743-.697-1.486-1.035-2.251l.135-.068c.315.788.607 1.554.922 2.319zm-1.574-4.12c6.408-2.409 12.794-4.818 19.18-7.227.134.473-.158.653-.54.81-3.058 1.194-6.116 2.432-9.174 3.603-2.855 1.103-5.756 2.161-8.611 3.264-.517.18-.787 0-.855-.45zm-.36-.225c-.067-.45-.112-.743-.134-1.013-.113-.293-.248-.608-.36-.923 5.059-1.711 10.028-3.4 14.974-5.066.18.383.023.586-.36.72-4.07 1.464-8.139 2.95-12.208 4.436-.562.203-1.102.473-1.642.698.248-.045.495-.045.72-.113 6.228-1.846 12.254-4.39 18.324-6.731.068-.023.113-.023.203-.045.067.202.112.382.202.652-6.565 2.41-13.063 4.863-19.718 7.385zm-5.396-.63c-.09.022-.18.022-.27.045-.022-.203-.022-.428-.044-.63a.362.362 0 01-.293-.136l.18 1.328-.202.046c-.068-.136-.158-.27-.225-.383l-.18.675c-.09-.09-.18-.157-.27-.248v-.18s0 .023-.022.023c0 .045 0 .09.022.157l-.022-.022-.18.54c-.067 0-.135-.022-.202-.022 0-.18-.023-.383-.023-.563-.09-.045-.135-.135-.135-.248 0-.698 0-1.418.023-2.116l-.225-4.615c.067 0 .157-.023.225-.023v.09c.112-.067.247-.022.247.135 0 .09.023.18.023.27 0-.09.022-.157.022-.247-.022-.113-.022-.27-.045-.428.045.023.09.068.157.09.18-.18.585 0 .54.315l-.067.54c.067.811.112 1.644.157 2.455.112.45.135.923.09 1.418l.112.855a4.4 4.4 0 00.225-.9c-.112-1.283-.202-2.567-.315-3.85-.022-.022-.022-.045-.045-.067-.045-.068-.022-.135.023-.203v-.045h.045c.09-.067.225-.067.292.045.113.203.18.405.225.63.045-.337.113-.675.225-1.013.09-.27.427-.27.562-.09.067.023.112.068.112.135.068.496.113.99.18 1.464.023-.518.023-1.036.023-1.554v-.022a.826.826 0 00-.225-.383c-.18-.158.045-.495.225-.338a1.2 1.2 0 01.292.45c.157 0 .337.09.337.293 0 .788-.045 1.554-.045 2.342.068.18.135.337.203.517-.068-1.26-.135-2.544-.225-3.804.225.63.315 1.305.427 1.98.023.159.18.294.27.429-.068-.72-.18-1.441-.225-2.184-.023-.225.09-.473.135-.72-.067-.383-.045-.721.067-.991a5.024 5.024 0 00-.674.45 1.701 1.701 0 01-.9.72c-.022.023-.045.023-.045.046-.54.337-1.169.382-1.708.72-.203.135-.36-.225-.158-.36.135-.09.27-.158.428-.203h-.113c.54-.225 1.102-.473 1.664-.72.495-.405.9-.81 1.484-1.08.112-.046.202 0 .247.09.158-.181.36-.339.652-.474l-.697 2.05c.068.54.158 1.057.18 1.598 0 .427.247.945-.315 1.26-.112.496-.224.968-.314 1.464h-.023c.18.382.337.765.427 1.215.045.248-.314.338-.36.09-.067-.382-.224-.72-.382-1.035 0 .225.023.45.023.675 0 .113-.045.203-.113.248.045.338.068.675.068 1.035 0 .248-.36.248-.36 0-.09.023-.18.023-.27.046l-.27-3.13a21.342 21.342 0 01-.157-1.26 2.796 2.796 0 00-.067.607c.022.586.067 1.17.157 1.734.135.72.315 1.418.292 2.161 0 .248-.382.248-.382-.022.023-.518-.067-1.014-.18-1.509a7.17 7.17 0 01-.135.968c.068.406.158.81.27 1.17.068.249-.27.429-.337.181-.045-.113-.068-.248-.113-.383v.406zm-.202 1.62c-.787.293-1.596.586-2.383.879l-.09-.316c.81-.27 1.596-.563 2.406-.833l.067.27zm-2.968-9.388c-.225.09-.292-.315-.067-.382.697-.248 1.349-.563 2.046-.856.562-.225 1.169-.405 1.709-.698.787-.405 1.349-1.238 2.135-1.643.405-.495.81-1.013 1.147-1.599.742-1.193 1.462-2.409 2.204-3.624.18 1.778-.563 3.242-1.597 4.637.45-1.148.877-2.25 1.304-3.377l-.247-.135c-.45 1.599-1.394 2.815-2.406 3.963.09.045.135.18.068.292l1.214-1.418c-1.26 2.251-2.946 3.917-5.351 4.84 1.034-.742 2.068-1.373 2.945-2.183.405-.36.765-.766 1.124-1.171-.022 0-.022.022-.045.022-.247.09-.472.248-.674.406-.09.09-.158.18-.248.27-1.236 1.373-3.934 2.791-5.148 2.701.314-.135.562-.247.809-.337a11.871 11.871 0 002.114-.946c-1.035.45-2.046.878-3.036 1.238zm-2.428-.495c.202-.09.427-.158.63-.225-.27.045-.563.045-.855-.045l-.944.27c-.225.068-.293-.315-.068-.383.135-.045.248-.067.383-.112A.216.216 0 018 28.553c.495-.135.99-.36 1.484-.63-.202.067-.382.09-.562.112 1.17-.72 2.361-1.44 3.53-2.139a65.151 65.151 0 003.935-3.151c.202-.158.427.135.225.292a87.897 87.897 0 01-2.766 2.297c-.225.225-.494.45-.787.675.113.068.135.27 0 .36-.921.608-1.708 1.419-2.675 1.959-.495.293-.99.473-1.507.63.652-.157 1.327-.292 1.979-.45-.158.09-.337.18-.495.248a9.46 9.46 0 001.102-.45c-.157.067-.337.112-.495.157.765-.495 1.552-.99 2.316-1.508.247-.18.45-.45.652-.676-1.101.676-2.113 1.554-3.148 1.846 1.327-1.058 2.878-2.138 4.272-3.422 1.372-1.26 2.609-2.746 3.89-4.12a.672.672 0 01-.135.316c-.63.81-1.259 1.598-1.888 2.409.427-.406.854-.788 1.281-1.194.382-.495.765-1.013 1.17-1.508.09-.113.314-.113.471-.158.135-.045.27-.112.405-.157.023.292.045.517.068.743-.203.112-.495.18-.585.36-.922 1.598-2.046 3.04-3.238 4.435a10.804 10.804 0 01-4.339 3.13l1.439-1.036c-1.192.518-2.383 1.058-3.575 1.553-.472.18-1.012.203-1.506.315.09-.022.18-.045.27-.09-.18-.045-.248-.292-.068-.36zm16.953-15.264c.495-.068.967-.225 1.461-.36 2.159-.563 4.317-1.148 6.476-1.711-.068.315-.135.63-.225 1.08-2.946.743-5.913 1.509-8.971 2.297.202-.856.607-1.216 1.259-1.306zm-.922-.563l-3.058-1.058c.023-.045.023-.09.045-.135l3.058 1.058c-.023.045-.023.09-.045.135zm-5.554-3.22c-.224-.022-.472-.067-.697-.09 0-.09.023-.18.023-.27 1.192-.045 2.316.293 3.485.473 0 .068-.023.135-.023.225.36-.045.72-.112.967-.112 1.147.067 2.316.225 3.44.405.18.023.203.27.09.36l.27.09c-.022.068-.067.158-.09.226-.292-.136-.584-.248-.9-.383-.584-.09-1.19-.203-1.798-.27l2.226.765c0 .068-.023.113-.023.18l-2.675-.923c0-.022.022-.045.022-.068a6.206 6.206 0 00-1.124.023c.9.135 1.776.315 2.653.608.135.045.135.203.09.293.27.067.54.157.832.225-.022.09-.045.157-.067.247-.99-.292-1.979-.562-2.968-.855a119.62 119.62 0 00-1.17-.203c-.18-.045-.382-.09-.562-.135-.989-.157-2-.338-2.99-.495 0-.068.023-.135.023-.203l.831.135c0-.09.046-.18.135-.247zM21.828 8.9c.45 0 .877.022 1.304.09-.067-.113 0-.315.18-.293a15.64 15.64 0 014.07.878c.09.045.112.113.112.203l.27.09-.045.225c-.405.09-.742-.135-1.08-.36a14.58 14.58 0 00-2.607-.563c1.169.293 2.293.765 3.462 1.17-.202.316-.382.586-.495.744-1.618-.45-3.192-.9-4.744-1.329a9.416 9.416 0 00-1.124-.067c-.157 0-.202-.18-.135-.293l-.944-.27c.697 0 1.371.09 2.046.203.562.045 1.124.135 1.686.247L21.828 8.9zm16.75.293c-.112.022-.292-.068-.337-.18-.067-.136-.09-.473-.067-.496.405-.18.81-.36 1.214-.405.18-.023.36.338.63.608-.585.202-1.012.36-1.44.473zm1.754.607c-.494.113-.944.226-1.394.316-.27-.743.293-.766.675-.923.517-.203.63.135.72.607zm-1.776-1.846c-.337-.135-.764.496-.99-.112-.359.855-1.123.495-1.753.788 0-.36.023-.653.023-1.081.63 0 1.191 0 1.753-.022.54-.203 1.08-.428 1.664-.653.045.337.09.562.135.833-.315.135-.63.337-.832.247zM36.353 13.2c-.068-.405.022-.675.472-.788.854-.203 1.686-.45 2.563-.675.023.675.382.742-3.035 1.463zm3.125-.36c.157.518 0 .743-.495.788-.652.067-1.304.202-1.956.315l-.067-.27c.742-.608 1.664-.653 2.518-.833zm-3.035.923c0 .135.022.36-.023.383-1.08.382-2.18.72-3.26 1.08-.045-.112-.09-.202-.135-.315.472-.518 1.147-.518 1.731-.72.54-.203 1.102-.293 1.687-.428zm-1.237-1.846c.045-.045.135-.226.247-.383.315.495.383-.293.607-.18-.112.293-.157.743-.36.855-.651.338-1.348.518-2.045.788-.023-.382-.045-.675-.068-.99.517.045 1.08-.563 1.619-.09zm-2.114-.023c-.022-.855.518-1.126 2.092-1.26.022.135.044.247.067.382-.697.293-1.416.563-2.158.878zm2.564-.788c-.113.023-.248-.045-.383-.09.113-.18.203-.473.338-.54.742-.27 1.506-.473 2.248-.676.045.09.112.18.157.248-.157.18-.292.45-.472.518-.607.225-1.259.383-1.888.54zm.427-1.71c.112-.654.63-.631 1.057-.699.135-.022.314.18.45.27.044-.135.112-.315.202-.495.067.023.112.023.18.045 0 .27-.023.54-.023.878-.607.18-1.192.338-1.776.518a6.134 6.134 0 01-.09-.518zm-.023 0c-.112.224-.202.54-.36.607-.921.315-1.843.54-2.787.788-.045-.068-.113-.135-.158-.225.158-.248.293-.653.495-.72.832-.293 1.686-.473 2.518-.676.09-.023.203.135.292.225zm-.764-.519c-2.54.72-5.037 1.441-7.69 2.184.45-.855.877-1.44 1.71-1.643 1.213-.27 2.428-.653 3.642-.99v.765c.247-1.621 1.551-.879 2.338-1.374.022.383 0 .698 0 1.058zm-4.025 2.342c-1.529.405-3.058.855-4.699 1.328.45-.945 1.012-1.418 1.866-1.463.383-.023.742-.18 1.125-.293.742-.203 1.484-.383 2.203-.585.157.607.067.878-.495 1.013zm-2.226-3.175c-1.439-.517-3.08-.63-4.609-.382-.247.045-.292-.36-.067-.383l.54-.068c.629-.247 1.213-.157 1.798-.045a9.106 9.106 0 012.473.496c.023 0 .045.022.068.045.225.045.472.112.742.157-.337.293-.517.428-.742.63-.023-.202-.068-.337-.158-.45-.022.023-.045.023-.045 0zm-1.011.586c.225.022.472.045.764.067-.382.54-.652.45-.9.315-1.303-.382-2.697-.45-4.024-.697-.225-.046-.202-.45.045-.406 1.35.27 2.766.315 4.115.72zm-5.846 1.35l-.045.158a121.59 121.59 0 00-2.833-.45c.022-.09.045-.203.067-.293.945.18 1.889.383 2.81.585zm4.452 2.77c.472-.023.944-.158 1.394-.27 1.236-.338 2.45-.698 3.687-1.014.427-.112.9-.292 1.192.473-2.586.676-5.127 1.351-7.78 2.049.382-.788.765-1.216 1.507-1.238zm-1.957 2.859c1.147-.293 2.294-.54 3.44-.833 2.564-.653 5.104-1.35 7.645-2.004.045.045.09.113.157.158-.157.225-.292.563-.494.653-.697.27-1.44.472-2.159.653-.202.045-.45-.09-.63-.135-.179.135-.336.36-.539.405a165.557 165.557 0 01-8.184 2.161c.113-.878.113-.9.764-1.058zm-.247 1.26c.922-.18 1.844-.45 2.766-.697 1.731-.45 3.462-.923 5.216-1.374.045.09.09.158.157.248-.157.158-.292.405-.472.473-.72.27-1.439.473-2.158.698-2.046.63-4.092 1.238-6.183 1.868-.135-.81.09-1.103.674-1.215zm-.562 1.464c2.833-.9 5.689-1.689 8.521-2.499.158-.045.36.022.473.022 1.191-.765 2.518-.968 3.8-1.26.044.36.09.675.134 1.125-4.609 1.284-9.218 2.59-13.827 3.873-.045-.045-.09-.09-.113-.135.315-.383.607-.99 1.012-1.126zm-2.113-1.193c.292-.81.72-1.306 1.529-1.103.022.765-.36 1.035-1.53 1.103zm.944.225c-.067 1.013-.27 1.17-1.934 1.396.315-1.194.63-1.419 1.934-1.396zm-.18 1.306c-.045 1.17-.157 1.26-1.844 1.508-.022-.338-.045-.653-.067-1.103.697-.135 1.281-.27 1.911-.405zm-1.461 2.971c.292.608.202 1.104-.473 1.396l.473-1.395zm.27 1.486c.022.136.044.293.067.428l.36-.36c-.09.878-.72.9-1.327 1.035.247-1.08.247-1.08.9-1.103zm.404.969c.157.247.292.45.495.787-.045-1.193.764-1.17 1.371-1.35 2.541-.788 5.104-1.531 7.667-2.297 2.563-.765 5.104-1.553 7.645-2.319.315.676-.18.766-.54.9-1.304.451-2.63.924-3.957 1.33A9944.911 9944.911 0 0120.884 25.4c-.315.09-.63.068-.967.113.067-1.576 1.214-1.013 1.821-1.418zm15.964-2.815c-.427.09-.832.248-1.26.383.023-1.26 1.035-1.013 1.732-1.35.067.472.112.855-.472.967zm.494.293c-.045 1.036-.045 1.036-1.146 1.17-.203-.99.494-1.035 1.146-1.17zm-4.991 1.26c-3.822 1.262-7.645 2.455-11.467 3.693-.72.225-.944.067-1.057-.765a6041.52 6041.52 0 0115.762-4.84c0 .247 0 .494.022.742-.63.248-1.259.495-1.956.765.023-.202.023-.315.023-.337-.405.202-.832.585-1.327.743zM24.66 31.21c3.193-1.216 6.408-2.432 9.623-3.67.09.338.158.54.225.788-3.462 1.216-6.88 2.431-10.343 3.647-.247-.563.158-.653.495-.765zm-.585-.113c-.09-.315-.18-.563-.292-.9 3.508-1.239 6.97-2.454 10.545-3.715 0 .9-.63.9-1.012 1.035a388.494 388.494 0 01-7.195 2.815c-.674.27-1.349.517-2.046.765zm.967.9c3.957-1.373 7.915-2.768 11.872-4.12.247-.09.517 0 .72-.404.134.652-.068.922-.563 1.08-1.416.473-2.788 1.013-4.204 1.508-2.743.969-5.486 1.914-8.23 2.882-.044.023-.067 0-.134 0-.068-.157-.158-.315-.293-.563.315-.157.563-.292.832-.382zm11.624-5.74c-.044-.63.36-.923 1.71-1.148.112.562-.27.697-.63.833-.36.135-.742.225-1.08.315zm.18.54c0 .765-.314 1.013-1.843 1.306-.225-.586-.068-.946.562-1.058.45-.045.854-.158 1.281-.248zm-1.91.113c.044-1.058.854-.766 1.213-1.081.158.225.27.36.45.585-.63.203-1.124.338-1.664.496zm.719-1.261c-.742.27-1.507.518-2.249.788-1.529.585-3.057 1.08-4.586 1.643-1.642.586-3.26 1.194-4.902 1.779-.09-.676.202-.968.764-1.148 2.271-.788 4.52-1.621 6.79-2.432a420.199 420.199 0 014.992-1.733c-.112.855-.112.855-.81 1.103zm-11.85 1.778c3.17-1.058 6.296-2.093 9.466-3.174v.99a2395.569 2395.569 0 01-9.308 3.333c-.022-.383-.09-.743-.157-1.149zm8.994-3.331c-2.743.968-5.508 1.868-8.251 2.836-.742.27-1.282.203-1.754-.428 3.597-1.125 7.172-2.25 10.815-3.377.18.743-.45.833-.81.969zM17.736 27.09c.562-.608.99-1.058 1.439-1.531-.202.495-.382.945-.585 1.44-.202.023-.427.046-.854.09zm.697 2.274l-.18.045c-.045-.473-.09-.968-.157-1.486-.113.135-.18.225-.27.338-.045-.293-.067-.54-.09-.811.225-.023.382-.045.607-.068.023.676.045 1.329.09 1.982zm1.326-1.96c.248.046.495.046.788.091 0-.023 0 .113-.023.27.112 0 .225-.022.54-.045-.697.833-1.53.63-2.159 1.103-.067-.945.315-1.486.854-1.418zm.518-1.125c-.383.45-.72.833-1.035 1.238-.022-1.283.203-1.553 1.035-1.238zm.652 2.116c.135-.044.36-.067.45.023.382.315.606.248.741-.428.068.496.09.833.135 1.239-.967.292-1.956.562-2.945.855-.157-.338-.315-.653-.517-1.103.787-.203 1.461-.405 2.136-.586zm-1.192 2.95c-.09-.36-.157-.676-.247-1.036.989-.27 1.933-.518 2.855-.743.18.18.338.36.63.676-1.125.382-2.181.743-3.238 1.103zm3.26-.766c.068.338.113.586.158.9-1.26.406-2.474.811-3.71 1.217l-.135-.136c.18-.337.292-.855.54-.945 1.034-.428 2.09-.698 3.147-1.036zm-3.35 2.297c1.17-.428 2.383-.72 3.755-1.126-.18.338-.247.653-.382.72-1.237.54-2.473 1.036-3.733 1.554-.067-.068-.112-.135-.18-.18.18-.338.293-.878.54-.968zM36.6 22.182c0 .225 0 .473-.023.743-.54.157-1.079.315-1.663.495-.045-.9.247-1.08 1.686-1.238zM16.364 37.108c-.54.158-.899.27-1.281.383l.045.158c.427-.068.832-.136 1.259-.203 0 .09.022.18.022.248-.607.157-1.214.292-1.91.45.381-1.17.381-1.17 1.865-1.036zm1.957 1.08c0 .069.022.136.022.203-.944.18-1.911.338-2.855.518 0-.067-.023-.112-.023-.18.944-.18 1.911-.36 2.856-.54zm-1.125-.607c-.022-.113-.022-.225-.045-.338.563-.09 1.147-.202 1.71-.27.022 0 .09.225.134.405-.63.068-1.214.136-1.799.203zm.068-1.689c.562-.315.967-.562 1.371-.787l.203.202c-.18.315-.315.766-.562.9-.225.113-.585-.157-1.012-.315zm1.551-3.309c-.022.045.023.135.023.203-.023.225-.068.45-.113.675-.112-.09-.225-.225-.36-.27-.18-.045-.382 0-.584.022-.225.023-.45.068-.675.09 0-.044-.022-.09-.022-.135.382-.112.764-.225 1.304-.405-.315-.067-.45-.09-.585-.135 0-.045-.022-.112-.022-.157.202-.045.382-.068.585-.113-.023-.045-.045-.113-.068-.158-.292.023-.584.023-.877.045v-.135c.293-.067.585-.135.855-.225 0-.045-.023-.09-.023-.135-.225 0-.45.023-.81.045.563-.518 1.012-.9 1.507-1.373.36.81.337 1.508-.135 2.161zm.697 1.599c.99-.428 2.001-.766 2.99-1.194.45-.202.765-.18.99.518-1.462.495-2.856.968-4.272 1.441-.045-.068-.112-.135-.157-.203.157-.18.27-.495.45-.563zm-.292 1.125c1.911-.675 3.687-1.328 5.486-1.959.922-.337 1.866-.607 2.788-.945 2.248-.81 4.474-1.621 6.723-2.409.157-.045.337.045.517.09-.068.608-.54.765-.945.923a335.321 335.321 0 01-6.138 2.229c-2.788.968-5.576 1.869-8.454 2.837 0-.383 0-.653.023-.766zm15.739-3.827l-.203-.203c.135-.18.248-.45.428-.54 1.124-.473 2.27-.878 3.395-1.373.472-.203.584 0 .63.45-1.44.585-2.856 1.126-4.25 1.666zm.292-1.058c-.405.18-.382-.18-.517-.36.157-.18.315-.428.517-.496.922-.36 1.866-.63 2.766-.99.472-.203.63-.023.764.427-1.192.473-2.36.924-3.53 1.419zm1.574-5.156c-.292-.878 0-.968 1.866-1.396-.135 1.396-1.327.81-1.866 1.396zm1.461-1.71c-.81.314-1.619.517-2.428.787-.472.158-.944.338-1.394.518-.112-.225-.202-.36-.27-.518 1.484-1.035 3.148-1.103 4.677-1.688.067.09.112.18.18.292-.27.203-.495.496-.765.608zm.203-4.864c-2.743.856-5.509 1.689-8.252 2.544a988.678 988.678 0 01-7.667 2.32c-.405.112-.652.022-.764-.384.337-.18.652-.427.989-.54 4.114-1.26 8.206-2.499 12.321-3.737 1.372-.405 2.743-.788 4.137-1.193.157.788-.337.855-.764.99zm.022-1.193c-3.305 1.036-6.633 2.049-9.938 3.062-2.09.63-4.182 1.26-6.295 1.869-.675.202-.9.022-.877-.721 6.16-1.486 12.119-3.85 18.414-5.156-.247.833-.854.81-1.304.946zm.675-1.26c-1.237.314-2.474.54-3.71.9-4.7 1.373-9.376 2.769-14.075 4.187-.135.045-.225.18-.337.27-.45 0-.36-.36-.36-.652 0-.36.135-.54.494-.653 2.788-.743 5.576-1.531 8.342-2.297 2.159-.585 4.294-1.17 6.453-1.756 1.282-.36 2.586-.698 3.867-1.058.248.833-.27.946-.674 1.058zm.72-1.42c-.968.249-1.934.519-2.991.789.18-.495.225-1.148.45-1.216.831-.292 1.708-.405 2.608-.585-.023.428-.045.72-.068 1.013zm-.113-3.714c-.135-.022-.27.113-.428.158-1.101.315-2.18.63-3.26.945-.022-.36-.022-.607-.045-.878.832-.225 1.642-.45 2.474-.653.022.18.045.338.112.63.09-.382.157-.607.202-.81.563-.135 1.057-.27 1.597-.405.09.653.045 1.08-.652 1.013zm2.81-8.33c.27.405.922.495.472 1.148a659.981 659.981 0 00-2.968 4.143c-.314-.36-.674-.81-.314-1.351.877-1.306 1.843-2.566 2.81-3.94zm-.225-.18a420.385 420.385 0 00-2.788 3.917c-.247-.247-.472-.45-.72-.697.878-1.419 1.732-2.792 2.609-4.21.292.36.562.652.9.99zm-1.776-1.463l.63.27c-.877 1.44-1.731 2.837-2.586 4.232-.472-.382-.517-.788-.157-1.328.674-1.013 1.304-2.071 1.978-3.107.023 0 .068-.022.135-.067zm-.45.022L38.13 4.396c-.382-.428-.517-.81-.067-1.35.314-.36.562-.789.741-1.239.27-.675.698-.833 1.35-.653zm-1.64.135c.044.068.09.113.134.18-.36.63-.742 1.261-1.124 1.937-.315-.158-.607-.316-.944-.496a81.471 81.471 0 001.933-1.62zm-1.89 2.162c-.674.157-1.281.292-1.91.45.584-.653 1.618-.833 1.91-.45zm-3.44 1.666c.315-.72.922-.833 1.507-.968.652-.158 1.282-.293 1.934-.45.517-.136.786.067.921.652a548.86 548.86 0 00-4.946 1.283v-.09c.18-.135.495-.225.584-.427zm-.36.743c.923-.136 1.867-.428 2.789-.653.72-.18 1.439-.406 2.136-.608.09.337.18.585.27.945-2.496.653-4.947 1.306-7.398 1.937.652-.698 1.214-1.464 2.204-1.621zm-2.225 2.003c1.124-.428 2.316-.653 3.485-.945.18-.045.404.135.562.09.9-.293 1.776-.586 2.653-.946.787-.315 1.304-.067 1.776.563-1.574.675-3.237.45-4.789 1.058-.517.203-1.102.113-1.619.293-1.169.383-2.316.833-3.462 1.283.427-.585.854-1.193 1.394-1.396zm-3.912-1.17c.022-.09.09-.18.202-.158.135 0 .292.022.427.022a4.507 4.507 0 00-.944-.112c.022-.113.045-.203.067-.315 1.327.27 2.63.54 3.957.81a1.9 1.9 0 01-.09.383c-.18-.045-.36-.068-.562-.113-.045.045-.112.09-.18.068-.382-.09-.764-.158-1.146-.203.45.135.877.315 1.326.518-1.304-.293-2.608-.563-3.934-.855.292-.068.584-.068.877-.045zm-11.76 1.305c2.091-.382 4.16-.743 6.251-1.125l.023.18c-.338.09-.675.157-1.012.247-1.484.383-2.968.766-4.452 1.104-.27.067-.562-.09-.854-.136.022-.112.022-.202.044-.27zm6.97-.022c-1.326.27-2.653.495-3.957.81-.562.135-.989.09-1.326-.495.202.045.36.113.517.09.877-.248 1.754-.495 2.63-.788.81-.27 1.53-.293 2.136.383zm-6.97.743c.63.067 1.372-.698 1.89.27-.203.09-.383.18-.563.27.877-.158 1.754-.315 2.63-.495 1.035-.225 2.092-.518 3.126-.766-.045 0-.09-.022-.135-.022-.18-.248-.337-.495-.54-.788 1.394-.315 2.744-.63 4.093-.923.022.067.022.157.045.225-.158.067-.338.157-.495.225-.99.428-2.001.856-2.99 1.306l.831-.068c.023.09.068.18.09.27-.247.068-.517.203-.764.226-1.394.09-2.653.675-3.935 1.26-.607.27-1.349.203-2 .36-.496.136-.698.046-.743-.54l-.674-.54.134-.27zm-2.81.81c.225.068.427.158.63.27-.068-.135.045-.36.224-.292.45.18.787.563 1.035.99-.023-.067-.023-.157.022-.202-.225-.203-.427-.406-.562-.698-.112-.225.225-.405.337-.18.135.315.405.517.652.743a.243.243 0 01.068.157c.922.293 1.866.495 2.81.676.765-.226 1.597-.136 2.181.202h-.9c.428.068.833.113 1.26.158.81.09 1.574.27 2.338.495l3.103.878c-.022.135-.067.248-.09.383l-.337-.068a.174.174 0 01-.18.045c-1.776-.63-3.485-1.17-5.374-1.396-1.776-.225-3.53-.495-5.216-1.058-.045-.022-.067-.022-.09-.067.023.045.068.112.09.157.068.113 0 .226-.09.27.09.113.18.248.27.383.045.068.045.158 0 .203.022.068.067.113.09.18-.045-.045-.09-.067-.135-.112-.067.09-.18.112-.27 0a4.162 4.162 0 00-.562-.72c-.202-.181-.382-.339-.585-.519a2.704 2.704 0 00-.876-.45c-.203-.113-.068-.495.157-.428zm8.791 3.062c-.022.068-.045.158-.067.225-1.552-.36-3.103-.72-4.677-1.103.023-.09.045-.158.068-.248 1.573.383 3.125.743 4.676 1.126zm-9.196-2.589c0 .022.023.022.045.045.09-.09.225-.135.36-.045.63.405 1.124.99 1.641 1.508l.023.023c.202.225.382.473.562.743-.157-.135-.292-.248-.45-.383.068.09.113.203.158.315.09.226-.248.428-.338.18a1.145 1.145 0 00-.202-.36.275.275 0 01-.202-.09c-.203-.203-.405-.428-.607-.63-.473-.315-.967-.586-1.282-1.058-.112-.18.157-.45.292-.248zm-.922 1.036c.045-.113.158-.18.27-.113.023.023.068.045.09.068.09-.136.225-.203.405-.09.697.472 1.326 1.08 1.978 1.62.18.158.113.36-.045.473 0 .023.023.023.023.045.022.045.045.113.022.158.113.158.248.293.36.45l-.405-.337c-.067.09-.202.135-.27 0a3.808 3.808 0 00-.606-.72l-.81-.676c-.315-.226-.63-.428-.944-.63a.182.182 0 01-.068-.203.307.307 0 00-.09-.068c.023 0 .068.023.09.023zm-.809.945c0-.225.225-.45.45-.293.247.158.472.316.72.473-.113-.09-.203-.18-.338-.247-.202-.135.022-.45.225-.338.36.225.652.54.944.856.382.247.72.54 1.012.878.067.022.112.045.18.067.112.045.135.18.09.27.135.18.27.383.382.586-.158-.158-.337-.316-.495-.473h-.112c.022.09 0 .202-.068.27.293.338.45.63.405.833-.18-.158-.382-.315-.562-.473-.045.113-.157.18-.27.113-.99-.676-2.023-1.306-2.81-2.23-.135-.134.09-.36.247-.292zm-.72.9c-.09-.224.248-.427.338-.18.045.136.112.293.202.428.023 0 .045.023.068.023.157.09.292.18.427.293.787.45 1.529.99 2.136 1.666.18.135.382.27.584.405.18.112.18.315.068.45 0 .023.022.023.022.045l-.09.158-.09-.09h-.09c-.044.045-.112.09-.202.067-1.034-.338-2.158-1.26-2.855-2.319-.09-.045-.158-.112-.248-.157a.333.333 0 01-.112-.428l-.135-.27-.067-.068c.022 0 .045.023.067.023 0 0 0-.023-.022-.045zm-1.956 1.824c.113 0 .225.023.338.045.09-.18.314-.27.494-.09.54.563 1.17.968 1.799 1.396-.54-.45-1.08-.878-1.641-1.328a.491.491 0 01-.113-.068c-.045-.022-.067-.045-.067-.09a3.93 3.93 0 01-.337-.292c.112 0 .247.045.404.09.068-.068.158-.113.248-.068.18.09.337.203.494.293a6.1 6.1 0 01-.54-.54c-.247-.293.158-.721.405-.473.54.27.9.675 1.327 1.103.045.045.09.09.135.112.63.406 1.281.766 1.888 1.239.135.09.158.247.113.36a.24.24 0 01-.023.18c.203.248.315.45.315.563-.247-.203-.472-.383-.72-.586a24.466 24.466 0 00-1.596-1.058c.787.608 1.53 1.284 2.339 1.891.18.136-.023.473-.225.338-.023-.022-.045-.022-.068-.045a.68.68 0 01.068.27 3.67 3.67 0 01-.45-.383c.157.248-.067.54-.292.496.135.135.27.27.405.428.157.18-.135.45-.293.27-.562-.676-1.304-1.103-1.933-1.689-.45-.405-.855-.9-1.26-1.35a5.73 5.73 0 01-.674-.586l-.562-.203c-.023-.022 0-.135.022-.225zm-.45.788c.09.045.158.09.248.113-.112-.09-.225-.18-.315-.27 1.53.157 4.902 3.377 4.812 4.592-.158-.157-.292-.315-.45-.495-.067.09-.18.113-.247 0-.472-.81-1.214-1.26-1.889-1.823-.742-.608-1.394-1.351-2.27-1.734-.226-.113-.09-.495.112-.383zm-1.19 1.689c.179.067.359.135.539.225.067 0 .112 0 .18.045l.134-.068-.134-.067c-.383-.135-.225-.743.157-.608.022 0 .045.023.067.023v-.046c-.202-.135-.427-.292-.63-.427.158-.09.338-.135.428-.09h.023a.35.35 0 01.292-.158c-.068-.067-.158-.112-.225-.18.09.068.202.135.292.203l.135.067c.023.023.045.045.09.068.697.473 1.372.968 2.001 1.508.585.428 1.124.9 1.53 1.486.201.225.381.428.561.675.113.136.158.36.225.563-.09-.09-.18-.157-.27-.247 0 .157-.135.27-.292.292.112.158.157.405.247.63-.067.046-.157.09-.225.158l-.674-.945c.022.135.067.27.067.427 0 .046 0 .09-.022.136.225.27.427.54.584.878-.045.045-.112.09-.157.135-.18-.248-.382-.518-.562-.766a.312.312 0 01-.247.045c-.045-.022-.09-.022-.113-.045.045.09.113.18.158.27.202.27.382.54.584.833-.09-.112-.202-.202-.292-.315.112.225-.225.383-.337.18a21.86 21.86 0 00-.81-1.373 3.338 3.338 0 01-.63-.63c-.854-.653-1.686-1.306-2.315-2.207-.045-.045-.045-.112-.045-.157-.113-.045-.247-.113-.36-.158-.315-.067-.18-.45.045-.36zm-3.014 2.611c.315.158.607.338.877.54.068-.044.18-.044.27.023.022.023.067.045.09.068.09 0 .18.045.247.157.023.023.045.045.045.09.765.653 1.417 1.464 2.136 2.162-.472-.518-.967-1.036-1.439-1.554.023-.022.045-.045.045-.067-.54-.45-1.08-.923-1.619-1.374a.263.263 0 01.023-.427c-.09-.068-.158-.135-.248-.203.068-.09.135-.158.203-.248l.045.045c.045-.09.157-.157.247-.067.202.18.382.383.562.563a.34.34 0 01.36-.045s.022 0 .022.022c-.134-.157-.292-.293-.427-.45l-.135-.068c-.225-.09-.09-.472.135-.382.18.067.337.157.517.247-.067-.225.18-.518.45-.382.045.022.112.067.157.09.023-.023.023-.045.045-.068-.022-.022-.022-.045-.045-.045-.09-.09-.157-.18-.247-.27.023.022.068.045.09.067-.09-.202.18-.427.315-.247.18.247.36.495.562.72.472.405.922.856 1.349 1.306l1.282 1.08-.742-1.012c.854.765 1.708 1.53 2.248 2.611-.068.045-.112.113-.18.158-.247-.316-.472-.653-.72-.968.046.067.068.135.113.202a.186.186 0 01-.112.27c.337.473.54.856.562 1.059a37.614 37.614 0 00-.922-1.014c.315.406.54.856.517 1.284.067.09.112.157.18.247-.045.045-.113.09-.158.135-.022-.045-.067-.09-.09-.135-.112.113-.337.068-.314-.135a.649.649 0 00-.023-.292l-1.079-1.486.023-.023a8.326 8.326 0 00-.63-.63c-.9-.81-1.821-1.666-2.9-2.207.382.27.742.586 1.101.901 1.035.698 1.979 1.643 2.563 2.702.023.022.023.067.023.09.382.495.742.99 1.08 1.486.404-.18.809-.36 1.19-.563.136-.158.27-.338.405-.495-.022.022-.045.022-.067.044a.69.69 0 01.045-.18l-.27.27c-.18.18-.405-.112-.225-.292.405-.473.877-.878 1.327-1.26.652-.811 1.574-1.757 2.383-2.365-.112.135-.225.27-.315.405.248-.247.495-.472.765-.698.382-.315.742-.652 1.124-.968-1.057.81-2.136 1.599-3.193 2.432-.045.045-.112.045-.157.045l-.202.202c-.045-.787.314-1.148 1.596-1.665.81-.608 1.596-1.194 2.383-1.824.54-.428 1.08-.9 1.62-1.373l-1.013.675c-.022-.045-.067-.09-.09-.135l2.519-2.094c-.293.158-.63.27-.9.495-.764.63-1.529 1.261-2.293 1.914-.023.023-.067.045-.09.09-.517.45-1.034.9-1.574 1.306-.045.045-.112.09-.157.135-.428.36-.9.653-1.372.99-.045-.067-.09-.157-.135-.224l.068-.068c-.09-.09-.09-.248.045-.315.832-.405 1.574-.946 2.27-1.554-.134-.022-.27-.022-.516-.045 1.326-1.148 2.54-2.206 3.754-3.242-.045 0-.09-.022-.135-.022-.247.09-.472.158-.674.315-.855.72-1.686 1.531-2.54 2.274-.473.428-1.013.765-1.507 1.148-.045-.067-.09-.112-.113-.18l4.092-3.805h-.022c-.27.18-.562.338-.81.54-.899.766-1.753 1.554-2.63 2.342-.045-.225-.023-.405.067-.495.113-.09.203-.18.315-.27a.124.124 0 01-.112-.068c-.045.045-.09.067-.113.112l-.225-.247c.338-.27.697-.518 1.012-.81.36-.316.697-.631 1.035-.969.247-.247.404-.428.517-.518-.045-.022-.113-.044-.158-.067a9.596 9.596 0 00-1.619 1.553c-.134.158-.36.045-.337-.09-.022-.022-.045-.045-.067-.09l.247-.202c.427-.473.9-.923 1.372-1.329a.732.732 0 00-.293.09l-.584.518c-.068.09-.135.158-.18.248-.158.203-.45-.023-.293-.225.315-.405.675-.833 1.147-.968.023-.068.09-.113.18-.113.045-.045.09-.067.157-.112.045.067.09.135.135.18l-.022.022v.023l.135.067c.067-.045.135-.112.202-.157.202-.158.427.157.225.292-.023 0-.023.023-.045.023a.32.32 0 00.135.045c.022 0 .045.022.067.022.517.203 1.012.383 1.552.496a.858.858 0 01-.248-.316c-.112-.225.225-.405.338-.18.224.496 1.034.518 1.686.496l-1.394-.473v-.045l1.844.518h.202c.112 0 .225 0 .337.022-1.551-.473-3.125-.945-4.676-1.44 0-.046.022-.068.022-.113 2.069.54 4.115 1.058 6.183 1.598v.023l.697.067c-.63-.225-1.259-.495-1.911-.653.023-.09.067-.18.09-.27l3.283 1.126-.068.203a2.627 2.627 0 01-.45-.113c0 .113-.112.27-.247.225-.45-.112-.9-.18-1.371-.225.045 0 .067.022.112.022s.067.023.09.045c.405-.022.697.046.967.226-1.034.112-2.001.225-2.99.337.427-.157.786-.292 1.124-.382-.9-.135-1.8-.113-2.72-.158a.514.514 0 01.179.27c.315-.045.63-.09.944-.157v.112c-.157.113-.337.225-.494.338a.246.246 0 01-.068.292 7.94 7.94 0 00-.54.383c-.112.135-.247.27-.36.405.158-.09.293-.18.45-.247-.112.067-.202.135-.314.202l.27-.135c.134-.067.224.023.247.135.067-.045.135-.112.202-.157.787-.608 1.731-.766 2.698-.72-2.585.922-4.676 2.611-6.498 4.75-.72.855-1.483 1.643-2.27 2.431.112.09.09.315-.09.36-.113.023-.248.045-.338.09-.247.248-.472.496-.72.743a.492.492 0 01-.112-.09l.338-.405c-.315.18-.585.428-.877.675-.068.136-.135.293-.203.428l.54-.405c-.112.135-.202.27-.315.383.18-.158.337-.315.517-.45.135-.113.315 0 .315.135.427-.428.855-.856 1.26-1.306.382-.54.786-1.036 1.28-1.441.068-.068.158-.135.226-.203 1.326-1.463 2.675-2.904 4.294-4.03.27-.225.54-.427.832-.608.157-.112.292.09.247.248a1.32 1.32 0 01.315-.157c-2.046 2.116-4.25 4.345-6.43 6.596.337-.653 1.191-1.689 2.158-2.747-.584.496-1.191.968-1.754 1.509-.989.945-1.663 2.229-2.495 3.31a78.516 78.516 0 002.113-1.78c1.282-1.102 2.429-2.386 3.643-3.579.134-.157.247-.315.382-.495l2.428-2.567c.045.068.113.113.157.18-.562.563-1.101 1.126-1.663 1.689.09-.068.18-.113.27-.18.067-.113.157-.203.247-.316.067-.09.18-.09.27-.044l.607-.428c-.113.225-.27.383-.405.563-.09.112-.202.225-.292.337-.36.496-.72.99-1.102 1.486.067-.067.135-.135.18-.202.18-.18.405.112.225.292a28.495 28.495 0 01-2.204 2.162c-.045.067-.112.112-.157.18-.517.585-1.124 1.058-1.754 1.486-.585.562-1.214 1.08-1.844 1.62-.787.676-1.708 1.171-2.585 1.734v-.067c-1.417 1.125-3.148 1.62-4.767 2.318-.225.09-.382-.247-.157-.36.292-.135.607-.248.922-.36l-.09-.248c.112-.045.202-.112.314-.157-.134-.023-.224-.27-.044-.383.427-.27.876-.338 1.304-.563.517-.27.989-.72 1.439-1.08.067-.046.112-.09.18-.136-.023-.022-.046-.045-.046-.067-.202.113-.427.18-.652.293-.517.225-.899.63-1.371.945-.202.135-.36-.225-.157-.36.404-.27.742-.653 1.169-.856.404-.202.81-.292 1.169-.562.022 0 .022-.023.045-.023-.292.158-.54.248-.787.27.495-.383.967-.72 1.439-1.103.045-.135.112-.248.157-.383a6.23 6.23 0 01-.652.383l-.427.495c-.135.135-.292 0-.292-.157-.18.067-.338.157-.517.225-.225.09-.383-.27-.158-.36h.023L7.888 23.24c-.09.09-.202.135-.337.068.472.607.9 1.283 1.281 1.98-.36-.292-.607-.697-.877-1.058l-.022-.022c-.022.045-.045.09-.09.113-.045.157-.18.27-.36.225.248.292.472.585.697.9a.205.205 0 01-.022.27c.045.113.112.248.135.36l-.158.113-1.124-1.508c-.697-.023-1.281-.63-1.709-1.126-.63-.72-1.146-1.553-1.618-2.386-.068-.045-.135-.113-.203-.158a.531.531 0 01-.135-.203 6.4 6.4 0 00-.832-.517c-.202-.226-.067-.608.135-.496zm-.81 1.284c-.022-.068-.044-.113-.067-.18.045.045.113.09.158.157.045 0 .09.023.112.045.225.225.45.428.652.653-.045-.09-.09-.18-.135-.293-.067-.135-.045-.247.023-.337.022-.09.067-.158.157-.18.045-.383.652-.36.63.022-.023.203 0 .405.045.585.045.068.112.136.157.203.607.72 1.237 1.463 1.889 2.116l.27.27.067-.067c.09.135.18.248.27.383.54.473 1.079.968 1.439 1.62.067.113 0 .203-.068.248.045.045.068.113.113.158-.068.067-.158.135-.225.203l-.922-1.374a2.45 2.45 0 00-.247-.225c0 .023.022.068.022.09.113.158.225.315.315.495.112.226-.225.406-.337.18a5.265 5.265 0 00-.203-.36c-.135.09-.337.09-.45-.067-.471-.608-.989-1.194-1.483-1.801a6.549 6.549 0 01-.54-.608c-.562-.54-1.147-1.08-1.709-1.644-.09-.112-.045-.247.068-.292zM.65 30.827c.157-.338.336-.675.494-1.013.337-.878.742-1.734 1.034-2.634L.851 29.994l-.203-.09.18-.383c-.09-.022-.18-.112-.112-.247.517-1.104.877-2.274 1.304-3.4.022-.045.045-.067.067-.09l.068-.158-.068-.022c-.54 1.17-1.08 2.364-1.619 3.535l-.18-.09 1.282-2.972c-.067-.023-.157-.068-.225-.09l-.63 1.823c0-.99.18-1.913.788-2.701.09-.113.292-.248.427-.27-.203-.248-.405-.518-.607-.766-.023-.045-.045-.068-.045-.113-.135-.135-.158-.337.157-.608.023 0 .023.023.045.023 0-.113.113-.248.247-.18.225.113.428.248.63.405-.023-.022-.023-.067-.045-.09-.112-.09-.247-.203-.36-.293-.157-.112-.045-.337.09-.36.068-.135.248-.225.405-.112.022.022.067.045.09.067.067 0 .135.023.18.09.022.045.067.068.09.113.494.383.899.855 1.281 1.35l.742.676c-.022.023-.045.068-.067.09.247.293.494.585.697.923a3.7 3.7 0 01.584.743c.135.203-.157.473-.292.27-.045-.067-.09-.157-.157-.225.112.248.202.495.247.743-.112-.158-.225-.293-.337-.428-.045.068-.113.113-.18.113.067.09.135.18.225.27-.045.068-.113.135-.158.203-.157-.18-.36-.36-.472-.563a3.981 3.981 0 00-.36-.495c-.45-.45-.899-.923-1.281-1.419-.045-.045-.068-.09-.113-.135a7.964 7.964 0 00-1.146-.788c.247.338.517.653.787.968.022-.045.067-.09.09-.135.494.563.966 1.126 1.461 1.689.135.112.292.202.472.27.135.067.135.247.068.337.067.068.112.136.18.203a2.029 2.029 0 00-.203.225c-.135-.157-.27-.337-.405-.495-.517-.293-.921-.765-1.349-1.193-.27-.27-.517-.54-.764-.833v.022c-.023.113-.067.248-.09.36.09.023.157.113.112.248-.112.315-.247.653-.36.968l.338-.743.225.113-.36.765c.112-.135.382-.022.315.203 0 .022-.023.045-.023.067l.135.045-.652 1.329c-.225.563-.472 1.125-.697 1.71a.203.203 0 01-.202.136c-.068.135-.135.247-.18.383-.112-.09-.18-.136-.27-.158zm.044 1.328c.472-1.148 1.124-2.206 1.529-3.377a.189.189 0 01.36.113c0 .022-.023.045-.023.067.023.788-.854 2.792-1.798 3.895l.135-.473c-.135.045-.27-.045-.203-.225zm.472.676s0-.023.023-.023c.472-.81.99-1.576 1.304-2.476a.189.189 0 01.36.112c-.045.09-.068.203-.113.293 0 0 .023 0 .023.023l-.405 1.148.022-.023c-.382.675-.764 1.35-1.169 2.094-.315-.473-.225-.833-.045-1.148zm1.62-1.058c-.45.923-.878 1.823-1.327 2.746a.673.673 0 01-.18-.09c.36-.855.72-1.688 1.079-2.544.09-.067.202-.135.292-.203.045.023.09.068.135.09zm-.765 8.33c-.248.112-.495.225-.945.405 1.372-1.103 1.417-1.126 1.574-.293-.517.248-1.056.518-1.574.788l-.067-.135c.36-.225.697-.45 1.057-.675 0-.023-.023-.045-.045-.09zM.94 42.489a1.27 1.27 0 00-.09-.27c.72-.293 1.417-.608 2.137-.9.022.112.044.202.09.314-.698.27-1.417.563-2.137.856zm1.08.743l-.045-.225 1.619-.63.067.27c-.562.202-1.102.382-1.641.585zm5.35-5.989c-.09 1.081-.224 2.162-.269 3.265-.022.81.225 1.71 0 2.499-.067.202-.292.157-.36 0a1.455 1.455 0 00-.18.202l-.134-.067.134-3.692a6.62 6.62 0 00-.112 1.148c0 .112-.067.18-.157.18 0 .72-.023 1.463-.023 2.184h-.315l.18-2.252c-.022-.022-.045-.067-.045-.135-.09.18-.18.338-.292.496l-.067 1.508h-.18c-.068.225-.405.203-.36-.045.067-.383.09-.765.09-1.17-.023 0-.045-.023-.068-.046a23.31 23.31 0 00-.045 1.239c-.112-.046-.27-.068-.27-.09l.203-3.85c-.09-.923-.18-1.846-.09-2.792.068-.698.045-1.373.068-2.071l-.203.81a7.667 7.667 0 00-.067 1.013c.045-.27.09-.517.157-.788-.112 2.544-.247 5.088-.36 7.655h-.292v-1.283c-.112.067-.315-.045-.27-.248.158-.653.225-1.328.27-2.004-.157.023-.292-.022-.337-.202-.023-.158-.045-.338-.068-.496-.135.968-.112 1.892-.022 2.905.022.247-.337.337-.36.09-.067-.743-.135-1.509-.09-2.252l-.09.9c-.067 0-.112 0-.18-.022.203-2.093.428-4.21.63-6.303-.023.067-.023.157-.045.225-.09.405-.18.833-.315 1.26-.18 1.464-.382 2.927-.562 4.39-.045-1.103 0-2.206.113-3.286a3.222 3.222 0 01-.36.54c-.068.45-.135.9-.203 1.373-.112-.315-.247-.517-.224-.698 0-.09.022-.18.022-.247-.202.135-.495.022-.495-.248-.022-1.71.697-3.287 1.327-4.84.157-.766.247-1.531.18-2.32 0-.09.225-.247.337-.36l.09.09a.368.368 0 01.27-.044c.022-.023.067-.023.09-.023l.067-.473c.045 0 .113.023.158.023-.023.18-.045.36-.068.563.113.247.18.495.225.765.067-.585.157-1.17.225-1.756.067 0 .112-.022.18-.022-.113.788-.225 1.576-.36 2.364 0 .27 0 .54-.023.81-.044.698-.134 1.373-.157 2.071.023-.112.045-.225.045-.337.045-.923.157-1.847.27-2.77a.213.213 0 01.202-.18c.023-.157.158-.225.293-.247.067-.09.202-.136.27-.023.067.09.112.18.157.27.022 0 .022-.022.045-.022v-.113c.067 0 .112 0 .18-.022v.135c.157.045.27.18.224.383-.09.36-.18.72-.292 1.103v.045l-.202 4.615c.112-.72.247-1.44.382-2.161.09-1.396.18-2.77.225-4.165h.225c-.023.315-.023.63-.045.923.045-.023.067-.045.112-.068v-.045c0-.135.068-.225.157-.27a9.03 9.03 0 010-1.103c0-.248.383-.248.383.022-.023.383 0 .743 0 1.126.067.045.09.135.09.225 0 1.869.09 3.715-.045 5.583-.023.203-.023.406-.045.608v1.374l.135-1.599c.09-1.035.247-2.071.247-3.13 0-.36 0-.697-.023-1.057v.337h-.157c0-.923-.022-1.846-.022-2.746h.247v.157c.112-.09.315-.045.315.158-.045 1.058.022 2.116.022 3.174-.022 1.103-.202 2.252-.292 3.377zm.743 3.94c.022.653.045 1.306.045 1.959-.09 0-.18.022-.292.022 0-.675-.023-1.328 0-2.003a.287.287 0 01-.158-.27c-.022-.766.023-1.509.113-2.252.067-2.409.022-4.795 0-7.204 0-.18.134-.293.27-.293v-.765c0-.023 0-.045-.023-.068-.068-.248.292-.338.36-.09.09.36.18.743.224 1.126.09-.09.225-.09.338-.068V30.4h.202v.878c0-.045 0-.09.023-.157.022-.113.09-.158.18-.18.022-.136.112-.248.292-.248.225 0 .337.203.292.383.045 0 .09 0 .135-.023l.022.766c.135-.136.36-.18.473-.023-.023-.315-.068-.63-.09-.923l.224-.158c.113.136.338.27.338.428.022.135.022.293.022.428 0 .023.023.023.023.045.045.383.067.765.067 1.148.045-.225.09-.45.158-.675v-.158c0 .045.022.068.022.113.023-.045.023-.068.045-.113.067-.157.18-.203.315-.203v-.022c-.09-.225.247-.428.337-.18.135.36.135.743.157 1.148.023.54.068 1.08.045 1.621-.09 1.328-.067 2.612.18 3.917.045.248-.315.338-.36.09a12.421 12.421 0 01-.224-2.026v.54c.022.563.045 1.126.135 1.667.134.855.112.945-.765 1.148v-.248a.327.327 0 01-.202.135c0 .225 0 .45-.045.676-.068 0-.135 0-.203.022l-.067-.788a.214.214 0 01-.09-.225v-.045c-.022-.022-.045-.09-.022-.135l.067-.405v-.473c-.023-.293-.023-.608-.045-.9-.067-.608-.202-1.194-.292-1.78l-.068-.472.203 5.673c-.09 0-.158.023-.248.023l-.27-7.587a42.481 42.481 0 00-.36-1.801h-.022c-.045.36-.045.72-.045 1.103.113 0 .203.068.248.225.157.946.135 1.914.067 2.86 0 .044.023.09.023.134.067.698 0 1.306-.045 2.004-.045.608.045 1.238.135 1.846.157.608.382 1.238.157 1.869h-.18l-.022-.856c-.09.045-.203 0-.225-.135a7.877 7.877 0 00-.09-.72c-.023.09-.045.202-.068.292.113.676.27 1.329-.135 2.004l.068-1.643v.045a.303.303 0 01-.292.225v.315c-.068.023-.135.023-.203.045v-.45a.277.277 0 01-.112-.225c-.023-.766.045-1.554.135-2.32l.022-2.949-.202 1.216c.045.63.067 1.261.022 1.914 0 .135-.112.18-.202.18.09 1.283.135 2.566.18 3.85 0 .157-.113.338-.18.518-.045-.023-.112-.023-.157-.045.022-1.464.022-2.905.045-4.368-.023.135-.045.27-.045.405-.023.743-.045 1.509-.113 2.252a.415.415 0 01-.247.292zm1.978 1.914c-.044.045-.09.045-.134.045.044.09.09.18.157.293-.472-.158-.832-.428-1.17.202-.134-.135-.269-.27-.494-.473.427-.27.765-.472 1.147-.72.045.067.067.135.112.203v-.068c0-.112.113-.203.203-.203.112 0 .18.09.18.203a.86.86 0 00.044.203c.045.112.045.225-.045.315zm1.777.81a2.139 2.139 0 01-.203-.472c.045.202-.27.36-.36.135-.09-.226-.18-.473-.27-.72.046.157.068.337.09.517.046.248-.337.338-.359.09v-.045c-.023.158-.27.248-.36.068-.18-.338-.18-.766-.405-1.081-.134-.203.135-.473.293-.27.247.338.247.788.45 1.148v.023c-.068-.383-.135-.766-.293-1.126-.09-.225.247-.405.337-.18 0 .022 0 .022.023.045.045-.18.292-.27.337-.068.158.473.315.946.495 1.396-.135-.518-.158-1.08-.427-1.553-.113-.225.225-.406.337-.18.337.607.225 1.395.584 1.98.158.226-.134.496-.27.293zm.877-.112c.022.09.067.18.09.27-.068.022-.135.068-.203.09l-1.012-2.77.158-.067v.023a.16.16 0 01.247.022c.472.676.81 1.509 1.034 2.32.068.18-.224.27-.314.112zm.742.09c-.068 0-.135-.045-.158-.135-.022-.09-.067-.203-.09-.293a8.895 8.895 0 01-.674-1.824 1.24 1.24 0 00-.203-.315c-.112-.112-.022-.292.113-.315v-.225a.801.801 0 00.09.203.17.17 0 01.09.045c.292.337.404.743.517 1.17.112.496.404.923.54 1.419.022.067 0 .135-.046.157.045.135.113.27.158.406-.09 0-.225-.113-.338-.293zm.742-.158c-.18.023-.203-.202-.113-.337-.067-.09-.18-.203-.202-.248a6.795 6.795 0 01-.36-.698c-.202-.45-.292-.968-.63-1.35-.112-.136 0-.316.135-.339 0-.022 0-.022-.022-.045.067-.022.135-.067.202-.09l.158.473c.314.518.45 1.193.764 1.734.18.27.675.855.068.9zm.989.023l-.068-.135a.204.204 0 01-.18-.09c-.202-.406-.404-.833-.54-1.261-.067-.203-.112-.45-.179-.653-.022-.068-.067-.135-.09-.203-.022-.045-.045-.067-.067-.112.247.878.517 1.733.764 2.611-.023.023-.045.023-.067.045-.428-1.058-.855-2.093-1.282-3.151.067-.046.112-.068.18-.113l.247.315c.023-.09.09-.18.18-.18.023-.09.045-.203.068-.36.067.202.157.405.224.608.158.225.225.472.293.743.022.067.022.112.045.18.067.202.157.405.224.608.113.247.225.472.338.72a.252.252 0 010 .18c.022.068.045.113.067.18a1.09 1.09 0 00-.157.068zm1.102-.203c-.023-.045-.046-.09-.046-.135-.067.113-.202.158-.292.045a5.835 5.835 0 01-.854-1.328c-.18-.383-.225-1.036-.562-1.306-.18-.135.022-.473.225-.338.09.068.157.158.224.248.068-.068.135-.09.225-.023l.068.068c.067-.023.135-.068.202-.09.068.203.135.428.202.63.113.18.203.383.27.563.203.495.495.968.652 1.463.113.27-.225.45-.314.203zm5.283.405c-.045-.067-.067-.135-.112-.202h-.023c-.112-.045-.135-.135-.112-.225-.787-1.441-1.394-2.972-1.889-4.57 0 0-.022 0-.022.022 0 .09.022.158.022.248.225.382.315.832.45 1.26.135.428.18.9.292 1.351.293.743.607 1.464.877 2.229-.36-.45-.63-.968-.832-1.508-.022-.046-.022-.068-.045-.113-.09.045-.18.023-.225-.09-.202-.518-.27-1.08-.382-1.644a61.54 61.54 0 00-.337-1.058 1.277 1.277 0 00-.18-.292c0-.023-.023-.023-.023-.045a1.09 1.09 0 01-.157.067l1.574 4.683c-.09.045-.157.068-.247.113l-1.62-4.413c-.044.022-.09.022-.112.045.023.09.045.18.068.247.045.023.067.046.112.068a.2.2 0 010 .315l.068.27c.067.023.112.068.112.158.045.518.315.946.495 1.396.202.54.382 1.08.63 1.576.09.157-.068.292-.203.27h-.067c-.09-.023-.113-.113-.113-.18-.247-.518-.427-1.08-.652-1.621-.18-.45-.45-.856-.472-1.373a.32.32 0 01.045-.158c-.045-.113-.09-.225-.113-.36-.134-.09-.292-.158-.45-.068 0 .068.023.135 0 .203 0 .067-.044.135-.112.18.09.293.135.63.27.923.27.675.562 1.35.855 2.026.112.225-.248.405-.338.18-.045-.09-.067-.157-.112-.247l-.135.067c-.405-1.058-.787-2.116-1.17-3.13-.291.226-.359.451-.314.676.18.338.225.743.337 1.103.158.428.383.81.585 1.216.067.18-.09.315-.225.27-.09.068-.202.068-.247-.067-.248-.698-.787-1.283-.967-2.026l-.067-.113c-.023.023-.068.045-.09.068.09.292.157.585.247.877-.045.023-.09.023-.135.046a46.659 46.659 0 00-.607-1.689c.27-.225.472-.383.674-.54.27-.225.473-.563.765-.698.585-.27 1.102-.563 1.506-1.126.113-.135.652-.135.81.023.292.315.494.765.652 1.193.494 1.17.944 2.364 1.416 3.557.023.045.023.067.045.113.068.045.09.135.09.202.045.09.068.18.113.27-.045-.045-.135 0-.203.045zm17.762-9.703c.203.518.068.72-.36.878-.944.338-1.888.72-2.832 1.08-4.137 1.554-8.274 3.13-12.434 4.684-.607.225-1.169.18-1.754-.27 5.846-2.14 11.602-4.256 17.38-6.372zm-17.2 7.88c.45.428.877.81 1.282 1.193-.63.203-1.012-.135-1.282-1.193zm9.938-.676c-.27.09-.652-.157-.967-.27 0 0 .045-.202.068-.315-.36.09-.72.203-1.102.27-.81.135-1.596.248-2.406.36-.54.136-1.124.18-1.619.406-.472.225-.876.202-1.259-.023-.382-.225-.742-.495-1.124-.743 5.262-1.981 10.478-3.94 15.694-5.898.247.45-.023.495-.337.63-2.586 1.08-5.172 2.184-7.757 3.287 0 .023.022.045.022.09 1.822-.72 3.62-1.44 5.441-2.161.9-.36 1.8-.766 2.699-1.148.112.652-.113.923-.608 1.103-.742.27-1.461.608-2.203.923l2.63-.81c.203.472-.112.72-.427.967.383-.045.72-.045.563.653-2.406.923-4.857 1.846-7.308 2.68zm.27.406v-.226c2.36-.878 4.744-1.756 7.105-2.634.202.45-.135.563-.427.676-1.889.698-3.778 1.418-5.666 2.094-.315.135-.675.067-1.012.09zm7.352-1.036c-.18.248-.315.585-.54.743-.517.36-.989.18-1.506-.225a56.594 56.594 0 001.889-.72.49.49 0 00.157.202zm-.067-.428c-1.642.405-3.08 1.464-4.902 1.306 1.687-.675 3.215-1.306 4.767-1.936.045.203.09.383.135.63zm-.18-11.347c-.832-.742-.09-1.058.27-1.418-.09.428-.18.878-.27 1.418zm-.427-.99c-.113-.045-.225-.068-.337-.113.044-.36 0-.81.157-1.08.63-1.036 1.349-2.027 2.023-3.017.068.045.135.067.203.112a231.656 231.656 0 00-2.046 4.098zm-.337-1.373c-.068-1.014 0-1.982.809-2.792.652-.676 1.192-1.486 1.799-2.229-.068 2.161-1.732 3.332-2.608 5.02zm.382-2.77c.36-1.8 1.686-2.904 2.743-4.187-.135 1.148-.855 2.274-2.743 4.187zm.764-2.364c-.022-.472-.225-.99-.067-1.238.787-1.058 1.664-2.048 2.563-3.13-.045 1.577-.877 3.018-2.496 4.368zm.203-1.913c-.023-2.477 1.753-3.76 3.08-5.471.067 2.634-2.001 3.715-3.08 5.47zm.427-2.702c.067-.585.09-1.216.382-1.62.854-1.127 1.799-2.162 2.72-3.22-.224 2.206-2.09 3.197-3.102 4.84zm3.305-5.583c-.9 1.283-1.979 2.431-3.013 3.692-.247-.968.023-1.711.562-2.386a116.38 116.38 0 011.529-1.914c.382-.473.765-.9 1.17-1.35.09.044.18.067.246.112-.157.63-.157 1.373-.494 1.846zm-3.013 1.576c.09-.63.023-1.216.27-1.554.877-1.26 1.866-2.409 2.81-3.624l.225.112c-.067.428-.022.968-.225 1.261-.967 1.26-1.978 2.431-3.08 3.805zm3.08-5.494c-.989 1.171-2.023 2.342-3.035 3.49-.045-1.44-.045-1.44.765-2.657.09-.112.157-.247.247-.36.674-.99 1.326-1.958 2.023-2.972.81 1.059.81 1.531 0 2.5z" fill="#000"/><path d="M6.682 22.355c.404.5.808.972 1.337 1.36a45.203 45.203 0 01-1.026-1.193c-.124-.028-.218-.111-.31-.166z" fill="#000"/><path fill-rule="evenodd" clip-rule="evenodd" d="M6.682 21.675l.483.411a1.105 1.105 0 01.055.051l.043.04c.03.027.054.044.079.051l.036.012.023.039c.229.399.458.772.689 1.146l.597.97-.746-.784c-.368-.386-.647-.853-.92-1.335l-.339-.6z" fill="#000"/><path d="M10.383 17.126c.334.162.643.308.977.47a9.58 9.58 0 00-1.337-.68c.129.08.257.146.36.21z" fill="#000"/><path fill-rule="evenodd" clip-rule="evenodd" d="M10.023 16.444l.144-.208a8.61 8.61 0 011.193 1.156l-.15.204c-.146-.136-.287-.264-.428-.393-.142-.13-.284-.259-.43-.395l-.007-.005-.005-.006a3.812 3.812 0 00-.137-.153l-.008-.008a4.61 4.61 0 01-.172-.192z" fill="#000"/><path d="M46.776 6.716h11.566c.907 0 1.769.09 2.608.27.84.18 1.497.404 1.973.697.59.337 1.044.763 1.361 1.258.317.494.476 1.01.476 1.573 0 .921-.499 1.707-1.52 2.359-.407.27-.838.494-1.315.674-.476.18-1.134.382-1.973.607v.045c1.089.202 1.973.45 2.676.719 1.906.831 2.858 1.977 2.858 3.438 0 .808-.295 1.505-.862 2.112-.567.607-1.406 1.056-2.472 1.393-1.066.314-2.336.494-3.787.494h-11.59v-.427h.454c.976 0 1.701-.224 2.155-.696.476-.472.703-1.191.703-2.135v-9.1c0-.966-.227-1.685-.703-2.157-.477-.472-1.202-.697-2.155-.697h-.453v-.427zm6.667.405v6.853h3.425c2.812 0 4.218-1.213 4.218-3.64 0-1.079-.295-1.888-.907-2.427-.612-.54-1.52-.786-2.767-.786h-3.969zm0 7.28v7.572h3.538c1.497 0 2.654-.337 3.447-.988.794-.652 1.203-1.596 1.203-2.81 0-1.033-.318-1.864-.976-2.47a3.839 3.839 0 00-1.791-1.012c-.703-.18-1.747-.27-3.107-.27h-2.314v-.022zm12.734-7.685H76.81v.405h-1.12c-.962 0-1.678.225-2.126.698-.47.472-.694 1.17-.694 2.16V21.95h4.03c.806 0 1.545-.18 2.261-.54a5.586 5.586 0 001.836-1.485c.313-.405.582-.788.828-1.17a6.96 6.96 0 00.672-1.418 19.2 19.2 0 00.627-1.912h.403v6.93h-17.35l-.023-.405h.582c1.881 0 2.821-.945 2.821-2.858V9.98c0-1.89-.94-2.835-2.82-2.835h-.56v-.428zm26.473-.68h.4l6.2 13.978c.198.436.42.803.663 1.079.244.275.532.482.842.62.31.137.664.183 1.085.183h.398v.436h-8.945v-.436h1.173c.576 0 .997-.092 1.285-.252.265-.16.398-.413.398-.758a2.31 2.31 0 00-.155-.78c-.11-.298-.332-.85-.708-1.653-.023-.046-.045-.114-.089-.23a3.794 3.794 0 00-.133-.297l-.243-.574h-6.532l-.487 1.193a3.403 3.403 0 00-.244 1.217c0 .344.089.688.288 1.032.177.345.443.597.73.78.2.116.377.207.532.253.155.046.376.07.686.092v.436h-6.266v-.436c.465-.046.82-.137 1.085-.252a3.83 3.83 0 00.908-.574c.775-.62 1.55-1.813 2.28-3.535l4.85-11.522zM91.5 9.778l-3.012 7.115h6.111l-3.1-7.115zm28.394 6.748h.386a10.575 10.575 0 01-.591 1.665c-.227.45-.522.9-.909 1.373-1.523 1.868-3.591 2.791-6.136 2.791a9.545 9.545 0 01-4.523-1.125c-1.387-.743-2.501-1.756-3.319-2.994-.818-1.26-1.227-2.61-1.227-4.074 0-.878.159-1.733.477-2.589a7.97 7.97 0 011.432-2.408 9.722 9.722 0 012.159-1.913c1.25-.81 2.682-1.216 4.319-1.216a8.4 8.4 0 011.545.135c.478.09.955.248 1.387.45.432.203.886.473 1.341.81.522.361.886.519 1.136.519.546 0 1.205-.563 2.023-1.666h.386l.319 7.54h-.364c-.136-.54-.25-.99-.364-1.328a7.04 7.04 0 00-.477-1.08 11.511 11.511 0 00-1.841-2.724 7.613 7.613 0 00-2.318-1.733 5.88 5.88 0 00-2.591-.585c-1.046 0-1.91.27-2.592.833-.659.563-1.159 1.418-1.477 2.61-.318 1.194-.477 2.68-.477 4.48 0 1.035.045 1.98.159 2.769.114.788.295 1.485.523 2.048.227.563.545 1.013.909 1.395.454.45.977.788 1.614 1.036.636.225 1.341.36 2.091.36.704 0 1.363-.09 2.022-.27.637-.18 1.25-.45 1.819-.81a7.1 7.1 0 001.545-1.328 6.44 6.44 0 00.909-1.306c.228-.36.478-.945.705-1.665zm1.723-9.81h9.904V7.1h-.451c-.945 0-1.643.248-2.138.721-.473.474-.72 1.195-.72 2.164v6.828l7.428-5.95c.495-.405.832-.743.99-1.013.158-.27.248-.564.248-.902 0-.563-.248-1.014-.721-1.352-.472-.338-1.125-.496-1.958-.496h-.36v-.383H143V7.1h-.225c-1.261 0-3.061.947-5.402 2.817l-3.084 2.457 4.727 7.256c.518.81 1.08 1.397 1.643 1.757.585.36 1.261.541 2.026.541h.292v.428h-9.656v-.428h.495c1.419 0 2.139-.338 2.139-1.014a.866.866 0 00-.09-.383c-.068-.135-.203-.36-.383-.676l-3.579-5.544-3.691 2.952v1.803c0 .947.247 1.668.72 2.141.473.473 1.193.699 2.138.699h.451v.428h-9.882v-.428h.428c.968 0 1.688-.226 2.161-.699.472-.473.72-1.194.72-2.14V9.938c0-.97-.248-1.69-.72-2.164-.473-.473-1.193-.72-2.161-.72h-.45v-.339zm-59.762 18.97h.379v5.41h-.379c-.467-1.29-1.002-2.309-1.581-3.033-.423-.52-.958-.95-1.604-1.358a8.238 8.238 0 00-2.183-.905 8.856 8.856 0 00-2.428-.34 5.25 5.25 0 00-1.648.249c-.49.181-.89.43-1.225.77-.245.248-.423.52-.557.814a2.1 2.1 0 00-.2.86c0 .521.2.974.601 1.358.178.181.445.363.802.544.334.18.78.34 1.336.497.557.159 1.315.363 2.272.612.268.09.446.135.535.135l.535.136.868.227c1.47.384 2.54.724 3.208 1.018a5.48 5.48 0 011.715 1.154c.378.363.646.77.868 1.245.2.476.312.974.312 1.54 0 .543-.111 1.086-.334 1.629a4.168 4.168 0 01-.98 1.426 5.4 5.4 0 01-2.027 1.29c-.802.294-1.715.43-2.74.43a8.435 8.435 0 01-2.026-.226c-.624-.136-1.404-.408-2.317-.815a13.823 13.823 0 00-1.359-.498 3.13 3.13 0 00-.868-.136c-.535 0-.98.136-1.337.43-.356.272-.601.68-.735 1.2h-.379v-7.243h.38c.155 1.29.667 2.467 1.536 3.508a9.611 9.611 0 002.005 1.72c.824.521 1.67.951 2.561 1.245a8.11 8.11 0 002.562.43c.712 0 1.38-.113 1.96-.362.601-.249 1.069-.566 1.38-.996.335-.43.49-.905.49-1.448 0-.566-.222-1.087-.667-1.54-.2-.203-.468-.384-.802-.565-.334-.181-.758-.34-1.27-.52-.512-.182-1.247-.386-2.138-.635l-1.114-.294c-1.737-.475-2.918-.837-3.586-1.109a8.735 8.735 0 01-1.76-.837 4.165 4.165 0 01-1.113-1.064c-.468-.611-.69-1.267-.69-1.992 0-.882.244-1.652.756-2.354.513-.701 1.225-1.245 2.139-1.63.913-.384 1.938-.588 3.051-.588 1.693 0 3.43.476 5.257 1.426.646.317 1.07.475 1.292.475.579 0 .98-.43 1.247-1.29zm2.317-.611h18.02v7.955l-.354.022c-.176-1.983-.773-3.695-1.766-5.137-1.17-1.623-2.672-2.434-4.461-2.434h-.795v11.966c0 1.892.927 2.839 2.782 2.839h2.297v.428H66.468v-.428h2.297c1.855 0 2.782-.947 2.782-2.84V25.482h-.993c-1.833 0-3.313.879-4.461 2.636-.574.857-.994 1.893-1.281 3.065a17.265 17.265 0 00-.287 1.848h-.376v-7.955h.023zm28.578 0c1.45 0 2.79.226 3.996.7a8.986 8.986 0 013.148 2.054 8.78 8.78 0 011.742 2.55 7.27 7.27 0 01-.648 6.975c-.826 1.241-1.942 2.234-3.371 2.957-1.43.722-2.97 1.083-4.667 1.083-1.295 0-2.5-.203-3.64-.61a9.527 9.527 0 01-3.013-1.737 8.029 8.029 0 01-2.032-2.641 7.034 7.034 0 01-.737-3.137c0-1.445.424-2.8 1.25-4.063.849-1.264 1.965-2.257 3.372-3.002 1.429-.768 2.947-1.129 4.6-1.129zm.29.384c-.67 0-1.318.113-1.898.361a3.692 3.692 0 00-1.496 1.016 6.852 6.852 0 00-1.139 1.67 9.122 9.122 0 00-.714 2.167c-.157.79-.246 1.648-.246 2.573 0 1.151.134 2.212.38 3.16a7.97 7.97 0 001.094 2.46c.469.677 1.049 1.219 1.697 1.557a4.52 4.52 0 002.21.542c1.094 0 2.054-.316 2.858-.948.803-.632 1.429-1.535 1.875-2.708.424-1.174.648-2.573.648-4.198 0-1.039-.112-2.032-.358-2.935-.245-.903-.58-1.715-1.026-2.392-.447-.677-.983-1.22-1.608-1.603a3.912 3.912 0 00-1.072-.496 3.43 3.43 0 00-1.206-.226zm10.826-.384h6.24l10.826 11.647v-6.974c0-.86-.134-1.581-.425-2.232-.269-.628-.671-1.116-1.208-1.464-.291-.186-.559-.326-.85-.396a6.416 6.416 0 00-1.208-.162v-.419h7.717v.419h-.157c-1.118 0-1.968.372-2.572 1.116-.581.743-.872 1.813-.872 3.23v11.554h-.358l-13.443-14.32v9.601c0 .93.112 1.674.313 2.232.224.558.56 1 1.052 1.325.402.255.872.395 1.431.465.313.046.761.093 1.342.116v.418h-8.119v-.418c.827-.047 1.498-.21 2.035-.465.515-.256.917-.65 1.163-1.162.246-.512.381-1.14.381-1.907v-9.135c0-.558-.112-1.046-.358-1.442a2.291 2.291 0 00-1.052-.906c-.469-.21-1.006-.326-1.677-.326h-.201v-.395z" fill="#000"/><path d="M124.958 25.075h16.939v6.045h-.343c-.321-1.056-.596-1.843-.847-2.382a6.898 6.898 0 00-.962-1.483c-.481-.562-1.007-.966-1.556-1.191-.939-.382-2.061-.562-3.411-.562h-3.113v7.438h.847c1.259 0 2.243-.54 2.976-1.596.389-.539.663-1.19.846-1.955.092-.314.184-.786.252-1.415h.389V38.22h-.389a20.492 20.492 0 00-.32-1.55 6.605 6.605 0 00-.412-1.191c-.16-.315-.366-.607-.595-.922-.687-.831-1.648-1.235-2.907-1.235h-.687v6.988h2.632c.779 0 1.465-.045 2.083-.158a7.232 7.232 0 001.671-.494 5.453 5.453 0 001.397-.899 6.297 6.297 0 001.739-2.314c.229-.54.481-1.236.733-2.157h.412v6.426h-17.328l-.023-.404h.435c1.923 0 2.884-.944 2.884-2.854v-9.1c0-.966-.229-1.686-.71-2.157-.48-.472-1.19-.697-2.197-.697h-.435v-.427z" fill="#000"/></svg>