<svg width="141" height="23" fill="none" xmlns="http://www.w3.org/2000/svg"><path d="M26.768 11.378l-.391-.71-.511-.93v-.001l-.392-.71-.51-.931-.392-.711-.39.711-.51.931.39.71v.001l.512.93-.39.712-.51.93-.39.712-.512.931-.39.71-1.022.002-.39-.711-.512-.931-.392-.71-.51-.932-.392-.71-.511-.93V9.74l-.391-.71-.512-.931-.39-.711-.512-.93-.391-.712-.511-.93h-1.804l-.78.002h-1.023l-.78.001h-1.023l-.78.002H8.733l-.78.001H6.928l-.78.002-.511.93-.39.712-.511.93-.39.712v.001l-.511.931-.39.711-.511.931.391.712h1.802l-.39-.712.51-.931.001-.001.39-.71.51-.932.39-.711.511-.931h.781l1.022-.002h.782l1.022-.001h.78l1.023-.001.78-.001 1.023-.001h.781l.511.93.391.71.512.932.39.71.513.93.39.711.512.931.39.711.512.931.392.71h-.781l-1.023.002H15.17l-1.022.001h-2.584l-1.023.002H6.154l-1.022.004.511.93.391.71.512.932.39.71.512.931.391.711h1.804l1.022-.001h.781l1.022-.001h2.583l1.023-.002h1.803l.78-.001h1.023l.781-.002h1.023l.39-.712.51-.93.39-.712.51-.93.39-.712.512-.93.39-.712.51-.931.39-.712.391.711.512.93.51-.93.39-.712-.51-.932zm-5.797 5.86l-.39.71-1.022.001h-.781l-1.023.001h-.78l-1.023.002h-.781l-1.022.001h-.781l-1.023.002h-.78l-1.023.001h-.78l-1.023.001-.391-.71-.511-.931h1.022l.78-.002h1.023l.78-.001h1.023l.781-.002h1.022l.781-.001h1.022l.781-.002h1.023l.78-.001h1.023l.781-.002h1.022l-.51.933z" fill="#fff"/><path d="M15.048 13.027h-.78l-1.023.001-.903-1.64 1.023-.002h.78l.903 1.64zm-3.607.002h-.78l-1.022.001-.781.001H6.032l-.78.002H4.229l-.391-.71-.512-.93 1.023-.001h.78l1.023-.002h1.803l.781-.001H9.76l.78-.001.512.93.39.71zm28.099.145h-2.57v3.53h-2.33V7.515h2.33v3.53h2.44l2.299-3.53h2.82l-3.077 4.508 3.332 4.68h-2.89l-2.354-3.53zm16.453 3.529h-2.377l-.613-2.131h-4.7l-.613 2.131h-2.378l2.658-9.187h5.367l2.656 9.187zm-6.238-7.18l-.83 2.918h3.455l-.83-2.919h-1.795zm17.658 1.514c0 .443-.023 1.124-.08 1.512-.223 1.511-.965 2.146-2.903 2.146H59.6v2h-2.33V7.506h7.16c1.743 0 2.611.546 2.885 2.01.067.355.098 1.078.098 1.52zm-2.4-.69c0-.459-.355-.83-.791-.83h-4.621v3.047h4.621c.437 0 .791-.373.791-.832v-1.384zm6.37-.825v1.583h6.595v2.01h-6.595V14.7h7.813v2.002H69.052V7.516h10.143v2.006h-7.812zm20.07-2.007v9.188h-2.331v-7.18h-4.626c-.437 0-.79.374-.79.832v2.65l-.004.002c0 .681-.043 1.045-.12 1.49a2.68 2.68 0 01-.888 1.567c-.538.472-1.272.64-2.383.64v-2.003c.893-.12.985-1.08.994-1.219v-2.437c0-.442.03-1.165.098-1.521.273-1.462 1.143-2.01 2.885-2.01h7.165zm12.133-.005v9.187h-2.358V9.641l-3.955 7.056h-3.83V7.51H95.8v7.056l3.99-7.056h3.795zm1.819 5.036c-.057-.388-.079-1.07-.079-1.512 0-.442.031-1.165.098-1.521.273-1.463 1.142-2.01 2.884-2.01h7.161v9.188h-2.331v-2h-4.058l-1.109 2.003h-2.645l1.28-2.28c-.716-.317-1.061-.92-1.201-1.868zm7.733-3.033h-4.621c-.437 0-.791.372-.791.831v1.384c0 .46.354.832.791.832h4.621V9.512z" fill="#fff"/><path d="M123.618 16.704V7.517h2.331v9.187h-2.331zm13.767-7.184h-3.906v7.178h-2.331V9.52h-3.906V7.51h10.143v2.01z" fill="#A3905F"/></svg>